{"glyphs":{"0":{"ha":846,"x_min":58,"x_max":814,"o":"m 350 -28 q 58 289 58 -28 q 105 590 58 439 q 256 842 151 740 q 521 944 360 944 q 814 626 814 944 q 767 326 814 476 q 615 74 719 176 q 350 -28 511 -28 m 361 35 q 497 142 436 35 q 593 403 558 249 q 628 688 628 557 q 510 882 628 882 q 374 774 435 882 q 278 512 313 667 q 244 226 244 357 q 273 81 244 128 q 361 35 301 35 z "},"1":{"ha":450,"x_min":69,"x_max":439,"o":"m 97 0 l 229 753 l 94 675 l 69 718 l 318 917 l 439 917 l 278 0 l 97 0 z "},"2":{"ha":750,"x_min":-8,"x_max":739,"o":"m 7 90 q 71 142 38 117 q 299 335 203 246 q 470 531 396 424 q 544 738 544 638 q 510 845 544 808 q 422 882 475 882 q 263 822 332 882 q 153 639 194 763 l 104 639 q 130 756 115 707 q 171 833 144 804 q 298 913 219 882 q 461 944 376 944 q 656 899 574 944 q 739 736 739 853 q 655 515 739 626 q 467 319 571 404 q 218 132 363 235 q 122 63 150 85 l 410 63 q 545 102 493 63 q 611 215 597 142 l 653 215 l 635 111 q 594 31 625 61 q 497 0 564 0 l -8 0 l 7 90 z "},"3":{"ha":754,"x_min":-10,"x_max":756,"o":"m 744 854 l 342 529 q 377 533 351 531 q 431 535 403 535 q 553 512 493 535 q 653 438 614 489 q 693 311 693 388 q 640 138 693 215 q 498 16 586 60 q 311 -28 410 -28 q 115 10 186 -28 q -10 122 43 47 l 36 163 q 141 67 82 99 q 261 35 200 35 q 386 74 332 35 q 469 178 440 114 q 499 317 499 243 q 458 433 499 393 q 353 472 418 472 q 246 458 299 472 l 203 446 l 179 499 l 621 854 l 372 854 q 237 815 289 854 q 172 701 185 775 l 131 701 l 149 806 q 189 886 158 856 q 286 917 219 917 l 756 917 l 744 854 z "},"4":{"ha":797,"x_min":-12,"x_max":749,"o":"m 392 0 l 432 236 l -12 236 l -1 292 l 589 917 l 733 917 l 624 299 l 749 299 l 738 236 l 613 236 l 572 0 l 392 0 m 94 299 l 443 299 l 524 754 l 94 299 z "},"5":{"ha":763,"x_min":6,"x_max":729,"o":"m 296 -28 q 121 10 189 -28 q 6 122 53 47 l 53 158 q 151 65 92 96 q 275 35 211 35 q 401 75 347 35 q 484 181 456 115 q 513 318 513 246 q 465 438 513 397 q 325 478 417 478 q 207 461 267 478 q 146 446 192 458 l 100 500 l 189 917 l 729 917 l 718 856 l 339 856 l 269 535 l 313 538 q 346 540 326 539 q 392 542 365 542 q 611 489 515 542 q 707 317 707 436 q 651 129 707 207 q 502 12 596 51 q 296 -28 408 -28 z "},"6":{"ha":779,"x_min":58,"x_max":763,"o":"m 336 -28 q 58 289 58 -28 q 108 599 58 450 q 267 847 157 749 q 549 944 376 944 q 703 921 624 944 q 763 897 729 913 l 747 858 l 686 869 q 565 882 601 882 q 383 795 458 882 q 275 535 307 708 q 333 568 300 554 q 482 601 408 601 q 669 544 611 601 q 728 381 728 488 q 679 180 728 274 q 541 29 631 86 q 336 -28 451 -28 m 347 35 q 456 97 413 35 q 521 242 500 158 q 542 393 542 326 q 429 539 542 539 q 355 524 392 539 q 291 490 318 508 q 264 468 264 471 q 240 235 240 335 q 347 35 240 35 z "},"7":{"ha":661,"x_min":65,"x_max":742,"o":"m 563 854 l 326 854 q 191 815 243 854 q 126 701 139 775 l 85 701 l 103 806 q 143 886 113 856 q 240 917 174 917 l 742 917 l 731 854 l 233 0 l 65 0 l 563 854 z "},"8":{"ha":806,"x_min":19,"x_max":778,"o":"m 329 -28 q 106 22 192 -28 q 19 169 19 71 q 98 344 19 275 q 301 465 176 414 q 184 556 225 510 q 143 668 143 603 q 192 822 143 760 q 323 915 242 885 q 500 944 404 944 q 702 902 626 944 q 778 764 778 860 q 547 497 778 594 q 678 394 632 446 q 725 268 725 343 q 669 103 725 169 q 522 4 613 36 q 329 -28 432 -28 m 481 533 q 562 632 533 569 q 590 767 590 694 q 560 855 590 828 q 489 882 529 882 q 412 857 447 882 q 356 792 376 832 q 336 708 336 751 q 481 533 336 614 m 340 35 q 437 60 393 35 q 506 131 481 86 q 532 231 532 176 q 490 340 532 294 q 368 432 447 386 q 249 323 292 393 q 207 164 207 253 q 242 67 207 99 q 340 35 276 35 z "},"9":{"ha":779,"x_min":40,"x_max":746,"o":"m 254 -28 q 100 -4 171 -28 q 40 19 63 8 l 56 58 l 117 46 q 238 35 192 35 q 420 122 344 35 q 528 382 496 208 q 469 349 500 363 q 322 315 394 315 q 135 372 193 315 q 76 536 76 429 q 125 737 76 643 q 263 888 174 831 q 467 944 351 944 q 746 626 746 944 q 696 317 746 465 q 535 70 646 168 q 254 -28 425 -28 m 374 378 q 448 393 411 378 q 512 427 485 408 q 539 449 539 446 q 564 682 564 590 q 456 882 564 882 q 346 820 389 882 q 283 674 303 758 q 263 521 263 589 q 290 413 263 449 q 374 378 317 378 z "},"\u0000":{"ha":0,"x_min":0,"x_max":0,"o":""},"\r":{"ha":347,"x_min":0,"x_max":0,"o":""}," ":{"ha":347,"x_min":0,"x_max":0,"o":""},"A":{"ha":899,"x_min":-51,"x_max":882,"o":"m 808 -6 q 656 32 722 -6 q 567 175 590 69 l 549 253 l 179 253 l 21 0 l -51 0 l 519 917 l 582 917 l 763 175 q 882 36 796 46 l 876 1 q 808 -6 851 -6 m 219 315 l 533 315 l 444 678 l 219 315 z "},"Á":{"ha":899,"x_min":-51,"x_max":882,"o":"m 808 -6 q 656 32 722 -6 q 567 175 590 69 l 549 253 l 179 253 l 21 0 l -51 0 l 519 917 l 582 917 l 763 175 q 882 36 796 46 l 876 1 q 808 -6 851 -6 m 219 315 l 533 315 l 444 678 l 219 315 m 526 972 l 619 1167 l 785 1167 l 603 972 l 526 972 z "},"Ă":{"ha":899,"x_min":-51,"x_max":882,"o":"m 808 -6 q 656 32 722 -6 q 567 175 590 69 l 549 253 l 179 253 l 21 0 l -51 0 l 519 917 l 582 917 l 763 175 q 882 36 796 46 l 876 1 q 808 -6 851 -6 m 219 315 l 533 315 l 444 678 l 219 315 m 554 972 q 443 1008 488 972 q 382 1103 399 1043 l 426 1132 q 481 1083 444 1103 q 571 1063 517 1063 q 667 1082 625 1063 q 740 1132 710 1101 l 774 1103 q 678 1008 736 1043 q 554 972 621 972 z "},"Ắ":{"ha":899,"x_min":-51,"x_max":882,"o":"m 808 -6 q 656 32 722 -6 q 567 175 590 69 l 549 253 l 179 253 l 21 0 l -51 0 l 519 917 l 582 917 l 763 175 q 882 36 796 46 l 876 1 q 808 -6 851 -6 m 219 315 l 533 315 l 444 678 l 219 315 m 554 972 q 443 1008 488 972 q 382 1103 399 1043 l 426 1132 q 481 1083 444 1103 q 571 1063 517 1063 q 667 1082 625 1063 q 740 1132 710 1101 l 774 1103 q 678 1008 736 1043 q 554 972 621 972 m 531 1153 l 624 1347 l 789 1347 l 607 1153 l 531 1153 z "},"Ặ":{"ha":899,"x_min":-51,"x_max":882,"o":"m 808 -6 q 656 32 722 -6 q 567 175 590 69 l 549 253 l 179 253 l 21 0 l -51 0 l 519 917 l 582 917 l 763 175 q 882 36 796 46 l 876 1 q 808 -6 851 -6 m 219 315 l 533 315 l 444 678 l 219 315 m 351 -233 q 308 -219 324 -233 q 293 -181 293 -206 q 316 -119 293 -144 q 376 -93 339 -93 q 435 -147 435 -93 q 411 -208 435 -182 q 351 -233 388 -233 m 554 972 q 443 1008 488 972 q 382 1103 399 1043 l 426 1132 q 481 1083 444 1103 q 571 1063 517 1063 q 667 1082 625 1063 q 740 1132 710 1101 l 774 1103 q 678 1008 736 1043 q 554 972 621 972 z "},"Ằ":{"ha":899,"x_min":-51,"x_max":882,"o":"m 808 -6 q 656 32 722 -6 q 567 175 590 69 l 549 253 l 179 253 l 21 0 l -51 0 l 519 917 l 582 917 l 763 175 q 882 36 796 46 l 876 1 q 808 -6 851 -6 m 219 315 l 533 315 l 444 678 l 219 315 m 554 972 q 443 1008 488 972 q 382 1103 399 1043 l 426 1132 q 481 1083 444 1103 q 571 1063 517 1063 q 667 1082 625 1063 q 740 1132 710 1101 l 774 1103 q 678 1008 736 1043 q 554 972 621 972 m 556 1160 l 443 1354 l 608 1354 l 632 1160 l 556 1160 z "},"Ẳ":{"ha":899,"x_min":-51,"x_max":882,"o":"m 808 -6 q 656 32 722 -6 q 567 175 590 69 l 549 253 l 179 253 l 21 0 l -51 0 l 519 917 l 582 917 l 763 175 q 882 36 796 46 l 876 1 q 808 -6 851 -6 m 219 315 l 533 315 l 444 678 l 219 315 m 554 972 q 443 1008 488 972 q 382 1103 399 1043 l 426 1132 q 481 1083 444 1103 q 571 1063 517 1063 q 667 1082 625 1063 q 740 1132 710 1101 l 774 1103 q 678 1008 736 1043 q 554 972 621 972 m 533 1161 q 576 1236 543 1203 q 592 1257 585 1246 q 601 1278 600 1268 q 604 1297 604 1292 q 567 1331 604 1331 q 525 1316 542 1331 q 493 1258 508 1301 l 417 1260 q 422 1292 418 1268 q 440 1339 426 1317 q 499 1395 463 1374 q 583 1417 535 1417 q 669 1392 640 1417 q 699 1322 699 1367 q 696 1290 699 1301 q 683 1263 693 1275 q 656 1233 674 1250 q 622 1197 633 1211 q 606 1161 611 1183 l 533 1161 z "},"Ẵ":{"ha":899,"x_min":-51,"x_max":882,"o":"m 808 -6 q 656 32 722 -6 q 567 175 590 69 l 549 253 l 179 253 l 21 0 l -51 0 l 519 917 l 582 917 l 763 175 q 882 36 796 46 l 876 1 q 808 -6 851 -6 m 219 315 l 533 315 l 444 678 l 219 315 m 554 972 q 443 1008 488 972 q 382 1103 399 1043 l 426 1132 q 481 1083 444 1103 q 571 1063 517 1063 q 667 1082 625 1063 q 740 1132 710 1101 l 774 1103 q 678 1008 736 1043 q 554 972 621 972 m 413 1190 q 457 1299 428 1268 q 532 1329 486 1329 q 571 1321 556 1329 q 606 1296 586 1313 q 629 1279 619 1285 q 650 1274 639 1274 q 689 1290 672 1274 q 708 1329 706 1307 l 764 1329 q 720 1221 749 1251 q 646 1190 692 1190 q 606 1199 622 1190 q 571 1224 589 1208 q 559 1233 568 1226 q 542 1242 550 1239 q 526 1246 535 1246 q 488 1229 504 1246 q 468 1190 472 1213 l 413 1190 z "},"Â":{"ha":899,"x_min":-51,"x_max":882,"o":"m 808 -6 q 656 32 722 -6 q 567 175 590 69 l 549 253 l 179 253 l 21 0 l -51 0 l 519 917 l 582 917 l 763 175 q 882 36 796 46 l 876 1 q 808 -6 851 -6 m 219 315 l 533 315 l 444 678 l 219 315 m 351 951 l 493 1125 l 674 1125 l 754 951 l 671 951 l 572 1063 l 435 951 l 351 951 z "},"Ấ":{"ha":899,"x_min":-51,"x_max":997,"o":"m 808 -6 q 656 32 722 -6 q 567 175 590 69 l 549 253 l 179 253 l 21 0 l -51 0 l 519 917 l 582 917 l 763 175 q 882 36 796 46 l 876 1 q 808 -6 851 -6 m 219 315 l 533 315 l 444 678 l 219 315 m 347 986 l 489 1160 l 669 1160 l 750 986 l 653 986 l 568 1097 l 444 986 l 347 986 m 739 1075 l 832 1269 l 997 1269 l 815 1075 l 739 1075 z "},"Ậ":{"ha":899,"x_min":-51,"x_max":882,"o":"m 808 -6 q 656 32 722 -6 q 567 175 590 69 l 549 253 l 179 253 l 21 0 l -51 0 l 519 917 l 582 917 l 763 175 q 882 36 796 46 l 876 1 q 808 -6 851 -6 m 219 315 l 533 315 l 444 678 l 219 315 m 351 -233 q 308 -219 324 -233 q 293 -181 293 -206 q 316 -119 293 -144 q 376 -93 339 -93 q 435 -147 435 -93 q 411 -208 435 -182 q 351 -233 388 -233 m 347 986 l 489 1160 l 669 1160 l 750 986 l 653 986 l 568 1097 l 444 986 l 347 986 z "},"Ầ":{"ha":899,"x_min":-51,"x_max":882,"o":"m 808 -6 q 656 32 722 -6 q 567 175 590 69 l 549 253 l 179 253 l 21 0 l -51 0 l 519 917 l 582 917 l 763 175 q 882 36 796 46 l 876 1 q 808 -6 851 -6 m 219 315 l 533 315 l 444 678 l 219 315 m 347 986 l 489 1160 l 669 1160 l 750 986 l 653 986 l 568 1097 l 444 986 l 347 986 m 797 1103 l 685 1297 l 850 1297 l 874 1103 l 797 1103 z "},"Ẩ":{"ha":899,"x_min":-51,"x_max":924,"o":"m 808 -6 q 656 32 722 -6 q 567 175 590 69 l 549 253 l 179 253 l 21 0 l -51 0 l 519 917 l 582 917 l 763 175 q 882 36 796 46 l 876 1 q 808 -6 851 -6 m 219 315 l 533 315 l 444 678 l 219 315 m 347 986 l 489 1160 l 669 1160 l 750 986 l 653 986 l 568 1097 l 444 986 l 347 986 m 758 1117 q 801 1192 768 1158 q 817 1213 810 1201 q 826 1233 825 1224 q 829 1253 829 1247 q 792 1286 829 1286 q 750 1272 767 1286 q 718 1214 733 1257 l 642 1215 q 647 1248 643 1224 q 665 1294 651 1272 q 724 1351 688 1329 q 808 1372 760 1372 q 894 1347 865 1372 q 924 1278 924 1322 q 921 1246 924 1257 q 908 1218 918 1231 q 881 1189 899 1206 q 847 1153 858 1167 q 831 1117 836 1139 l 758 1117 z "},"Ẫ":{"ha":899,"x_min":-51,"x_max":882,"o":"m 808 -6 q 656 32 722 -6 q 567 175 590 69 l 549 253 l 179 253 l 21 0 l -51 0 l 519 917 l 582 917 l 763 175 q 882 36 796 46 l 876 1 q 808 -6 851 -6 m 219 315 l 533 315 l 444 678 l 219 315 m 347 986 l 489 1160 l 669 1160 l 750 986 l 653 986 l 568 1097 l 444 986 l 347 986 m 417 1214 q 461 1322 432 1292 q 536 1353 490 1353 q 575 1344 560 1353 q 610 1319 590 1336 q 633 1303 624 1308 q 654 1297 643 1297 q 693 1314 676 1297 q 713 1353 710 1331 l 768 1353 q 724 1244 753 1275 q 650 1214 696 1214 q 610 1223 626 1214 q 575 1247 593 1232 q 563 1256 572 1250 q 547 1266 554 1263 q 531 1269 539 1269 q 492 1253 508 1269 q 472 1214 476 1236 l 417 1214 z "},"Ä":{"ha":899,"x_min":-51,"x_max":882,"o":"m 808 -6 q 656 32 722 -6 q 567 175 590 69 l 549 253 l 179 253 l 21 0 l -51 0 l 519 917 l 582 917 l 763 175 q 882 36 796 46 l 876 1 q 808 -6 851 -6 m 219 315 l 533 315 l 444 678 l 219 315 m 444 1007 q 396 1024 413 1007 q 379 1068 379 1042 q 406 1134 379 1106 q 472 1163 433 1163 q 521 1145 504 1163 q 538 1099 538 1128 q 510 1035 538 1063 q 444 1007 482 1007 m 694 1007 q 646 1024 663 1007 q 629 1068 629 1042 q 656 1134 629 1106 q 722 1163 683 1163 q 771 1145 754 1163 q 788 1099 788 1128 q 760 1035 788 1063 q 694 1007 732 1007 z "},"Ạ":{"ha":899,"x_min":-51,"x_max":882,"o":"m 808 -6 q 656 32 722 -6 q 567 175 590 69 l 549 253 l 179 253 l 21 0 l -51 0 l 519 917 l 582 917 l 763 175 q 882 36 796 46 l 876 1 q 808 -6 851 -6 m 219 315 l 533 315 l 444 678 l 219 315 m 351 -233 q 308 -219 324 -233 q 293 -181 293 -206 q 316 -119 293 -144 q 376 -93 339 -93 q 435 -147 435 -93 q 411 -208 435 -182 q 351 -233 388 -233 z "},"À":{"ha":899,"x_min":-51,"x_max":882,"o":"m 808 -6 q 656 32 722 -6 q 567 175 590 69 l 549 253 l 179 253 l 21 0 l -51 0 l 519 917 l 582 917 l 763 175 q 882 36 796 46 l 876 1 q 808 -6 851 -6 m 219 315 l 533 315 l 444 678 l 219 315 m 518 993 l 406 1188 l 571 1188 l 594 993 l 518 993 z "},"Ả":{"ha":899,"x_min":-51,"x_max":882,"o":"m 808 -6 q 656 32 722 -6 q 567 175 590 69 l 549 253 l 179 253 l 21 0 l -51 0 l 519 917 l 582 917 l 763 175 q 882 36 796 46 l 876 1 q 808 -6 851 -6 m 219 315 l 533 315 l 444 678 l 219 315 m 564 988 q 607 1063 574 1029 q 623 1083 615 1072 q 632 1104 631 1094 q 635 1124 635 1118 q 597 1157 635 1157 q 556 1142 572 1157 q 524 1085 539 1128 l 447 1086 q 453 1119 449 1094 q 471 1165 457 1143 q 529 1222 493 1200 q 614 1243 565 1243 q 700 1218 671 1243 q 729 1149 729 1193 q 726 1117 729 1128 q 714 1089 724 1101 q 686 1060 704 1076 q 653 1024 664 1038 q 636 988 642 1010 l 564 988 z "},"Å":{"ha":899,"x_min":-51,"x_max":882,"o":"m 808 -6 q 656 32 722 -6 q 567 175 590 69 l 549 253 l 179 253 l 21 0 l -51 0 l 483 860 q 443 898 460 874 q 426 956 426 922 q 448 1031 426 996 q 506 1089 469 1067 q 585 1111 543 1111 q 665 1082 635 1111 q 696 1006 696 1053 q 669 921 696 960 q 596 860 642 882 l 763 175 q 882 36 796 46 l 876 1 q 808 -6 851 -6 m 582 917 q 614 949 603 928 q 625 994 625 969 q 611 1034 625 1019 q 574 1049 597 1049 q 519 1023 542 1049 q 497 963 497 997 q 519 917 497 935 l 582 917 m 219 315 l 533 315 l 444 678 l 219 315 z "},"Ã":{"ha":899,"x_min":-51,"x_max":882,"o":"m 808 -6 q 656 32 722 -6 q 567 175 590 69 l 549 253 l 179 253 l 21 0 l -51 0 l 519 917 l 582 917 l 763 175 q 882 36 796 46 l 876 1 q 808 -6 851 -6 m 219 315 l 533 315 l 444 678 l 219 315 m 400 972 q 444 1081 415 1050 q 519 1111 474 1111 q 558 1103 543 1111 q 593 1078 574 1094 q 617 1061 607 1067 q 638 1056 626 1056 q 676 1072 660 1056 q 696 1111 693 1089 l 751 1111 q 708 1003 736 1033 q 633 972 679 972 q 593 981 610 972 q 558 1006 576 990 q 547 1015 556 1008 q 530 1024 538 1021 q 514 1028 522 1028 q 476 1011 492 1028 q 456 972 460 994 l 400 972 z "},"Æ":{"ha":1213,"x_min":-92,"x_max":1207,"o":"m 583 917 l 1106 917 q 1207 836 1207 917 q 1183 688 1207 824 l 1142 688 q 1146 733 1146 713 q 997 854 1146 854 l 774 854 l 713 507 l 1074 507 l 1063 444 l 701 444 l 633 63 l 871 63 q 1009 98 950 63 q 1119 221 1068 133 l 1154 207 l 1094 97 q 1038 23 1067 46 q 957 0 1010 0 l 443 0 l 489 264 l 186 264 l -8 0 l -92 0 l 583 917 m 232 326 l 500 326 l 585 804 l 232 326 z "},"B":{"ha":897,"x_min":67,"x_max":863,"o":"m 67 0 q 174 613 144 442 q 203 799 203 783 q 185 856 203 838 q 124 875 167 875 l 110 875 l 117 917 l 492 917 q 757 877 651 917 q 863 719 863 838 q 797 565 863 629 q 631 474 731 500 q 831 301 831 453 q 698 71 831 142 q 372 0 565 0 l 67 0 m 439 501 q 555 528 503 501 q 638 603 607 554 q 669 719 669 653 q 616 828 669 794 q 482 861 563 861 q 422 856 443 861 l 397 851 l 335 501 l 439 501 m 361 56 q 496 82 433 56 q 597 162 558 108 q 635 292 635 215 q 428 439 635 439 l 324 439 l 258 69 q 285 63 271 64 q 354 56 315 56 l 361 56 z "},"C":{"ha":944,"x_min":53,"x_max":933,"o":"m 438 -28 q 227 19 314 -28 q 97 149 140 65 q 53 342 53 233 q 126 626 53 486 q 326 855 199 765 q 608 944 453 944 q 832 903 731 944 q 933 757 933 863 q 917 621 933 704 l 875 621 q 813 815 872 749 q 639 882 753 882 q 419 797 508 882 q 288 583 331 713 q 246 322 246 454 q 305 113 246 192 q 490 35 364 35 q 678 86 588 35 q 835 233 769 138 l 876 196 q 686 26 790 79 q 438 -28 582 -28 z "},"Ç":{"ha":944,"x_min":53,"x_max":933,"o":"m 333 -222 l 403 -222 q 447 -208 429 -222 q 467 -171 464 -194 q 455 -142 467 -153 q 419 -132 443 -132 l 357 -132 l 376 -24 q 137 92 221 -7 q 53 342 53 190 q 126 626 53 486 q 326 855 199 765 q 608 944 453 944 q 832 903 731 944 q 933 757 933 863 q 917 621 933 704 l 875 621 q 813 815 872 749 q 639 882 753 882 q 419 797 508 882 q 288 583 331 713 q 246 322 246 454 q 305 113 246 192 q 490 35 364 35 q 678 86 588 35 q 835 233 769 138 l 876 196 q 696 31 793 83 q 465 -26 599 -22 l 458 -69 q 538 -93 510 -69 q 565 -157 565 -117 q 523 -250 565 -214 q 419 -286 481 -286 l 322 -286 l 333 -222 z "},"D":{"ha":1024,"x_min":67,"x_max":996,"o":"m 196 736 q 203 799 203 781 q 185 856 203 838 q 124 875 167 875 l 110 875 l 117 917 l 494 917 q 869 823 742 917 q 996 558 996 729 q 913 267 996 394 q 688 70 831 140 q 369 0 544 0 l 67 0 l 196 736 m 375 56 q 592 129 497 56 q 738 320 686 203 q 789 560 789 438 q 716 780 789 699 q 514 861 643 861 l 503 861 q 429 856 457 861 l 397 851 l 258 65 l 289 60 q 361 56 307 56 l 375 56 z "},"Ð":{"ha":1024,"x_min":43,"x_max":996,"o":"m 140 424 l 43 424 l 56 493 l 153 493 q 203 799 203 767 q 185 856 203 838 q 124 875 167 875 l 110 875 l 117 917 l 494 917 q 869 823 742 917 q 996 558 996 729 q 913 267 996 394 q 688 70 831 140 q 369 0 544 0 l 67 0 l 140 424 m 375 56 q 592 129 497 56 q 738 320 686 203 q 789 560 789 438 q 716 780 789 699 q 514 861 643 861 l 503 861 q 429 856 457 861 l 397 851 l 333 493 l 438 493 l 425 424 l 321 424 l 258 65 l 289 60 q 361 56 307 56 l 375 56 z "},"Đ":{"ha":1024,"x_min":43,"x_max":996,"o":"m 140 424 l 43 424 l 56 493 l 153 493 q 203 799 203 767 q 185 856 203 838 q 124 875 167 875 l 110 875 l 117 917 l 494 917 q 869 823 742 917 q 996 558 996 729 q 913 267 996 394 q 688 70 831 140 q 369 0 544 0 l 67 0 l 140 424 m 375 56 q 592 129 497 56 q 738 320 686 203 q 789 560 789 438 q 716 780 789 699 q 514 861 643 861 l 503 861 q 429 856 457 861 l 397 851 l 333 493 l 438 493 l 425 424 l 321 424 l 258 65 l 289 60 q 361 56 307 56 l 375 56 z "},"E":{"ha":836,"x_min":67,"x_max":831,"o":"m 67 0 q 174 613 144 442 q 203 799 203 783 q 185 856 203 838 q 124 875 167 875 l 110 875 l 117 917 l 729 917 q 831 836 831 917 q 807 688 831 824 l 765 688 q 769 733 769 713 q 621 854 769 854 l 397 854 l 336 507 l 697 507 l 686 444 l 325 444 l 257 63 l 494 63 q 633 98 574 63 q 743 221 692 133 l 778 207 l 718 97 q 662 23 690 46 q 581 0 633 0 l 67 0 z "},"É":{"ha":836,"x_min":67,"x_max":831,"o":"m 67 0 q 174 613 144 442 q 203 799 203 783 q 185 856 203 838 q 124 875 167 875 l 110 875 l 117 917 l 729 917 q 831 836 831 917 q 807 688 831 824 l 765 688 q 769 733 769 713 q 621 854 769 854 l 397 854 l 336 507 l 697 507 l 686 444 l 325 444 l 257 63 l 494 63 q 633 98 574 63 q 743 221 692 133 l 778 207 l 718 97 q 662 23 690 46 q 581 0 633 0 l 67 0 m 496 972 l 589 1167 l 754 1167 l 572 972 l 496 972 z "},"Ê":{"ha":836,"x_min":67,"x_max":831,"o":"m 67 0 q 174 613 144 442 q 203 799 203 783 q 185 856 203 838 q 124 875 167 875 l 110 875 l 117 917 l 729 917 q 831 836 831 917 q 807 688 831 824 l 765 688 q 769 733 769 713 q 621 854 769 854 l 397 854 l 336 507 l 697 507 l 686 444 l 325 444 l 257 63 l 494 63 q 633 98 574 63 q 743 221 692 133 l 778 207 l 718 97 q 662 23 690 46 q 581 0 633 0 l 67 0 m 335 1003 l 476 1176 l 657 1176 l 738 1003 l 654 1003 l 556 1114 l 418 1003 l 335 1003 z "},"Ế":{"ha":836,"x_min":67,"x_max":965,"o":"m 67 0 q 174 613 144 442 q 203 799 203 783 q 185 856 203 838 q 124 875 167 875 l 110 875 l 117 917 l 729 917 q 831 836 831 917 q 807 688 831 824 l 765 688 q 769 733 769 713 q 621 854 769 854 l 397 854 l 336 507 l 697 507 l 686 444 l 325 444 l 257 63 l 494 63 q 633 98 574 63 q 743 221 692 133 l 778 207 l 718 97 q 662 23 690 46 q 581 0 633 0 l 67 0 m 315 986 l 457 1160 l 638 1160 l 718 986 l 621 986 l 536 1097 l 413 986 l 315 986 m 707 1075 l 800 1269 l 965 1269 l 783 1075 l 707 1075 z "},"Ệ":{"ha":836,"x_min":67,"x_max":831,"o":"m 67 0 q 174 613 144 442 q 203 799 203 783 q 185 856 203 838 q 124 875 167 875 l 110 875 l 117 917 l 729 917 q 831 836 831 917 q 807 688 831 824 l 765 688 q 769 733 769 713 q 621 854 769 854 l 397 854 l 336 507 l 697 507 l 686 444 l 325 444 l 257 63 l 494 63 q 633 98 574 63 q 743 221 692 133 l 778 207 l 718 97 q 662 23 690 46 q 581 0 633 0 l 67 0 m 319 -233 q 276 -219 292 -233 q 261 -181 261 -206 q 284 -119 261 -144 q 344 -93 307 -93 q 403 -147 403 -93 q 379 -208 403 -182 q 319 -233 356 -233 m 315 986 l 457 1160 l 638 1160 l 718 986 l 621 986 l 536 1097 l 413 986 l 315 986 z "},"Ề":{"ha":836,"x_min":67,"x_max":842,"o":"m 67 0 q 174 613 144 442 q 203 799 203 783 q 185 856 203 838 q 124 875 167 875 l 110 875 l 117 917 l 729 917 q 831 836 831 917 q 807 688 831 824 l 765 688 q 769 733 769 713 q 621 854 769 854 l 397 854 l 336 507 l 697 507 l 686 444 l 325 444 l 257 63 l 494 63 q 633 98 574 63 q 743 221 692 133 l 778 207 l 718 97 q 662 23 690 46 q 581 0 633 0 l 67 0 m 315 986 l 457 1160 l 638 1160 l 718 986 l 621 986 l 536 1097 l 413 986 l 315 986 m 765 1103 l 653 1297 l 818 1297 l 842 1103 l 765 1103 z "},"Ể":{"ha":836,"x_min":67,"x_max":892,"o":"m 67 0 q 174 613 144 442 q 203 799 203 783 q 185 856 203 838 q 124 875 167 875 l 110 875 l 117 917 l 729 917 q 831 836 831 917 q 807 688 831 824 l 765 688 q 769 733 769 713 q 621 854 769 854 l 397 854 l 336 507 l 697 507 l 686 444 l 325 444 l 257 63 l 494 63 q 633 98 574 63 q 743 221 692 133 l 778 207 l 718 97 q 662 23 690 46 q 581 0 633 0 l 67 0 m 315 986 l 457 1160 l 638 1160 l 718 986 l 621 986 l 536 1097 l 413 986 l 315 986 m 726 1117 q 769 1192 736 1158 q 785 1213 778 1201 q 794 1233 793 1224 q 797 1253 797 1247 q 760 1286 797 1286 q 718 1272 735 1286 q 686 1214 701 1257 l 610 1215 q 615 1248 611 1224 q 633 1294 619 1272 q 692 1351 656 1329 q 776 1372 728 1372 q 863 1347 833 1372 q 892 1278 892 1322 q 889 1246 892 1257 q 876 1218 886 1231 q 849 1189 867 1206 q 815 1153 826 1167 q 799 1117 804 1139 l 726 1117 z "},"Ễ":{"ha":836,"x_min":67,"x_max":831,"o":"m 67 0 q 174 613 144 442 q 203 799 203 783 q 185 856 203 838 q 124 875 167 875 l 110 875 l 117 917 l 729 917 q 831 836 831 917 q 807 688 831 824 l 765 688 q 769 733 769 713 q 621 854 769 854 l 397 854 l 336 507 l 697 507 l 686 444 l 325 444 l 257 63 l 494 63 q 633 98 574 63 q 743 221 692 133 l 778 207 l 718 97 q 662 23 690 46 q 581 0 633 0 l 67 0 m 315 986 l 457 1160 l 638 1160 l 718 986 l 621 986 l 536 1097 l 413 986 l 315 986 m 385 1214 q 429 1322 400 1292 q 504 1353 458 1353 q 543 1344 528 1353 q 578 1319 558 1336 q 601 1303 592 1308 q 622 1297 611 1297 q 661 1314 644 1297 q 681 1353 678 1331 l 736 1353 q 692 1244 721 1275 q 618 1214 664 1214 q 578 1223 594 1214 q 543 1247 561 1232 q 531 1256 540 1250 q 515 1266 522 1263 q 499 1269 507 1269 q 460 1253 476 1269 q 440 1214 444 1236 l 385 1214 z "},"Ë":{"ha":836,"x_min":67,"x_max":831,"o":"m 67 0 q 174 613 144 442 q 203 799 203 783 q 185 856 203 838 q 124 875 167 875 l 110 875 l 117 917 l 729 917 q 831 836 831 917 q 807 688 831 824 l 765 688 q 769 733 769 713 q 621 854 769 854 l 397 854 l 336 507 l 697 507 l 686 444 l 325 444 l 257 63 l 494 63 q 633 98 574 63 q 743 221 692 133 l 778 207 l 718 97 q 662 23 690 46 q 581 0 633 0 l 67 0 m 413 1007 q 364 1024 381 1007 q 347 1068 347 1042 q 374 1134 347 1106 q 440 1163 401 1163 q 489 1145 472 1163 q 506 1099 506 1128 q 478 1035 506 1063 q 413 1007 450 1007 m 663 1007 q 614 1024 631 1007 q 597 1068 597 1042 q 624 1134 597 1106 q 690 1163 651 1163 q 739 1145 722 1163 q 756 1099 756 1128 q 728 1035 756 1063 q 663 1007 700 1007 z "},"Ẹ":{"ha":836,"x_min":67,"x_max":831,"o":"m 67 0 q 174 613 144 442 q 203 799 203 783 q 185 856 203 838 q 124 875 167 875 l 110 875 l 117 917 l 729 917 q 831 836 831 917 q 807 688 831 824 l 765 688 q 769 733 769 713 q 621 854 769 854 l 397 854 l 336 507 l 697 507 l 686 444 l 325 444 l 257 63 l 494 63 q 633 98 574 63 q 743 221 692 133 l 778 207 l 718 97 q 662 23 690 46 q 581 0 633 0 l 67 0 m 319 -233 q 276 -219 292 -233 q 261 -181 261 -206 q 284 -119 261 -144 q 344 -93 307 -93 q 403 -147 403 -93 q 379 -208 403 -182 q 319 -233 356 -233 z "},"È":{"ha":836,"x_min":67,"x_max":831,"o":"m 67 0 q 174 613 144 442 q 203 799 203 783 q 185 856 203 838 q 124 875 167 875 l 110 875 l 117 917 l 729 917 q 831 836 831 917 q 807 688 831 824 l 765 688 q 769 733 769 713 q 621 854 769 854 l 397 854 l 336 507 l 697 507 l 686 444 l 325 444 l 257 63 l 494 63 q 633 98 574 63 q 743 221 692 133 l 778 207 l 718 97 q 662 23 690 46 q 581 0 633 0 l 67 0 m 486 993 l 374 1188 l 539 1188 l 563 993 l 486 993 z "},"Ẻ":{"ha":836,"x_min":67,"x_max":831,"o":"m 67 0 q 174 613 144 442 q 203 799 203 783 q 185 856 203 838 q 124 875 167 875 l 110 875 l 117 917 l 729 917 q 831 836 831 917 q 807 688 831 824 l 765 688 q 769 733 769 713 q 621 854 769 854 l 397 854 l 336 507 l 697 507 l 686 444 l 325 444 l 257 63 l 494 63 q 633 98 574 63 q 743 221 692 133 l 778 207 l 718 97 q 662 23 690 46 q 581 0 633 0 l 67 0 m 532 988 q 575 1063 542 1029 q 591 1083 583 1072 q 600 1104 599 1094 q 603 1124 603 1118 q 565 1157 603 1157 q 524 1142 540 1157 q 492 1085 507 1128 l 415 1086 q 421 1119 417 1094 q 439 1165 425 1143 q 497 1222 461 1200 q 582 1243 533 1243 q 668 1218 639 1243 q 697 1149 697 1193 q 694 1117 697 1128 q 682 1089 692 1101 q 654 1060 672 1076 q 621 1024 632 1038 q 604 988 610 1010 l 532 988 z "},"Ẽ":{"ha":836,"x_min":67,"x_max":831,"o":"m 67 0 q 174 613 144 442 q 203 799 203 783 q 185 856 203 838 q 124 875 167 875 l 110 875 l 117 917 l 729 917 q 831 836 831 917 q 807 688 831 824 l 765 688 q 769 733 769 713 q 621 854 769 854 l 397 854 l 336 507 l 697 507 l 686 444 l 325 444 l 257 63 l 494 63 q 633 98 574 63 q 743 221 692 133 l 778 207 l 718 97 q 662 23 690 46 q 581 0 633 0 l 67 0 m 367 1042 q 411 1150 382 1119 q 486 1181 440 1181 q 525 1172 510 1181 q 560 1147 540 1164 q 583 1131 574 1136 q 604 1125 593 1125 q 643 1142 626 1125 q 663 1181 660 1158 l 718 1181 q 674 1072 703 1103 q 600 1042 646 1042 q 560 1051 576 1042 q 525 1075 543 1060 q 513 1084 522 1078 q 497 1094 504 1090 q 481 1097 489 1097 q 442 1081 458 1097 q 422 1042 426 1064 l 367 1042 z "},"F":{"ha":753,"x_min":67,"x_max":800,"o":"m 196 736 q 203 799 203 781 q 185 856 203 838 q 124 875 167 875 l 110 875 l 117 917 l 699 917 q 800 836 800 917 q 776 688 800 824 l 735 688 q 739 733 739 713 q 701 826 739 797 q 590 854 664 854 l 397 854 l 335 500 l 640 500 l 629 438 l 324 438 l 247 0 l 67 0 l 196 736 z "},"G":{"ha":1019,"x_min":56,"x_max":1024,"o":"m 476 -28 q 256 24 351 -28 q 108 169 160 76 q 56 379 56 263 q 128 651 56 521 q 326 863 200 782 q 606 944 453 944 q 834 903 729 944 q 939 754 939 861 q 925 639 939 708 l 883 639 q 819 824 879 765 q 636 882 758 882 q 415 795 504 882 q 285 577 326 708 q 243 314 243 446 q 486 28 243 28 q 681 64 597 28 l 724 311 q 801 433 738 385 q 1024 481 865 481 l 1017 446 q 904 314 928 446 l 861 65 q 679 -6 774 17 q 476 -28 585 -28 z "},"Ğ":{"ha":1019,"x_min":56,"x_max":1024,"o":"m 476 -28 q 256 24 351 -28 q 108 169 160 76 q 56 379 56 263 q 128 651 56 521 q 326 863 200 782 q 606 944 453 944 q 834 903 729 944 q 939 754 939 861 q 925 639 939 708 l 883 639 q 819 824 879 765 q 636 882 758 882 q 415 795 504 882 q 285 577 326 708 q 243 314 243 446 q 486 28 243 28 q 681 64 597 28 l 724 311 q 801 433 738 385 q 1024 481 865 481 l 1017 446 q 904 314 928 446 l 861 65 q 679 -6 774 17 q 476 -28 585 -28 m 633 1014 q 522 1049 567 1014 q 461 1144 478 1085 l 506 1174 q 560 1124 524 1144 q 650 1104 596 1104 q 747 1124 704 1104 q 819 1174 789 1143 l 853 1144 q 758 1049 815 1085 q 633 1014 700 1014 z "},"H":{"ha":1004,"x_min":67,"x_max":964,"o":"m 196 736 q 203 799 203 781 q 185 856 203 838 q 124 875 167 875 l 110 875 l 117 917 l 283 917 q 363 896 339 917 q 386 824 386 875 q 376 736 386 781 l 336 507 l 711 507 l 783 917 l 964 917 l 833 181 q 828 121 828 151 q 846 62 828 82 q 907 42 864 42 l 921 42 l 914 0 l 747 0 q 668 22 692 0 q 644 96 644 43 q 653 181 644 131 l 700 444 l 325 444 l 247 0 l 67 0 l 196 736 z "},"I":{"ha":426,"x_min":67,"x_max":386,"o":"m 169 0 q 90 22 114 0 q 67 96 67 43 q 75 181 67 131 l 206 917 l 386 917 l 256 181 q 250 121 250 151 q 268 62 250 82 q 329 42 286 42 l 343 42 l 336 0 l 169 0 z "},"Í":{"ha":426,"x_min":67,"x_max":519,"o":"m 169 0 q 90 22 114 0 q 67 96 67 43 q 75 181 67 131 l 206 917 l 386 917 l 256 181 q 250 121 250 151 q 268 62 250 82 q 329 42 286 42 l 343 42 l 336 0 l 169 0 m 261 972 l 354 1167 l 519 1167 l 338 972 l 261 972 z "},"Î":{"ha":426,"x_min":67,"x_max":504,"o":"m 169 0 q 90 22 114 0 q 67 96 67 43 q 75 181 67 131 l 206 917 l 386 917 l 256 181 q 250 121 250 151 q 268 62 250 82 q 329 42 286 42 l 343 42 l 336 0 l 169 0 m 101 951 l 243 1125 l 424 1125 l 504 951 l 421 951 l 322 1063 l 185 951 l 101 951 z "},"Ï":{"ha":426,"x_min":67,"x_max":524,"o":"m 169 0 q 90 22 114 0 q 67 96 67 43 q 75 181 67 131 l 206 917 l 386 917 l 256 181 q 250 121 250 151 q 268 62 250 82 q 329 42 286 42 l 343 42 l 336 0 l 169 0 m 181 1007 q 132 1024 149 1007 q 115 1068 115 1042 q 142 1134 115 1106 q 208 1163 169 1163 q 257 1145 240 1163 q 274 1099 274 1128 q 246 1035 274 1063 q 181 1007 218 1007 m 431 1007 q 382 1024 399 1007 q 365 1068 365 1042 q 392 1134 365 1106 q 458 1163 419 1163 q 507 1145 490 1163 q 524 1099 524 1128 q 496 1035 524 1063 q 431 1007 468 1007 z "},"İ":{"ha":426,"x_min":67,"x_max":407,"o":"m 315 992 q 251 1015 272 992 q 229 1075 229 1039 q 255 1145 229 1115 q 321 1175 281 1175 q 385 1151 364 1175 q 407 1092 407 1128 q 381 1022 407 1051 q 315 992 356 992 m 169 0 q 90 22 114 0 q 67 96 67 43 q 90 261 67 118 q 206 917 114 404 l 386 917 q 279 305 308 475 q 250 121 250 135 q 268 62 250 82 q 329 42 286 42 l 343 42 l 336 0 l 169 0 z "},"Ị":{"ha":426,"x_min":57,"x_max":386,"o":"m 169 0 q 90 22 114 0 q 67 96 67 43 q 75 181 67 131 l 206 917 l 386 917 l 256 181 q 250 121 250 151 q 268 62 250 82 q 329 42 286 42 l 343 42 l 336 0 l 169 0 m 115 -233 q 72 -219 88 -233 q 57 -181 57 -206 q 80 -119 57 -144 q 140 -93 103 -93 q 199 -147 199 -93 q 175 -208 199 -182 q 115 -233 151 -233 z "},"Ì":{"ha":426,"x_min":67,"x_max":386,"o":"m 169 0 q 90 22 114 0 q 67 96 67 43 q 75 181 67 131 l 206 917 l 386 917 l 256 181 q 250 121 250 151 q 268 62 250 82 q 329 42 286 42 l 343 42 l 336 0 l 169 0 m 254 993 l 142 1188 l 307 1188 l 331 993 l 254 993 z "},"Ỉ":{"ha":426,"x_min":67,"x_max":465,"o":"m 169 0 q 90 22 114 0 q 67 96 67 43 q 75 181 67 131 l 206 917 l 386 917 l 256 181 q 250 121 250 151 q 268 62 250 82 q 329 42 286 42 l 343 42 l 336 0 l 169 0 m 300 988 q 343 1063 310 1029 q 359 1083 351 1072 q 368 1104 367 1094 q 371 1124 371 1118 q 333 1157 371 1157 q 292 1142 308 1157 q 260 1085 275 1128 l 183 1086 q 189 1119 185 1094 q 207 1165 193 1143 q 265 1222 229 1200 q 350 1243 301 1243 q 436 1218 407 1243 q 465 1149 465 1193 q 463 1117 465 1128 q 450 1089 460 1101 q 422 1060 440 1076 q 389 1024 400 1038 q 372 988 378 1010 l 300 988 z "},"Ĩ":{"ha":426,"x_min":67,"x_max":486,"o":"m 169 0 q 90 22 114 0 q 67 96 67 43 q 75 181 67 131 l 206 917 l 386 917 l 256 181 q 250 121 250 151 q 268 62 250 82 q 329 42 286 42 l 343 42 l 336 0 l 169 0 m 135 1042 q 179 1150 150 1119 q 254 1181 208 1181 q 293 1172 278 1181 q 328 1147 308 1164 q 351 1131 342 1136 q 372 1125 361 1125 q 411 1142 394 1125 q 431 1181 428 1158 l 486 1181 q 442 1072 471 1103 q 368 1042 414 1042 q 328 1051 344 1042 q 293 1075 311 1060 q 281 1084 290 1078 q 265 1094 272 1090 q 249 1097 257 1097 q 210 1081 226 1097 q 190 1042 194 1064 l 135 1042 z "},"J":{"ha":389,"x_min":-125,"x_max":379,"o":"m -117 -149 q -8 -83 -50 -140 q 57 115 33 -25 l 199 917 l 379 917 l 238 115 q 179 -72 217 -7 q 72 -163 142 -136 q -125 -190 1 -190 l -117 -149 z "},"K":{"ha":964,"x_min":68,"x_max":993,"o":"m 808 -14 q 647 22 721 -14 q 499 153 572 57 l 317 386 l 249 0 l 68 0 q 181 647 158 511 q 203 799 203 782 q 185 856 203 838 q 124 875 167 875 l 110 875 l 117 917 l 283 917 q 363 896 339 917 q 388 822 388 875 q 375 736 388 807 q 356 621 363 665 l 331 472 l 624 771 q 753 878 688 839 q 896 917 819 917 l 993 917 l 985 868 q 833 847 899 868 q 713 769 768 825 l 461 514 l 722 181 q 823 81 767 124 q 918 33 879 39 l 913 0 q 808 -14 868 -14 z "},"L":{"ha":788,"x_min":67,"x_max":736,"o":"m 196 736 q 203 799 203 781 q 185 856 203 838 q 124 875 167 875 l 110 875 l 117 917 l 283 917 q 363 896 339 917 q 386 824 386 875 q 376 736 386 781 l 257 63 l 736 63 l 726 0 l 67 0 l 196 736 z "},"M":{"ha":1207,"x_min":36,"x_max":1169,"o":"m 1099 -62 q 916 -14 974 -62 q 858 139 858 35 q 868 236 858 171 l 956 728 l 524 0 l 478 0 l 238 756 l 106 0 l 36 0 l 197 917 l 367 917 l 582 235 l 988 917 l 1169 917 l 1049 236 q 1033 97 1033 149 q 1104 -28 1033 -14 l 1099 -62 z "},"N":{"ha":965,"x_min":71,"x_max":954,"o":"m 261 688 l 140 0 l 71 0 l 144 419 q 207 786 207 776 q 100 875 207 875 l 93 875 l 100 917 l 197 917 q 321 897 275 917 q 392 833 367 876 l 772 278 l 885 917 l 954 917 l 792 -4 l 728 -4 l 261 688 z "},"Ñ":{"ha":965,"x_min":71,"x_max":954,"o":"m 261 688 l 140 0 l 71 0 l 144 419 q 207 786 207 776 q 100 875 207 875 l 93 875 l 100 917 l 197 917 q 321 897 275 917 q 392 833 367 876 l 772 278 l 885 917 l 954 917 l 792 -4 l 728 -4 l 261 688 m 432 964 q 476 1072 447 1042 q 551 1103 506 1103 q 590 1094 575 1103 q 625 1069 606 1086 q 649 1053 639 1058 q 669 1047 658 1047 q 708 1064 692 1047 q 728 1103 725 1081 l 783 1103 q 740 994 768 1025 q 665 964 711 964 q 625 973 642 964 q 590 997 608 982 q 578 1006 588 1000 q 562 1016 569 1013 q 546 1019 554 1019 q 508 1003 524 1019 q 488 964 492 986 l 432 964 z "},"O":{"ha":1021,"x_min":56,"x_max":990,"o":"m 438 -28 q 233 21 319 -28 q 101 156 147 69 q 56 356 56 243 q 126 638 56 501 q 324 859 197 774 q 608 944 451 944 q 813 896 726 944 q 944 760 899 847 q 990 561 990 674 q 919 279 990 415 q 722 58 849 143 q 438 -28 594 -28 m 449 35 q 649 128 569 35 q 766 353 729 221 q 803 608 803 486 q 750 811 803 740 q 597 882 697 882 q 398 788 478 882 q 281 560 318 694 q 244 307 244 426 q 297 106 244 176 q 449 35 349 35 z "},"Ó":{"ha":1021,"x_min":56,"x_max":990,"o":"m 438 -28 q 233 21 319 -28 q 101 156 147 69 q 56 356 56 243 q 126 638 56 501 q 324 859 197 774 q 608 944 451 944 q 813 896 726 944 q 944 760 899 847 q 990 561 990 674 q 919 279 990 415 q 722 58 849 143 q 438 -28 594 -28 m 449 35 q 649 128 569 35 q 766 353 729 221 q 803 608 803 486 q 750 811 803 740 q 597 882 697 882 q 398 788 478 882 q 281 560 318 694 q 244 307 244 426 q 297 106 244 176 q 449 35 349 35 m 579 1006 l 672 1200 l 838 1200 l 656 1006 l 579 1006 z "},"Ô":{"ha":1021,"x_min":56,"x_max":990,"o":"m 438 -28 q 233 21 319 -28 q 101 156 147 69 q 56 356 56 243 q 126 638 56 501 q 324 859 197 774 q 608 944 451 944 q 813 896 726 944 q 944 760 899 847 q 990 561 990 674 q 919 279 990 415 q 722 58 849 143 q 438 -28 594 -28 m 449 35 q 649 128 569 35 q 766 353 729 221 q 803 608 803 486 q 750 811 803 740 q 597 882 697 882 q 398 788 478 882 q 281 560 318 694 q 244 307 244 426 q 297 106 244 176 q 449 35 349 35 m 426 1014 l 568 1188 l 749 1188 l 829 1014 l 746 1014 l 647 1125 l 510 1014 l 426 1014 z "},"Ố":{"ha":1021,"x_min":56,"x_max":1058,"o":"m 438 -28 q 233 21 319 -28 q 101 156 147 69 q 56 356 56 243 q 126 638 56 501 q 324 859 197 774 q 608 944 451 944 q 813 896 726 944 q 944 760 899 847 q 990 561 990 674 q 919 279 990 415 q 722 58 849 143 q 438 -28 594 -28 m 449 35 q 649 128 569 35 q 766 353 729 221 q 803 608 803 486 q 750 811 803 740 q 597 882 697 882 q 398 788 478 882 q 281 560 318 694 q 244 307 244 426 q 297 106 244 176 q 449 35 349 35 m 408 986 l 550 1160 l 731 1160 l 811 986 l 714 986 l 629 1097 l 506 986 l 408 986 m 800 1075 l 893 1269 l 1058 1269 l 876 1075 l 800 1075 z "},"Ộ":{"ha":1021,"x_min":56,"x_max":990,"o":"m 438 -28 q 233 21 319 -28 q 101 156 147 69 q 56 356 56 243 q 126 638 56 501 q 324 859 197 774 q 608 944 451 944 q 813 896 726 944 q 944 760 899 847 q 990 561 990 674 q 919 279 990 415 q 722 58 849 143 q 438 -28 594 -28 m 449 35 q 649 128 569 35 q 766 353 729 221 q 803 608 803 486 q 750 811 803 740 q 597 882 697 882 q 398 788 478 882 q 281 560 318 694 q 244 307 244 426 q 297 106 244 176 q 449 35 349 35 m 413 -233 q 369 -219 385 -233 q 354 -181 354 -206 q 377 -119 354 -144 q 438 -93 400 -93 q 496 -147 496 -93 q 472 -208 496 -182 q 413 -233 449 -233 m 408 986 l 550 1160 l 731 1160 l 811 986 l 714 986 l 629 1097 l 506 986 l 408 986 z "},"Ồ":{"ha":1021,"x_min":56,"x_max":990,"o":"m 438 -28 q 233 21 319 -28 q 101 156 147 69 q 56 356 56 243 q 126 638 56 501 q 324 859 197 774 q 608 944 451 944 q 813 896 726 944 q 944 760 899 847 q 990 561 990 674 q 919 279 990 415 q 722 58 849 143 q 438 -28 594 -28 m 449 35 q 649 128 569 35 q 766 353 729 221 q 803 608 803 486 q 750 811 803 740 q 597 882 697 882 q 398 788 478 882 q 281 560 318 694 q 244 307 244 426 q 297 106 244 176 q 449 35 349 35 m 408 986 l 550 1160 l 731 1160 l 811 986 l 714 986 l 629 1097 l 506 986 l 408 986 m 858 1103 l 746 1297 l 911 1297 l 935 1103 l 858 1103 z "},"Ổ":{"ha":1021,"x_min":56,"x_max":990,"o":"m 438 -28 q 233 21 319 -28 q 101 156 147 69 q 56 356 56 243 q 126 638 56 501 q 324 859 197 774 q 608 944 451 944 q 813 896 726 944 q 944 760 899 847 q 990 561 990 674 q 919 279 990 415 q 722 58 849 143 q 438 -28 594 -28 m 449 35 q 649 128 569 35 q 766 353 729 221 q 803 608 803 486 q 750 811 803 740 q 597 882 697 882 q 398 788 478 882 q 281 560 318 694 q 244 307 244 426 q 297 106 244 176 q 449 35 349 35 m 408 986 l 550 1160 l 731 1160 l 811 986 l 714 986 l 629 1097 l 506 986 l 408 986 m 819 1117 q 863 1192 829 1158 q 878 1213 871 1201 q 888 1233 886 1224 q 890 1253 890 1247 q 853 1286 890 1286 q 811 1272 828 1286 q 779 1214 794 1257 l 703 1215 q 708 1248 704 1224 q 726 1294 713 1272 q 785 1351 749 1329 q 869 1372 821 1372 q 956 1347 926 1372 q 985 1278 985 1322 q 982 1246 985 1257 q 969 1218 979 1231 q 942 1189 960 1206 q 908 1153 919 1167 q 892 1117 897 1139 l 819 1117 z "},"Ỗ":{"ha":1021,"x_min":56,"x_max":990,"o":"m 438 -28 q 233 21 319 -28 q 101 156 147 69 q 56 356 56 243 q 126 638 56 501 q 324 859 197 774 q 608 944 451 944 q 813 896 726 944 q 944 760 899 847 q 990 561 990 674 q 919 279 990 415 q 722 58 849 143 q 438 -28 594 -28 m 449 35 q 649 128 569 35 q 766 353 729 221 q 803 608 803 486 q 750 811 803 740 q 597 882 697 882 q 398 788 478 882 q 281 560 318 694 q 244 307 244 426 q 297 106 244 176 q 449 35 349 35 m 408 986 l 550 1160 l 731 1160 l 811 986 l 714 986 l 629 1097 l 506 986 l 408 986 m 478 1214 q 522 1322 493 1292 q 597 1353 551 1353 q 636 1344 621 1353 q 671 1319 651 1336 q 694 1303 685 1308 q 715 1297 704 1297 q 754 1314 738 1297 q 774 1353 771 1331 l 829 1353 q 785 1244 814 1275 q 711 1214 757 1214 q 671 1223 688 1214 q 636 1247 654 1232 q 624 1256 633 1250 q 608 1266 615 1263 q 592 1269 600 1269 q 553 1253 569 1269 q 533 1214 538 1236 l 478 1214 z "},"Ö":{"ha":1021,"x_min":56,"x_max":990,"o":"m 438 -28 q 233 21 319 -28 q 101 156 147 69 q 56 356 56 243 q 126 638 56 501 q 324 859 197 774 q 608 944 451 944 q 813 896 726 944 q 944 760 899 847 q 990 561 990 674 q 919 279 990 415 q 722 58 849 143 q 438 -28 594 -28 m 449 35 q 649 128 569 35 q 766 353 729 221 q 803 608 803 486 q 750 811 803 740 q 597 882 697 882 q 398 788 478 882 q 281 560 318 694 q 244 307 244 426 q 297 106 244 176 q 449 35 349 35 m 506 1007 q 457 1024 474 1007 q 440 1068 440 1042 q 467 1134 440 1106 q 533 1163 494 1163 q 582 1145 565 1163 q 599 1099 599 1128 q 571 1035 599 1063 q 506 1007 543 1007 m 756 1007 q 707 1024 724 1007 q 690 1068 690 1042 q 717 1134 690 1106 q 783 1163 744 1163 q 832 1145 815 1163 q 849 1099 849 1128 q 821 1035 849 1063 q 756 1007 793 1007 z "},"Ọ":{"ha":1021,"x_min":56,"x_max":990,"o":"m 438 -28 q 233 21 319 -28 q 101 156 147 69 q 56 356 56 243 q 126 638 56 501 q 324 859 197 774 q 608 944 451 944 q 813 896 726 944 q 944 760 899 847 q 990 561 990 674 q 919 279 990 415 q 722 58 849 143 q 438 -28 594 -28 m 449 35 q 649 128 569 35 q 766 353 729 221 q 803 608 803 486 q 750 811 803 740 q 597 882 697 882 q 398 788 478 882 q 281 560 318 694 q 244 307 244 426 q 297 106 244 176 q 449 35 349 35 m 413 -233 q 369 -219 385 -233 q 354 -181 354 -206 q 377 -119 354 -144 q 438 -93 400 -93 q 496 -147 496 -93 q 472 -208 496 -182 q 413 -233 449 -233 z "},"Ò":{"ha":1021,"x_min":56,"x_max":990,"o":"m 438 -28 q 233 21 319 -28 q 101 156 147 69 q 56 356 56 243 q 126 638 56 501 q 324 859 197 774 q 608 944 451 944 q 813 896 726 944 q 944 760 899 847 q 990 561 990 674 q 919 279 990 415 q 722 58 849 143 q 438 -28 594 -28 m 449 35 q 649 128 569 35 q 766 353 729 221 q 803 608 803 486 q 750 811 803 740 q 597 882 697 882 q 398 788 478 882 q 281 560 318 694 q 244 307 244 426 q 297 106 244 176 q 449 35 349 35 m 579 993 l 467 1188 l 632 1188 l 656 993 l 579 993 z "},"Ỏ":{"ha":1021,"x_min":56,"x_max":990,"o":"m 438 -28 q 233 21 319 -28 q 101 156 147 69 q 56 356 56 243 q 126 638 56 501 q 324 859 197 774 q 608 944 451 944 q 813 896 726 944 q 944 760 899 847 q 990 561 990 674 q 919 279 990 415 q 722 58 849 143 q 438 -28 594 -28 m 449 35 q 649 128 569 35 q 766 353 729 221 q 803 608 803 486 q 750 811 803 740 q 597 882 697 882 q 398 788 478 882 q 281 560 318 694 q 244 307 244 426 q 297 106 244 176 q 449 35 349 35 m 625 988 q 668 1063 635 1029 q 684 1083 676 1072 q 693 1104 692 1094 q 696 1124 696 1118 q 658 1157 696 1157 q 617 1142 633 1157 q 585 1085 600 1128 l 508 1086 q 514 1119 510 1094 q 532 1165 518 1143 q 590 1222 554 1200 q 675 1243 626 1243 q 761 1218 732 1243 q 790 1149 790 1193 q 788 1117 790 1128 q 775 1089 785 1101 q 747 1060 765 1076 q 714 1024 725 1038 q 697 988 703 1010 l 625 988 z "},"Ơ":{"ha":1021,"x_min":56,"x_max":1242,"o":"m 438 -28 q 233 21 319 -28 q 101 156 147 69 q 56 356 56 243 q 126 638 56 501 q 324 859 197 774 q 608 944 451 944 q 813 896 726 944 q 944 760 899 847 q 990 561 990 674 q 919 279 990 415 q 722 58 849 143 q 438 -28 594 -28 m 449 35 q 649 128 569 35 q 766 353 729 221 q 803 608 803 486 q 750 811 803 740 q 597 882 697 882 q 398 788 478 882 q 281 560 318 694 q 244 307 244 426 q 297 106 244 176 q 449 35 349 35 m 964 915 q 1076 958 1033 915 q 1131 1060 1119 1001 l 1242 1060 q 1195 963 1232 1010 q 1097 885 1158 915 q 953 856 1035 856 l 964 915 z "},"Ớ":{"ha":1021,"x_min":56,"x_max":1242,"o":"m 438 -28 q 233 21 319 -28 q 101 156 147 69 q 56 356 56 243 q 126 638 56 501 q 324 859 197 774 q 608 944 451 944 q 813 896 726 944 q 944 760 899 847 q 990 561 990 674 q 919 279 990 415 q 722 58 849 143 q 438 -28 594 -28 m 449 35 q 649 128 569 35 q 766 353 729 221 q 803 608 803 486 q 750 811 803 740 q 597 882 697 882 q 398 788 478 882 q 281 560 318 694 q 244 307 244 426 q 297 106 244 176 q 449 35 349 35 m 964 915 q 1076 958 1033 915 q 1131 1060 1119 1001 l 1242 1060 q 1195 963 1232 1010 q 1097 885 1158 915 q 953 856 1035 856 l 964 915 m 583 993 l 676 1188 l 842 1188 l 660 993 l 583 993 z "},"Ợ":{"ha":1021,"x_min":56,"x_max":1242,"o":"m 438 -28 q 233 21 319 -28 q 101 156 147 69 q 56 356 56 243 q 126 638 56 501 q 324 859 197 774 q 608 944 451 944 q 813 896 726 944 q 944 760 899 847 q 990 561 990 674 q 919 279 990 415 q 722 58 849 143 q 438 -28 594 -28 m 449 35 q 649 128 569 35 q 766 353 729 221 q 803 608 803 486 q 750 811 803 740 q 597 882 697 882 q 398 788 478 882 q 281 560 318 694 q 244 307 244 426 q 297 106 244 176 q 449 35 349 35 m 964 915 q 1076 958 1033 915 q 1131 1060 1119 1001 l 1242 1060 q 1195 963 1232 1010 q 1097 885 1158 915 q 953 856 1035 856 l 964 915 m 413 -233 q 369 -219 385 -233 q 354 -181 354 -206 q 377 -119 354 -144 q 438 -93 400 -93 q 496 -147 496 -93 q 472 -208 496 -182 q 413 -233 449 -233 z "},"Ờ":{"ha":1021,"x_min":56,"x_max":1242,"o":"m 438 -28 q 233 21 319 -28 q 101 156 147 69 q 56 356 56 243 q 126 638 56 501 q 324 859 197 774 q 608 944 451 944 q 813 896 726 944 q 944 760 899 847 q 990 561 990 674 q 919 279 990 415 q 722 58 849 143 q 438 -28 594 -28 m 449 35 q 649 128 569 35 q 766 353 729 221 q 803 608 803 486 q 750 811 803 740 q 597 882 697 882 q 398 788 478 882 q 281 560 318 694 q 244 307 244 426 q 297 106 244 176 q 449 35 349 35 m 964 915 q 1076 958 1033 915 q 1131 1060 1119 1001 l 1242 1060 q 1195 963 1232 1010 q 1097 885 1158 915 q 953 856 1035 856 l 964 915 m 579 993 l 467 1188 l 632 1188 l 656 993 l 579 993 z "},"Ở":{"ha":1021,"x_min":56,"x_max":1242,"o":"m 438 -28 q 233 21 319 -28 q 101 156 147 69 q 56 356 56 243 q 126 638 56 501 q 324 859 197 774 q 608 944 451 944 q 813 896 726 944 q 944 760 899 847 q 990 561 990 674 q 919 279 990 415 q 722 58 849 143 q 438 -28 594 -28 m 449 35 q 649 128 569 35 q 766 353 729 221 q 803 608 803 486 q 750 811 803 740 q 597 882 697 882 q 398 788 478 882 q 281 560 318 694 q 244 307 244 426 q 297 106 244 176 q 449 35 349 35 m 964 915 q 1076 958 1033 915 q 1131 1060 1119 1001 l 1242 1060 q 1195 963 1232 1010 q 1097 885 1158 915 q 953 856 1035 856 l 964 915 m 625 988 q 668 1063 635 1029 q 684 1083 676 1072 q 693 1104 692 1094 q 696 1124 696 1118 q 658 1157 696 1157 q 617 1142 633 1157 q 585 1085 600 1128 l 508 1086 q 514 1119 510 1094 q 532 1165 518 1143 q 590 1222 554 1200 q 675 1243 626 1243 q 761 1218 732 1243 q 790 1149 790 1193 q 788 1117 790 1128 q 775 1089 785 1101 q 747 1060 765 1076 q 714 1024 725 1038 q 697 988 703 1010 l 625 988 z "},"Ỡ":{"ha":1021,"x_min":56,"x_max":1242,"o":"m 438 -28 q 233 21 319 -28 q 101 156 147 69 q 56 356 56 243 q 126 638 56 501 q 324 859 197 774 q 608 944 451 944 q 813 896 726 944 q 944 760 899 847 q 990 561 990 674 q 919 279 990 415 q 722 58 849 143 q 438 -28 594 -28 m 449 35 q 649 128 569 35 q 766 353 729 221 q 803 608 803 486 q 750 811 803 740 q 597 882 697 882 q 398 788 478 882 q 281 560 318 694 q 244 307 244 426 q 297 106 244 176 q 449 35 349 35 m 964 915 q 1076 958 1033 915 q 1131 1060 1119 1001 l 1242 1060 q 1195 963 1232 1010 q 1097 885 1158 915 q 953 856 1035 856 l 964 915 m 460 1042 q 504 1150 475 1119 q 579 1181 533 1181 q 618 1172 603 1181 q 653 1147 633 1164 q 676 1131 667 1136 q 697 1125 686 1125 q 736 1142 719 1125 q 756 1181 753 1158 l 811 1181 q 767 1072 796 1103 q 693 1042 739 1042 q 653 1051 669 1042 q 618 1075 636 1060 q 606 1084 615 1078 q 590 1094 597 1090 q 574 1097 582 1097 q 535 1081 551 1097 q 515 1042 519 1064 l 460 1042 z "},"Ø":{"ha":1019,"x_min":56,"x_max":989,"o":"m 157 78 q 81 198 107 128 q 56 353 56 268 q 126 635 56 499 q 324 858 197 772 q 608 944 451 944 q 800 901 718 944 l 832 944 l 960 944 l 882 843 q 962 719 935 792 q 989 560 989 647 q 918 278 989 414 q 721 58 847 143 q 438 -28 594 -28 q 240 18 325 -28 l 204 -28 l 76 -28 l 157 78 m 739 824 q 597 882 685 882 q 397 788 476 882 q 281 558 318 693 q 244 303 244 424 q 254 201 244 257 l 739 824 m 449 35 q 649 128 569 35 q 766 354 729 221 q 803 608 803 488 q 790 725 803 675 l 301 97 q 449 35 354 35 z "},"Õ":{"ha":1021,"x_min":56,"x_max":990,"o":"m 438 -28 q 233 21 319 -28 q 101 156 147 69 q 56 356 56 243 q 126 638 56 501 q 324 859 197 774 q 608 944 451 944 q 813 896 726 944 q 944 760 899 847 q 990 561 990 674 q 919 279 990 415 q 722 58 849 143 q 438 -28 594 -28 m 449 35 q 649 128 569 35 q 766 353 729 221 q 803 608 803 486 q 750 811 803 740 q 597 882 697 882 q 398 788 478 882 q 281 560 318 694 q 244 307 244 426 q 297 106 244 176 q 449 35 349 35 m 460 1025 q 504 1133 475 1103 q 579 1164 533 1164 q 618 1156 603 1164 q 653 1131 633 1147 q 676 1114 667 1119 q 697 1108 686 1108 q 736 1125 719 1108 q 756 1164 753 1142 l 811 1164 q 767 1056 796 1086 q 693 1025 739 1025 q 653 1034 669 1025 q 618 1058 636 1043 q 606 1067 615 1061 q 590 1077 597 1074 q 574 1081 582 1081 q 535 1064 551 1081 q 515 1025 519 1047 l 460 1025 z "},"Œ":{"ha":1331,"x_min":56,"x_max":1325,"o":"m 438 -28 q 233 21 319 -28 q 101 156 147 69 q 56 356 56 243 q 126 638 56 501 q 324 859 197 774 q 608 944 451 944 q 695 938 661 944 q 764 917 729 931 l 1224 917 q 1325 836 1325 917 q 1301 688 1325 824 l 1260 688 q 1264 733 1264 713 q 1115 854 1264 854 l 892 854 l 831 507 l 1192 507 l 1181 444 l 819 444 l 751 63 l 989 63 q 1127 98 1068 63 q 1238 221 1186 133 l 1272 207 l 1213 97 q 1156 23 1185 46 q 1075 0 1128 0 l 603 0 q 438 -28 535 -28 m 449 35 q 572 67 511 35 l 710 849 q 597 882 664 882 q 398 788 478 882 q 281 560 318 694 q 244 307 244 426 q 297 106 244 176 q 449 35 349 35 z "},"P":{"ha":806,"x_min":67,"x_max":831,"o":"m 67 0 q 174 613 144 442 q 203 799 203 783 q 185 856 203 838 q 124 875 167 875 l 110 875 l 117 917 l 499 917 q 728 871 626 917 q 831 694 831 825 q 776 522 831 594 q 633 410 722 449 q 444 371 544 371 l 313 371 l 247 0 l 67 0 m 406 426 q 531 466 478 426 q 610 570 583 506 q 638 710 638 635 q 595 826 638 790 q 489 861 553 861 q 426 856 449 861 l 397 851 l 322 426 l 406 426 z "},"Þ":{"ha":774,"x_min":63,"x_max":764,"o":"m 63 -42 q 189 676 164 529 q 214 840 214 824 q 196 898 214 879 q 135 917 178 917 l 121 917 l 128 958 l 294 958 q 374 938 350 958 q 397 865 397 917 q 385 764 397 826 q 764 504 764 756 q 627 217 764 310 q 271 111 490 124 l 243 -42 l 63 -42 m 282 174 q 492 275 414 185 q 569 504 569 365 q 374 700 569 686 l 282 174 z "},"Q":{"ha":1024,"x_min":57,"x_max":992,"o":"m 844 -285 q 533 -218 674 -285 q 299 -6 393 -151 q 121 126 185 29 q 57 356 57 224 q 128 638 57 501 q 326 859 199 774 q 610 944 453 944 q 814 896 728 944 q 946 760 900 847 q 992 561 992 674 q 940 319 992 436 q 794 115 889 203 q 574 -10 700 28 q 628 -130 585 -75 q 733 -217 672 -185 q 851 -249 793 -249 l 844 -285 m 450 35 q 651 128 571 35 q 767 353 731 221 q 804 608 804 486 q 751 811 804 740 q 599 882 699 882 q 399 788 479 882 q 283 560 319 694 q 246 307 246 426 q 298 106 246 176 q 450 35 350 35 z "},"R":{"ha":856,"x_min":67,"x_max":833,"o":"m 710 -14 q 578 31 633 -14 q 475 188 524 76 l 378 419 l 322 419 l 249 0 l 67 0 q 174 613 144 442 q 203 799 203 783 q 185 856 203 838 q 124 875 167 875 l 110 875 l 117 917 l 500 917 q 732 874 631 917 q 833 710 833 831 q 758 531 833 600 q 564 431 683 461 l 667 188 q 813 35 724 51 l 807 0 q 766 -10 796 -6 q 710 -14 736 -14 m 415 475 q 531 507 479 475 q 611 594 582 539 q 640 717 640 650 q 597 826 640 790 q 490 861 553 861 q 428 856 450 861 l 399 851 l 332 475 l 415 475 z "},"S":{"ha":781,"x_min":22,"x_max":763,"o":"m 308 -24 q 169 -6 235 -24 q 63 47 103 13 q 22 126 22 81 q 51 306 22 139 l 90 306 l 90 296 q 145 99 90 160 q 317 39 200 39 q 413 57 367 39 q 490 111 460 75 q 519 200 519 147 q 492 278 519 246 q 404 353 464 311 l 251 456 q 151 549 182 501 q 119 656 119 596 q 169 808 119 743 q 301 908 219 874 q 476 942 383 942 q 616 924 550 942 q 722 872 682 906 q 763 792 763 838 q 732 613 763 781 l 693 613 l 693 628 q 640 820 693 761 q 481 879 588 879 q 390 860 433 879 q 319 806 347 842 q 292 719 292 769 q 318 647 292 676 q 408 575 344 618 l 563 474 q 672 377 638 422 q 706 275 706 332 q 648 112 706 179 q 499 10 590 44 q 308 -24 408 -24 z "},"Š":{"ha":781,"x_min":22,"x_max":763,"o":"m 308 -24 q 169 -6 235 -24 q 63 47 103 13 q 22 126 22 81 q 51 306 22 139 l 90 306 l 90 296 q 145 99 90 160 q 317 39 200 39 q 413 57 367 39 q 490 111 460 75 q 519 200 519 147 q 492 278 519 246 q 404 353 464 311 l 251 456 q 151 549 182 501 q 119 656 119 596 q 169 808 119 743 q 301 908 219 874 q 476 942 383 942 q 616 924 550 942 q 722 872 682 906 q 763 792 763 838 q 732 613 763 781 l 693 613 l 693 628 q 640 820 693 761 q 481 879 588 879 q 390 860 433 879 q 319 806 347 842 q 292 719 292 769 q 318 647 292 676 q 408 575 344 618 l 563 474 q 672 377 638 422 q 706 275 706 332 q 648 112 706 179 q 499 10 590 44 q 308 -24 408 -24 m 390 1000 l 310 1174 l 407 1174 l 492 1063 l 615 1174 l 713 1174 l 571 1000 l 390 1000 z "},"Ş":{"ha":781,"x_min":22,"x_max":763,"o":"m 219 -222 l 289 -222 q 333 -208 315 -222 q 353 -171 350 -194 q 341 -142 353 -153 q 306 -132 329 -132 l 243 -132 l 263 -21 q 91 26 160 -12 q 22 125 22 64 q 51 306 22 140 l 90 306 l 90 296 q 145 99 90 160 q 317 39 200 39 q 413 57 367 39 q 490 111 460 75 q 519 200 519 147 q 492 278 519 246 q 404 353 464 311 l 251 456 q 151 549 182 501 q 119 656 119 596 q 169 808 119 743 q 301 908 219 874 q 476 942 383 942 q 616 924 550 942 q 722 872 682 906 q 763 792 763 838 q 732 613 763 781 l 693 613 l 693 628 q 640 820 693 761 q 481 879 588 879 q 390 860 433 879 q 319 806 347 842 q 292 719 292 769 q 318 647 292 676 q 408 575 344 618 l 563 474 q 672 377 638 422 q 706 275 706 332 q 656 123 706 188 q 526 22 607 58 q 353 -22 446 -14 l 344 -69 q 424 -93 396 -69 q 451 -157 451 -117 q 409 -250 451 -214 q 306 -286 367 -286 l 208 -286 l 219 -222 z "},"T":{"ha":801,"x_min":74,"x_max":885,"o":"m 403 854 l 304 854 q 179 815 226 854 q 115 688 132 776 l 74 688 l 94 806 q 135 886 104 856 q 232 917 165 917 l 885 917 l 874 854 l 583 854 l 433 0 l 253 0 l 403 854 z "},"U":{"ha":968,"x_min":119,"x_max":967,"o":"m 435 -14 q 196 56 272 -14 q 119 271 119 126 q 132 381 119 301 q 192 736 144 461 q 199 799 199 781 q 181 856 199 838 q 119 875 163 875 l 126 917 l 279 917 q 358 896 335 917 q 382 824 382 875 q 372 736 382 781 q 309 356 322 442 q 296 242 296 271 q 335 92 296 143 q 461 42 375 42 q 692 126 613 42 q 806 400 772 211 l 897 917 l 967 917 l 875 400 q 738 90 840 194 q 435 -14 635 -14 z "},"Ú":{"ha":968,"x_min":119,"x_max":967,"o":"m 435 -14 q 196 56 272 -14 q 119 271 119 126 q 132 381 119 301 q 192 736 144 461 q 199 799 199 781 q 181 856 199 838 q 119 875 163 875 l 126 917 l 279 917 q 358 896 335 917 q 382 824 382 875 q 372 736 382 781 q 309 356 322 442 q 296 242 296 271 q 335 92 296 143 q 461 42 375 42 q 692 126 613 42 q 806 400 772 211 l 897 917 l 967 917 l 875 400 q 738 90 840 194 q 435 -14 635 -14 m 568 946 l 661 1140 l 826 1140 l 644 946 l 568 946 z "},"Û":{"ha":968,"x_min":119,"x_max":967,"o":"m 435 -14 q 196 56 272 -14 q 119 271 119 126 q 132 381 119 301 q 192 736 144 461 q 199 799 199 781 q 181 856 199 838 q 119 875 163 875 l 126 917 l 279 917 q 358 896 335 917 q 382 824 382 875 q 372 736 382 781 q 309 356 322 442 q 296 242 296 271 q 335 92 296 143 q 461 42 375 42 q 692 126 613 42 q 806 400 772 211 l 897 917 l 967 917 l 875 400 q 738 90 840 194 q 435 -14 635 -14 m 438 946 l 579 1119 l 760 1119 l 840 946 l 757 946 l 658 1057 l 521 946 l 438 946 z "},"Ü":{"ha":968,"x_min":119,"x_max":967,"o":"m 435 -14 q 196 56 272 -14 q 119 271 119 126 q 132 381 119 301 q 192 736 144 461 q 199 799 199 781 q 181 856 199 838 q 119 875 163 875 l 126 917 l 279 917 q 358 896 335 917 q 382 824 382 875 q 372 736 382 781 q 309 356 322 442 q 296 242 296 271 q 335 92 296 143 q 461 42 375 42 q 692 126 613 42 q 806 400 772 211 l 897 917 l 967 917 l 875 400 q 738 90 840 194 q 435 -14 635 -14 m 479 1007 q 431 1024 447 1007 q 414 1068 414 1042 q 441 1134 414 1106 q 507 1163 468 1163 q 556 1145 539 1163 q 572 1099 572 1128 q 544 1035 572 1063 q 479 1007 517 1007 m 729 1007 q 681 1024 697 1007 q 664 1068 664 1042 q 691 1134 664 1106 q 757 1163 718 1163 q 806 1145 789 1163 q 822 1099 822 1128 q 794 1035 822 1063 q 729 1007 767 1007 z "},"Ụ":{"ha":968,"x_min":119,"x_max":967,"o":"m 435 -14 q 196 56 272 -14 q 119 271 119 126 q 132 381 119 301 q 192 736 144 461 q 199 799 199 781 q 181 856 199 838 q 119 875 163 875 l 126 917 l 279 917 q 358 896 335 917 q 382 824 382 875 q 372 736 382 781 q 309 356 322 442 q 296 242 296 271 q 335 92 296 143 q 461 42 375 42 q 692 126 613 42 q 806 400 772 211 l 897 917 l 967 917 l 875 400 q 738 90 840 194 q 435 -14 635 -14 m 386 -233 q 343 -219 358 -233 q 328 -181 328 -206 q 351 -119 328 -144 q 411 -93 374 -93 q 469 -147 469 -93 q 446 -208 469 -182 q 386 -233 422 -233 z "},"Ù":{"ha":968,"x_min":119,"x_max":967,"o":"m 435 -14 q 196 56 272 -14 q 119 271 119 126 q 132 381 119 301 q 192 736 144 461 q 199 799 199 781 q 181 856 199 838 q 119 875 163 875 l 126 917 l 279 917 q 358 896 335 917 q 382 824 382 875 q 372 736 382 781 q 309 356 322 442 q 296 242 296 271 q 335 92 296 143 q 461 42 375 42 q 692 126 613 42 q 806 400 772 211 l 897 917 l 967 917 l 875 400 q 738 90 840 194 q 435 -14 635 -14 m 553 993 l 440 1188 l 606 1188 l 629 993 l 553 993 z "},"Ủ":{"ha":968,"x_min":119,"x_max":967,"o":"m 435 -14 q 196 56 272 -14 q 119 271 119 126 q 132 381 119 301 q 192 736 144 461 q 199 799 199 781 q 181 856 199 838 q 119 875 163 875 l 126 917 l 279 917 q 358 896 335 917 q 382 824 382 875 q 372 736 382 781 q 309 356 322 442 q 296 242 296 271 q 335 92 296 143 q 461 42 375 42 q 692 126 613 42 q 806 400 772 211 l 897 917 l 967 917 l 875 400 q 738 90 840 194 q 435 -14 635 -14 m 599 988 q 642 1063 608 1029 q 658 1083 650 1072 q 667 1104 665 1094 q 669 1124 669 1118 q 632 1157 669 1157 q 590 1142 607 1157 q 558 1085 574 1128 l 482 1086 q 488 1119 483 1094 q 506 1165 492 1143 q 564 1222 528 1200 q 649 1243 600 1243 q 735 1218 706 1243 q 764 1149 764 1193 q 761 1117 764 1128 q 749 1089 758 1101 q 721 1060 739 1076 q 688 1024 699 1038 q 671 988 676 1010 l 599 988 z "},"Ư":{"ha":968,"x_min":119,"x_max":1189,"o":"m 1189 1060 q 1115 933 1175 990 q 957 860 1054 875 l 875 400 q 738 90 840 194 q 435 -14 635 -14 q 196 56 272 -14 q 119 271 119 126 q 132 381 119 301 q 192 736 144 461 q 199 799 199 781 q 181 856 199 838 q 119 875 163 875 l 126 917 l 279 917 q 358 896 335 917 q 382 824 382 875 q 372 736 382 781 q 309 356 322 442 q 296 242 296 271 q 335 92 296 143 q 461 42 375 42 q 692 126 613 42 q 806 400 772 211 l 897 917 l 933 917 q 1031 966 993 925 q 1078 1060 1068 1007 l 1189 1060 z "},"Ứ":{"ha":968,"x_min":119,"x_max":1189,"o":"m 1189 1060 q 1115 933 1175 990 q 957 860 1054 875 l 875 400 q 738 90 840 194 q 435 -14 635 -14 q 196 56 272 -14 q 119 271 119 126 q 132 381 119 301 q 192 736 144 461 q 199 799 199 781 q 181 856 199 838 q 119 875 163 875 l 126 917 l 279 917 q 358 896 335 917 q 382 824 382 875 q 372 736 382 781 q 309 356 322 442 q 296 242 296 271 q 335 92 296 143 q 461 42 375 42 q 692 126 613 42 q 806 400 772 211 l 897 917 l 933 917 q 1031 966 993 925 q 1078 1060 1068 1007 l 1189 1060 m 557 993 l 650 1188 l 815 1188 l 633 993 l 557 993 z "},"Ự":{"ha":968,"x_min":119,"x_max":1189,"o":"m 1189 1060 q 1115 933 1175 990 q 957 860 1054 875 l 875 400 q 738 90 840 194 q 435 -14 635 -14 q 196 56 272 -14 q 119 271 119 126 q 132 381 119 301 q 192 736 144 461 q 199 799 199 781 q 181 856 199 838 q 119 875 163 875 l 126 917 l 279 917 q 358 896 335 917 q 382 824 382 875 q 372 736 382 781 q 309 356 322 442 q 296 242 296 271 q 335 92 296 143 q 461 42 375 42 q 692 126 613 42 q 806 400 772 211 l 897 917 l 933 917 q 1031 966 993 925 q 1078 1060 1068 1007 l 1189 1060 m 386 -233 q 343 -219 358 -233 q 328 -181 328 -206 q 351 -119 328 -144 q 411 -93 374 -93 q 469 -147 469 -93 q 446 -208 469 -182 q 386 -233 422 -233 z "},"Ừ":{"ha":968,"x_min":119,"x_max":1189,"o":"m 1189 1060 q 1115 933 1175 990 q 957 860 1054 875 l 875 400 q 738 90 840 194 q 435 -14 635 -14 q 196 56 272 -14 q 119 271 119 126 q 132 381 119 301 q 192 736 144 461 q 199 799 199 781 q 181 856 199 838 q 119 875 163 875 l 126 917 l 279 917 q 358 896 335 917 q 382 824 382 875 q 372 736 382 781 q 309 356 322 442 q 296 242 296 271 q 335 92 296 143 q 461 42 375 42 q 692 126 613 42 q 806 400 772 211 l 897 917 l 933 917 q 1031 966 993 925 q 1078 1060 1068 1007 l 1189 1060 m 553 993 l 440 1188 l 606 1188 l 629 993 l 553 993 z "},"Ử":{"ha":968,"x_min":119,"x_max":1189,"o":"m 1189 1060 q 1115 933 1175 990 q 957 860 1054 875 l 875 400 q 738 90 840 194 q 435 -14 635 -14 q 196 56 272 -14 q 119 271 119 126 q 132 381 119 301 q 192 736 144 461 q 199 799 199 781 q 181 856 199 838 q 119 875 163 875 l 126 917 l 279 917 q 358 896 335 917 q 382 824 382 875 q 372 736 382 781 q 309 356 322 442 q 296 242 296 271 q 335 92 296 143 q 461 42 375 42 q 692 126 613 42 q 806 400 772 211 l 897 917 l 933 917 q 1031 966 993 925 q 1078 1060 1068 1007 l 1189 1060 m 599 988 q 642 1063 608 1029 q 658 1083 650 1072 q 667 1104 665 1094 q 669 1124 669 1118 q 632 1157 669 1157 q 590 1142 607 1157 q 558 1085 574 1128 l 482 1086 q 488 1119 483 1094 q 506 1165 492 1143 q 564 1222 528 1200 q 649 1243 600 1243 q 735 1218 706 1243 q 764 1149 764 1193 q 761 1117 764 1128 q 749 1089 758 1101 q 721 1060 739 1076 q 688 1024 699 1038 q 671 988 676 1010 l 599 988 z "},"Ữ":{"ha":968,"x_min":119,"x_max":1189,"o":"m 1189 1060 q 1115 933 1175 990 q 957 860 1054 875 l 875 400 q 738 90 840 194 q 435 -14 635 -14 q 196 56 272 -14 q 119 271 119 126 q 132 381 119 301 q 192 736 144 461 q 199 799 199 781 q 181 856 199 838 q 119 875 163 875 l 126 917 l 279 917 q 358 896 335 917 q 382 824 382 875 q 372 736 382 781 q 309 356 322 442 q 296 242 296 271 q 335 92 296 143 q 461 42 375 42 q 692 126 613 42 q 806 400 772 211 l 897 917 l 933 917 q 1031 966 993 925 q 1078 1060 1068 1007 l 1189 1060 m 433 1042 q 478 1150 449 1119 q 553 1181 507 1181 q 592 1172 576 1181 q 626 1147 607 1164 q 650 1131 640 1136 q 671 1125 660 1125 q 710 1142 693 1125 q 729 1181 726 1158 l 785 1181 q 741 1072 769 1103 q 667 1042 713 1042 q 626 1051 643 1042 q 592 1075 610 1060 q 580 1084 589 1078 q 563 1094 571 1090 q 547 1097 556 1097 q 509 1081 525 1097 q 489 1042 493 1064 l 433 1042 z "},"Ũ":{"ha":968,"x_min":119,"x_max":967,"o":"m 435 -14 q 196 56 272 -14 q 119 271 119 126 q 132 381 119 301 q 192 736 144 461 q 199 799 199 781 q 181 856 199 838 q 119 875 163 875 l 126 917 l 279 917 q 358 896 335 917 q 382 824 382 875 q 372 736 382 781 q 309 356 322 442 q 296 242 296 271 q 335 92 296 143 q 461 42 375 42 q 692 126 613 42 q 806 400 772 211 l 897 917 l 967 917 l 875 400 q 738 90 840 194 q 435 -14 635 -14 m 433 1042 q 478 1150 449 1119 q 553 1181 507 1181 q 592 1172 576 1181 q 626 1147 607 1164 q 650 1131 640 1136 q 671 1125 660 1125 q 710 1142 693 1125 q 729 1181 726 1158 l 785 1181 q 741 1072 769 1103 q 667 1042 713 1042 q 626 1051 643 1042 q 592 1075 610 1060 q 580 1084 589 1078 q 563 1094 571 1090 q 547 1097 556 1097 q 509 1081 525 1097 q 489 1042 493 1064 l 433 1042 z "},"V":{"ha":885,"x_min":40,"x_max":960,"o":"m 151 754 q 107 863 132 831 q 40 900 82 894 l 44 928 l 104 931 q 258 896 196 931 q 347 754 319 861 l 475 235 l 889 917 l 960 917 l 396 -14 l 340 -14 l 151 754 z "},"W":{"ha":1257,"x_min":32,"x_max":1317,"o":"m 143 754 q 101 863 126 831 q 32 900 75 894 l 36 928 l 96 931 q 253 897 189 931 q 339 754 317 863 l 442 275 l 631 631 l 603 754 q 557 862 588 829 q 482 900 526 894 l 486 928 l 542 931 q 699 897 636 931 q 785 754 763 863 l 894 249 l 1250 917 l 1317 917 l 824 -12 l 768 -12 l 650 532 l 364 -12 l 308 -12 l 143 754 z "},"X":{"ha":896,"x_min":-44,"x_max":933,"o":"m 372 432 l 229 736 q 158 838 203 793 q 69 889 114 883 l 75 917 l 228 917 q 347 873 299 917 q 426 764 396 829 l 515 578 l 843 917 l 933 917 l 544 515 l 703 181 q 774 78 729 122 q 863 28 818 33 l 858 0 l 706 0 q 585 44 635 0 q 506 153 536 89 l 403 369 l 46 0 l -44 0 l 372 432 z "},"Y":{"ha":888,"x_min":40,"x_max":972,"o":"m 379 367 l 199 736 q 128 839 172 794 q 40 889 83 883 l 46 917 l 197 917 q 317 873 268 917 q 396 764 365 829 l 535 479 l 882 917 l 972 917 l 567 404 l 496 0 l 315 0 l 379 367 z "},"Ý":{"ha":888,"x_min":40,"x_max":972,"o":"m 379 367 l 199 736 q 128 839 172 794 q 40 889 83 883 l 46 917 l 197 917 q 317 873 268 917 q 396 764 365 829 l 535 479 l 882 917 l 972 917 l 567 404 l 496 0 l 315 0 l 379 367 m 532 932 l 625 1126 l 790 1126 l 608 932 l 532 932 z "},"Ÿ":{"ha":888,"x_min":40,"x_max":972,"o":"m 379 367 l 199 736 q 128 839 172 794 q 40 889 83 883 l 46 917 l 197 917 q 317 873 268 917 q 396 764 365 829 l 535 479 l 882 917 l 972 917 l 567 404 l 496 0 l 315 0 l 379 367 m 474 958 q 425 976 442 958 q 408 1022 408 993 q 436 1087 408 1060 q 501 1114 464 1114 q 550 1097 533 1114 q 567 1053 567 1081 q 540 987 567 1015 q 474 958 513 958 m 710 958 q 661 976 678 958 q 644 1022 644 993 q 672 1087 644 1060 q 738 1114 700 1114 q 786 1097 769 1114 q 803 1053 803 1081 q 776 987 803 1015 q 710 958 749 958 z "},"Ỵ":{"ha":888,"x_min":40,"x_max":972,"o":"m 379 367 l 199 736 q 128 839 172 794 q 40 889 83 883 l 46 917 l 197 917 q 317 873 268 917 q 396 764 365 829 l 535 479 l 882 917 l 972 917 l 567 404 l 496 0 l 315 0 l 379 367 m 346 -233 q 303 -219 318 -233 q 288 -181 288 -206 q 310 -119 288 -144 q 371 -93 333 -93 q 429 -147 429 -93 q 406 -208 429 -182 q 346 -233 382 -233 z "},"Ỳ":{"ha":888,"x_min":40,"x_max":972,"o":"m 379 367 l 199 736 q 128 839 172 794 q 40 889 83 883 l 46 917 l 197 917 q 317 873 268 917 q 396 764 365 829 l 535 479 l 882 917 l 972 917 l 567 404 l 496 0 l 315 0 l 379 367 m 513 993 l 400 1188 l 565 1188 l 589 993 l 513 993 z "},"Ỷ":{"ha":888,"x_min":40,"x_max":972,"o":"m 379 367 l 199 736 q 128 839 172 794 q 40 889 83 883 l 46 917 l 197 917 q 317 873 268 917 q 396 764 365 829 l 535 479 l 882 917 l 972 917 l 567 404 l 496 0 l 315 0 l 379 367 m 558 988 q 601 1063 568 1029 q 617 1083 610 1072 q 626 1104 625 1094 q 629 1124 629 1118 q 592 1157 629 1157 q 550 1142 567 1157 q 518 1085 533 1128 l 442 1086 q 447 1119 443 1094 q 465 1165 451 1143 q 524 1222 488 1200 q 608 1243 560 1243 q 694 1218 665 1243 q 724 1149 724 1193 q 721 1117 724 1128 q 708 1089 718 1101 q 681 1060 699 1076 q 647 1024 658 1038 q 631 988 636 1010 l 558 988 z "},"Ỹ":{"ha":888,"x_min":40,"x_max":972,"o":"m 379 367 l 199 736 q 128 839 172 794 q 40 889 83 883 l 46 917 l 197 917 q 317 873 268 917 q 396 764 365 829 l 535 479 l 882 917 l 972 917 l 567 404 l 496 0 l 315 0 l 379 367 m 393 1042 q 438 1150 408 1119 q 513 1181 467 1181 q 551 1172 536 1181 q 586 1147 567 1164 q 610 1131 600 1136 q 631 1125 619 1125 q 669 1142 653 1125 q 689 1181 686 1158 l 744 1181 q 701 1072 729 1103 q 626 1042 672 1042 q 586 1051 603 1042 q 551 1075 569 1060 q 540 1084 549 1078 q 523 1094 531 1090 q 507 1097 515 1097 q 469 1081 485 1097 q 449 1042 453 1064 l 393 1042 z "},"Z":{"ha":832,"x_min":-24,"x_max":901,"o":"m -17 44 l 643 856 l 342 856 q 216 817 264 856 q 153 688 168 778 l 111 688 l 132 806 q 172 886 142 856 q 269 917 203 917 l 901 917 l 206 63 l 743 63 l 733 0 l -24 0 l -17 44 z "},"Ž":{"ha":832,"x_min":-24,"x_max":901,"o":"m -17 44 l 643 856 l 342 856 q 216 817 264 856 q 153 688 168 778 l 111 688 l 132 806 q 172 886 142 856 q 269 917 203 917 l 901 917 l 206 63 l 743 63 l 733 0 l -24 0 l -17 44 m 454 986 l 374 1160 l 471 1160 l 556 1049 l 679 1160 l 776 1160 l 635 986 l 454 986 z "},"a":{"ha":764,"x_min":33,"x_max":725,"o":"m 275 -14 q 94 56 156 -14 q 33 236 33 125 q 77 436 33 336 q 203 601 121 536 q 394 667 286 667 q 508 628 467 667 q 540 590 529 610 l 547 590 l 607 653 l 725 653 l 635 139 l 611 0 l 493 0 l 454 63 l 447 63 q 403 24 431 42 q 275 -14 350 -14 m 314 49 q 367 60 343 49 q 415 93 390 72 q 454 139 436 111 l 521 514 q 497 558 513 539 q 411 604 463 604 q 301 533 344 604 q 237 365 257 461 q 217 200 217 269 q 314 49 217 49 z "},"á":{"ha":764,"x_min":33,"x_max":725,"o":"m 275 -14 q 94 56 156 -14 q 33 236 33 125 q 77 436 33 336 q 203 601 121 536 q 394 667 286 667 q 508 628 467 667 q 540 590 529 610 l 547 590 l 607 653 l 725 653 l 635 139 l 611 0 l 493 0 l 454 63 l 447 63 q 403 24 431 42 q 275 -14 350 -14 m 314 49 q 367 60 343 49 q 415 93 390 72 q 454 139 436 111 l 521 514 q 497 558 513 539 q 411 604 463 604 q 301 533 344 604 q 237 365 257 461 q 217 200 217 269 q 314 49 217 49 m 403 731 l 496 925 l 661 925 l 479 731 l 403 731 z "},"ă":{"ha":764,"x_min":33,"x_max":725,"o":"m 275 -14 q 94 56 156 -14 q 33 236 33 125 q 77 436 33 336 q 203 601 121 536 q 394 667 286 667 q 508 628 467 667 q 540 590 529 610 l 547 590 l 607 653 l 725 653 l 635 139 l 611 0 l 493 0 l 454 63 l 447 63 q 403 24 431 42 q 275 -14 350 -14 m 314 49 q 367 60 343 49 q 415 93 390 72 q 454 139 436 111 l 521 514 q 497 558 513 539 q 411 604 463 604 q 301 533 344 604 q 237 365 257 461 q 217 200 217 269 q 314 49 217 49 m 453 708 q 342 744 386 708 q 281 839 297 779 l 325 868 q 379 819 343 839 q 469 799 415 799 q 566 818 524 799 q 639 868 608 838 l 672 839 q 577 744 635 779 q 453 708 519 708 z "},"ắ":{"ha":764,"x_min":33,"x_max":725,"o":"m 275 -14 q 94 56 156 -14 q 33 236 33 125 q 77 436 33 336 q 203 601 121 536 q 394 667 286 667 q 508 628 467 667 q 540 590 529 610 l 547 590 l 607 653 l 725 653 l 635 139 l 611 0 l 493 0 l 454 63 l 447 63 q 403 24 431 42 q 275 -14 350 -14 m 314 49 q 367 60 343 49 q 415 93 390 72 q 454 139 436 111 l 521 514 q 497 558 513 539 q 411 604 463 604 q 301 533 344 604 q 237 365 257 461 q 217 200 217 269 q 314 49 217 49 m 453 708 q 342 744 386 708 q 281 839 297 779 l 325 868 q 379 819 343 839 q 469 799 415 799 q 566 818 524 799 q 639 868 608 838 l 672 839 q 577 744 635 779 q 453 708 519 708 m 429 889 l 522 1083 l 688 1083 l 506 889 l 429 889 z "},"ặ":{"ha":764,"x_min":33,"x_max":725,"o":"m 275 -14 q 94 56 156 -14 q 33 236 33 125 q 77 436 33 336 q 203 601 121 536 q 394 667 286 667 q 508 628 467 667 q 540 590 529 610 l 547 590 l 607 653 l 725 653 l 635 139 l 611 0 l 493 0 l 454 63 l 447 63 q 403 24 431 42 q 275 -14 350 -14 m 314 49 q 367 60 343 49 q 415 93 390 72 q 454 139 436 111 l 521 514 q 497 558 513 539 q 411 604 463 604 q 301 533 344 604 q 237 365 257 461 q 217 200 217 269 q 314 49 217 49 m 283 -233 q 240 -219 256 -233 q 225 -181 225 -206 q 248 -119 225 -144 q 308 -93 271 -93 q 367 -147 367 -93 q 343 -208 367 -182 q 283 -233 319 -233 m 453 708 q 342 744 386 708 q 281 839 297 779 l 325 868 q 379 819 343 839 q 469 799 415 799 q 566 818 524 799 q 639 868 608 838 l 672 839 q 577 744 635 779 q 453 708 519 708 z "},"ằ":{"ha":764,"x_min":33,"x_max":725,"o":"m 275 -14 q 94 56 156 -14 q 33 236 33 125 q 77 436 33 336 q 203 601 121 536 q 394 667 286 667 q 508 628 467 667 q 540 590 529 610 l 547 590 l 607 653 l 725 653 l 635 139 l 611 0 l 493 0 l 454 63 l 447 63 q 403 24 431 42 q 275 -14 350 -14 m 314 49 q 367 60 343 49 q 415 93 390 72 q 454 139 436 111 l 521 514 q 497 558 513 539 q 411 604 463 604 q 301 533 344 604 q 237 365 257 461 q 217 200 217 269 q 314 49 217 49 m 453 708 q 342 744 386 708 q 281 839 297 779 l 325 868 q 379 819 343 839 q 469 799 415 799 q 566 818 524 799 q 639 868 608 838 l 672 839 q 577 744 635 779 q 453 708 519 708 m 454 896 l 342 1090 l 507 1090 l 531 896 l 454 896 z "},"ẳ":{"ha":764,"x_min":33,"x_max":725,"o":"m 275 -14 q 94 56 156 -14 q 33 236 33 125 q 77 436 33 336 q 203 601 121 536 q 394 667 286 667 q 508 628 467 667 q 540 590 529 610 l 547 590 l 607 653 l 725 653 l 635 139 l 611 0 l 493 0 l 454 63 l 447 63 q 403 24 431 42 q 275 -14 350 -14 m 314 49 q 367 60 343 49 q 415 93 390 72 q 454 139 436 111 l 521 514 q 497 558 513 539 q 411 604 463 604 q 301 533 344 604 q 237 365 257 461 q 217 200 217 269 q 314 49 217 49 m 453 708 q 342 744 386 708 q 281 839 297 779 l 325 868 q 379 819 343 839 q 469 799 415 799 q 566 818 524 799 q 639 868 608 838 l 672 839 q 577 744 635 779 q 453 708 519 708 m 432 897 q 475 972 442 939 q 491 993 483 982 q 500 1014 499 1004 q 503 1033 503 1028 q 465 1067 503 1067 q 424 1052 440 1067 q 392 994 407 1038 l 315 996 q 321 1028 317 1004 q 339 1075 325 1053 q 397 1131 361 1110 q 482 1153 433 1153 q 568 1128 539 1153 q 597 1058 597 1103 q 594 1026 597 1038 q 582 999 592 1011 q 554 969 572 986 q 521 933 532 947 q 504 897 510 919 l 432 897 z "},"ẵ":{"ha":764,"x_min":33,"x_max":725,"o":"m 275 -14 q 94 56 156 -14 q 33 236 33 125 q 77 436 33 336 q 203 601 121 536 q 394 667 286 667 q 508 628 467 667 q 540 590 529 610 l 547 590 l 607 653 l 725 653 l 635 139 l 611 0 l 493 0 l 454 63 l 447 63 q 403 24 431 42 q 275 -14 350 -14 m 314 49 q 367 60 343 49 q 415 93 390 72 q 454 139 436 111 l 521 514 q 497 558 513 539 q 411 604 463 604 q 301 533 344 604 q 237 365 257 461 q 217 200 217 269 q 314 49 217 49 m 453 708 q 342 744 386 708 q 281 839 297 779 l 325 868 q 379 819 343 839 q 469 799 415 799 q 566 818 524 799 q 639 868 608 838 l 672 839 q 577 744 635 779 q 453 708 519 708 m 311 926 q 356 1035 326 1004 q 431 1065 385 1065 q 469 1057 454 1065 q 504 1032 485 1049 q 528 1015 518 1021 q 549 1010 538 1010 q 588 1026 571 1010 q 607 1065 604 1043 l 663 1065 q 619 957 647 988 q 544 926 590 926 q 504 935 521 926 q 469 960 488 944 q 458 969 467 963 q 441 978 449 975 q 425 982 433 982 q 387 965 403 982 q 367 926 371 949 l 311 926 z "},"â":{"ha":764,"x_min":33,"x_max":725,"o":"m 275 -14 q 94 56 156 -14 q 33 236 33 125 q 77 436 33 336 q 203 601 121 536 q 394 667 286 667 q 508 628 467 667 q 540 590 529 610 l 547 590 l 607 653 l 725 653 l 635 139 l 611 0 l 493 0 l 454 63 l 447 63 q 403 24 431 42 q 275 -14 350 -14 m 314 49 q 367 60 343 49 q 415 93 390 72 q 454 139 436 111 l 521 514 q 497 558 513 539 q 411 604 463 604 q 301 533 344 604 q 237 365 257 461 q 217 200 217 269 q 314 49 217 49 m 242 738 l 383 911 l 564 911 l 644 738 l 561 738 l 463 849 l 325 738 l 242 738 z "},"ấ":{"ha":764,"x_min":33,"x_max":896,"o":"m 275 -14 q 94 56 156 -14 q 33 236 33 125 q 77 436 33 336 q 203 601 121 536 q 394 667 286 667 q 508 628 467 667 q 540 590 529 610 l 547 590 l 607 653 l 725 653 l 635 139 l 611 0 l 493 0 l 454 63 l 447 63 q 403 24 431 42 q 275 -14 350 -14 m 314 49 q 367 60 343 49 q 415 93 390 72 q 454 139 436 111 l 521 514 q 497 558 513 539 q 411 604 463 604 q 301 533 344 604 q 237 365 257 461 q 217 200 217 269 q 314 49 217 49 m 246 722 l 388 896 l 568 896 l 649 722 l 551 722 l 467 833 l 343 722 l 246 722 m 638 811 l 731 1006 l 896 1006 l 714 811 l 638 811 z "},"ậ":{"ha":764,"x_min":33,"x_max":725,"o":"m 275 -14 q 94 56 156 -14 q 33 236 33 125 q 77 436 33 336 q 203 601 121 536 q 394 667 286 667 q 508 628 467 667 q 540 590 529 610 l 547 590 l 607 653 l 725 653 l 635 139 l 611 0 l 493 0 l 454 63 l 447 63 q 403 24 431 42 q 275 -14 350 -14 m 314 49 q 367 60 343 49 q 415 93 390 72 q 454 139 436 111 l 521 514 q 497 558 513 539 q 411 604 463 604 q 301 533 344 604 q 237 365 257 461 q 217 200 217 269 q 314 49 217 49 m 283 -233 q 240 -219 256 -233 q 225 -181 225 -206 q 248 -119 225 -144 q 308 -93 271 -93 q 367 -147 367 -93 q 343 -208 367 -182 q 283 -233 319 -233 m 246 722 l 388 896 l 568 896 l 649 722 l 551 722 l 467 833 l 343 722 l 246 722 z "},"ầ":{"ha":764,"x_min":33,"x_max":772,"o":"m 275 -14 q 94 56 156 -14 q 33 236 33 125 q 77 436 33 336 q 203 601 121 536 q 394 667 286 667 q 508 628 467 667 q 540 590 529 610 l 547 590 l 607 653 l 725 653 l 635 139 l 611 0 l 493 0 l 454 63 l 447 63 q 403 24 431 42 q 275 -14 350 -14 m 314 49 q 367 60 343 49 q 415 93 390 72 q 454 139 436 111 l 521 514 q 497 558 513 539 q 411 604 463 604 q 301 533 344 604 q 237 365 257 461 q 217 200 217 269 q 314 49 217 49 m 246 722 l 388 896 l 568 896 l 649 722 l 551 722 l 467 833 l 343 722 l 246 722 m 696 839 l 583 1033 l 749 1033 l 772 839 l 696 839 z "},"ẩ":{"ha":764,"x_min":33,"x_max":822,"o":"m 275 -14 q 94 56 156 -14 q 33 236 33 125 q 77 436 33 336 q 203 601 121 536 q 394 667 286 667 q 508 628 467 667 q 540 590 529 610 l 547 590 l 607 653 l 725 653 l 635 139 l 611 0 l 493 0 l 454 63 l 447 63 q 403 24 431 42 q 275 -14 350 -14 m 314 49 q 367 60 343 49 q 415 93 390 72 q 454 139 436 111 l 521 514 q 497 558 513 539 q 411 604 463 604 q 301 533 344 604 q 237 365 257 461 q 217 200 217 269 q 314 49 217 49 m 246 722 l 388 896 l 568 896 l 649 722 l 551 722 l 467 833 l 343 722 l 246 722 m 657 853 q 700 928 667 894 q 716 949 708 938 q 725 969 724 960 q 728 989 728 983 q 690 1022 728 1022 q 649 1008 665 1022 q 617 950 632 993 l 540 951 q 546 984 542 960 q 564 1031 550 1008 q 622 1087 586 1065 q 707 1108 658 1108 q 793 1083 764 1108 q 822 1014 822 1058 q 819 982 822 993 q 807 954 817 967 q 779 925 797 942 q 746 889 757 903 q 729 853 735 875 l 657 853 z "},"ẫ":{"ha":764,"x_min":33,"x_max":725,"o":"m 275 -14 q 94 56 156 -14 q 33 236 33 125 q 77 436 33 336 q 203 601 121 536 q 394 667 286 667 q 508 628 467 667 q 540 590 529 610 l 547 590 l 607 653 l 725 653 l 635 139 l 611 0 l 493 0 l 454 63 l 447 63 q 403 24 431 42 q 275 -14 350 -14 m 314 49 q 367 60 343 49 q 415 93 390 72 q 454 139 436 111 l 521 514 q 497 558 513 539 q 411 604 463 604 q 301 533 344 604 q 237 365 257 461 q 217 200 217 269 q 314 49 217 49 m 246 722 l 388 896 l 568 896 l 649 722 l 551 722 l 467 833 l 343 722 l 246 722 m 315 950 q 360 1058 331 1028 q 435 1089 389 1089 q 474 1081 458 1089 q 508 1056 489 1072 q 532 1039 522 1044 q 553 1033 542 1033 q 592 1050 575 1033 q 611 1089 608 1067 l 667 1089 q 623 981 651 1011 q 549 950 594 950 q 508 959 525 950 q 474 983 492 968 q 462 992 471 986 q 445 1002 453 999 q 429 1006 438 1006 q 391 989 407 1006 q 371 950 375 972 l 315 950 z "},"ä":{"ha":764,"x_min":33,"x_max":725,"o":"m 275 -14 q 94 56 156 -14 q 33 236 33 125 q 77 436 33 336 q 203 601 121 536 q 394 667 286 667 q 508 628 467 667 q 540 590 529 610 l 547 590 l 607 653 l 725 653 l 635 139 l 611 0 l 493 0 l 454 63 l 447 63 q 403 24 431 42 q 275 -14 350 -14 m 314 49 q 367 60 343 49 q 415 93 390 72 q 454 139 436 111 l 521 514 q 497 558 513 539 q 411 604 463 604 q 301 533 344 604 q 237 365 257 461 q 217 200 217 269 q 314 49 217 49 m 343 743 q 294 760 311 743 q 278 804 278 778 q 305 870 278 842 q 371 899 332 899 q 419 881 403 899 q 436 835 436 864 q 408 771 436 799 q 343 743 381 743 m 593 743 q 544 760 561 743 q 528 804 528 778 q 555 870 528 842 q 621 899 582 899 q 669 881 653 899 q 686 835 686 864 q 658 771 686 799 q 593 743 631 743 z "},"ạ":{"ha":764,"x_min":33,"x_max":725,"o":"m 275 -14 q 94 56 156 -14 q 33 236 33 125 q 77 436 33 336 q 203 601 121 536 q 394 667 286 667 q 508 628 467 667 q 540 590 529 610 l 547 590 l 607 653 l 725 653 l 635 139 l 611 0 l 493 0 l 454 63 l 447 63 q 403 24 431 42 q 275 -14 350 -14 m 314 49 q 367 60 343 49 q 415 93 390 72 q 454 139 436 111 l 521 514 q 497 558 513 539 q 411 604 463 604 q 301 533 344 604 q 237 365 257 461 q 217 200 217 269 q 314 49 217 49 m 283 -233 q 240 -219 256 -233 q 225 -181 225 -206 q 248 -119 225 -144 q 308 -93 271 -93 q 367 -147 367 -93 q 343 -208 367 -182 q 283 -233 319 -233 z "},"à":{"ha":764,"x_min":33,"x_max":725,"o":"m 275 -14 q 94 56 156 -14 q 33 236 33 125 q 77 436 33 336 q 203 601 121 536 q 394 667 286 667 q 508 628 467 667 q 540 590 529 610 l 547 590 l 607 653 l 725 653 l 635 139 l 611 0 l 493 0 l 454 63 l 447 63 q 403 24 431 42 q 275 -14 350 -14 m 314 49 q 367 60 343 49 q 415 93 390 72 q 454 139 436 111 l 521 514 q 497 558 513 539 q 411 604 463 604 q 301 533 344 604 q 237 365 257 461 q 217 200 217 269 q 314 49 217 49 m 417 729 l 304 924 l 469 924 l 493 729 l 417 729 z "},"ả":{"ha":764,"x_min":33,"x_max":725,"o":"m 275 -14 q 94 56 156 -14 q 33 236 33 125 q 77 436 33 336 q 203 601 121 536 q 394 667 286 667 q 508 628 467 667 q 540 590 529 610 l 547 590 l 607 653 l 725 653 l 635 139 l 611 0 l 493 0 l 454 63 l 447 63 q 403 24 431 42 q 275 -14 350 -14 m 314 49 q 367 60 343 49 q 415 93 390 72 q 454 139 436 111 l 521 514 q 497 558 513 539 q 411 604 463 604 q 301 533 344 604 q 237 365 257 461 q 217 200 217 269 q 314 49 217 49 m 463 724 q 506 799 472 765 q 522 819 514 808 q 531 840 529 831 q 533 860 533 854 q 496 893 533 893 q 454 878 471 893 q 422 821 438 864 l 346 822 q 351 855 347 831 q 369 901 356 879 q 428 958 392 936 q 513 979 464 979 q 599 954 569 979 q 628 885 628 929 q 625 853 628 864 q 613 825 622 838 q 585 796 603 813 q 551 760 563 774 q 535 724 540 746 l 463 724 z "},"å":{"ha":764,"x_min":33,"x_max":725,"o":"m 275 -14 q 94 56 156 -14 q 33 236 33 125 q 77 436 33 336 q 203 601 121 536 q 394 667 286 667 q 508 628 467 667 q 540 590 529 610 l 547 590 l 607 653 l 725 653 l 635 139 l 611 0 l 493 0 l 454 63 l 447 63 q 403 24 431 42 q 275 -14 350 -14 m 314 49 q 367 60 343 49 q 415 93 390 72 q 454 139 436 111 l 521 514 q 497 558 513 539 q 411 604 463 604 q 301 533 344 604 q 237 365 257 461 q 217 200 217 269 q 314 49 217 49 m 460 722 q 379 751 410 722 q 349 828 349 781 q 369 905 349 868 q 427 964 390 942 q 507 986 464 986 q 588 957 557 986 q 618 881 618 928 q 597 803 618 840 q 540 744 576 767 q 460 722 503 722 m 471 785 q 525 810 503 785 q 547 869 547 835 q 533 909 547 894 q 496 924 519 924 q 442 899 464 924 q 419 839 419 874 q 433 799 419 814 q 471 785 447 785 z "},"ã":{"ha":764,"x_min":33,"x_max":725,"o":"m 275 -14 q 94 56 156 -14 q 33 236 33 125 q 77 436 33 336 q 203 601 121 536 q 394 667 286 667 q 508 628 467 667 q 540 590 529 610 l 547 590 l 607 653 l 725 653 l 635 139 l 611 0 l 493 0 l 454 63 l 447 63 q 403 24 431 42 q 275 -14 350 -14 m 314 49 q 367 60 343 49 q 415 93 390 72 q 454 139 436 111 l 521 514 q 497 558 513 539 q 411 604 463 604 q 301 533 344 604 q 237 365 257 461 q 217 200 217 269 q 314 49 217 49 m 303 744 q 347 853 318 822 q 422 883 376 883 q 461 875 446 883 q 496 850 476 867 q 519 833 510 839 q 540 828 529 828 q 579 844 563 828 q 599 883 596 861 l 654 883 q 610 775 639 806 q 536 744 582 744 q 496 753 513 744 q 461 778 479 763 q 449 787 458 781 q 433 797 440 793 q 417 800 425 800 q 378 783 394 800 q 358 744 363 767 l 303 744 z "},"æ":{"ha":1100,"x_min":0,"x_max":1071,"o":"m 221 -14 q 56 26 111 -14 q 0 135 0 65 q 124 316 0 268 q 419 364 247 364 l 440 364 q 450 464 450 413 q 424 570 450 536 q 343 604 397 604 q 249 578 289 604 q 182 479 210 551 l 106 479 q 127 562 115 531 q 165 618 139 593 q 246 655 192 643 q 354 667 300 667 q 497 633 440 667 q 575 540 554 600 q 688 635 625 603 q 819 667 751 667 q 1006 621 940 667 q 1071 494 1071 575 q 768 292 1071 292 l 622 292 l 621 288 q 613 201 613 240 q 732 49 613 49 q 849 78 799 49 q 950 164 899 108 l 988 132 q 869 28 936 69 q 700 -14 801 -14 q 486 111 547 -14 q 381 22 449 58 q 221 -14 313 -14 m 778 354 q 860 394 831 354 q 890 496 890 435 q 867 576 890 547 q 808 604 843 604 q 703 543 750 604 q 632 354 656 482 l 778 354 m 261 56 q 365 100 318 56 q 401 146 388 119 l 429 301 l 408 301 q 249 266 310 301 q 188 139 188 231 q 206 78 188 101 q 261 56 225 56 z "},"b":{"ha":764,"x_min":18,"x_max":708,"o":"m 349 -14 q 233 24 274 -14 q 201 63 211 42 l 194 63 l 136 0 l 18 0 q 125 613 96 442 q 154 799 154 783 q 136 856 154 838 q 75 875 118 875 l 61 875 l 68 917 l 235 917 q 314 896 290 917 q 338 824 338 875 q 308 625 338 785 q 351 646 321 632 q 461 667 408 667 q 647 598 585 667 q 708 413 708 529 q 665 212 708 311 q 541 49 622 113 q 349 -14 460 -14 m 332 49 q 444 119 400 49 q 506 285 488 190 q 525 451 525 379 q 501 565 525 526 q 422 604 478 604 q 333 583 381 604 l 297 563 l 222 139 q 246 93 231 114 q 332 49 279 49 z "},"c":{"ha":692,"x_min":35,"x_max":660,"o":"m 315 -14 q 106 59 176 -14 q 35 250 35 132 q 85 459 35 364 q 226 610 135 554 q 435 667 317 667 q 594 647 529 667 q 660 556 660 626 q 642 424 660 517 l 600 424 q 601 457 601 435 q 561 567 601 531 q 444 604 521 604 q 316 540 367 604 q 242 387 265 476 q 218 218 218 297 q 354 49 218 49 q 471 78 421 49 q 572 164 521 108 l 610 132 q 490 27 557 68 q 315 -14 422 -14 z "},"ç":{"ha":692,"x_min":35,"x_max":660,"o":"m 225 -197 l 281 -197 q 324 -183 307 -197 q 344 -146 342 -169 q 333 -117 344 -128 q 297 -107 321 -107 l 243 -107 l 260 -10 q 91 74 147 6 q 35 250 35 143 q 85 453 35 357 q 228 608 136 549 q 435 667 319 667 q 594 647 529 667 q 660 556 660 626 q 642 424 660 517 l 600 424 q 601 457 601 435 q 561 567 601 531 q 444 604 521 604 q 316 540 367 604 q 242 387 265 476 q 218 218 218 297 q 354 49 218 49 q 471 78 421 49 q 572 164 521 108 l 610 132 q 499 32 561 72 q 342 -12 438 -8 l 336 -44 q 411 -67 383 -44 q 439 -131 439 -90 q 398 -223 439 -185 q 297 -261 357 -261 l 214 -261 l 225 -197 z "},"d":{"ha":764,"x_min":35,"x_max":750,"o":"m 275 -14 q 96 56 157 -14 q 35 240 35 125 q 78 443 35 344 q 204 604 121 542 q 401 667 288 667 q 504 646 454 667 q 540 625 528 635 l 551 690 q 567 799 567 785 q 549 856 567 838 q 488 875 531 875 l 474 875 l 481 917 l 647 917 q 726 896 703 917 q 750 824 750 875 q 728 679 750 808 q 651 229 707 550 l 611 0 l 493 0 l 454 63 l 447 63 q 403 24 431 42 q 275 -14 350 -14 m 314 49 q 367 60 343 49 q 415 93 390 72 q 454 139 436 111 l 529 563 q 500 583 517 572 q 418 604 456 604 q 301 534 346 604 q 238 370 257 464 q 218 200 218 276 q 240 88 218 126 q 314 49 263 49 z "},"ð":{"ha":775,"x_min":33,"x_max":728,"o":"m 314 -14 q 104 59 175 -14 q 33 250 33 132 q 82 451 33 354 q 219 607 131 547 q 419 667 307 667 q 533 638 488 667 q 594 556 578 608 q 578 679 592 628 q 540 771 565 731 l 464 706 l 418 761 l 494 826 q 439 860 472 851 q 358 868 406 868 q 304 861 329 868 l 282 856 l 271 900 q 333 923 297 915 q 397 931 368 931 q 494 918 454 931 q 565 881 533 906 l 636 944 l 683 892 l 614 833 q 697 694 667 778 q 728 506 728 611 q 683 259 728 378 q 546 63 639 140 q 314 -14 453 -14 m 325 49 q 438 115 392 49 q 507 270 485 181 q 529 428 529 360 q 503 555 529 506 q 422 604 478 604 q 309 538 356 604 q 240 382 263 472 q 218 222 218 292 q 248 93 218 138 q 325 49 278 49 z "},"đ":{"ha":754,"x_min":35,"x_max":796,"o":"m 785 736 l 738 736 q 611 0 700 511 l 493 0 l 454 63 l 447 63 q 403 24 431 42 q 275 -14 350 -14 q 96 56 157 -14 q 35 240 35 125 q 78 443 35 344 q 204 604 121 542 q 401 667 288 667 q 504 646 454 667 q 540 625 528 635 l 558 736 l 369 736 l 381 799 l 567 799 q 549 856 567 838 q 488 875 531 875 l 474 875 l 481 917 l 647 917 q 726 896 703 917 q 750 824 750 875 q 747 799 750 813 l 796 799 l 785 736 m 529 563 q 500 583 517 572 q 418 604 456 604 q 301 534 346 604 q 238 370 257 464 q 218 200 218 276 q 240 88 218 126 q 314 49 263 49 q 367 60 343 49 q 415 93 390 72 q 454 139 436 111 l 529 563 z "},"e":{"ha":706,"x_min":35,"x_max":681,"o":"m 301 -14 q 106 60 176 -14 q 35 253 35 133 q 83 455 35 360 q 219 608 131 550 q 421 667 307 667 q 613 622 544 667 q 681 497 681 576 q 588 332 681 386 q 367 278 494 278 l 221 278 q 213 200 213 235 q 244 87 213 125 q 333 49 276 49 q 450 78 400 49 q 551 164 500 108 l 589 132 q 470 28 538 69 q 301 -14 403 -14 m 378 340 q 461 392 429 340 q 493 503 493 443 q 469 578 493 553 q 410 604 444 604 q 232 340 276 604 l 378 340 z "},"é":{"ha":706,"x_min":35,"x_max":681,"o":"m 301 -14 q 106 60 176 -14 q 35 253 35 133 q 83 455 35 360 q 219 608 131 550 q 421 667 307 667 q 613 622 544 667 q 681 497 681 576 q 588 332 681 386 q 367 278 494 278 l 221 278 q 213 200 213 235 q 244 87 213 125 q 333 49 276 49 q 450 78 400 49 q 551 164 500 108 l 589 132 q 470 28 538 69 q 301 -14 403 -14 m 378 340 q 461 392 429 340 q 493 503 493 443 q 469 578 493 553 q 410 604 444 604 q 232 340 276 604 l 378 340 m 381 731 l 474 925 l 639 925 l 457 731 l 381 731 z "},"ê":{"ha":706,"x_min":35,"x_max":681,"o":"m 301 -14 q 106 60 176 -14 q 35 253 35 133 q 83 455 35 360 q 219 608 131 550 q 421 667 307 667 q 613 622 544 667 q 681 497 681 576 q 588 332 681 386 q 367 278 494 278 l 221 278 q 213 200 213 235 q 244 87 213 125 q 333 49 276 49 q 450 78 400 49 q 551 164 500 108 l 589 132 q 470 28 538 69 q 301 -14 403 -14 m 378 340 q 461 392 429 340 q 493 503 493 443 q 469 578 493 553 q 410 604 444 604 q 232 340 276 604 l 378 340 m 239 731 l 381 904 l 561 904 l 642 731 l 558 731 l 460 842 l 322 731 l 239 731 z "},"ế":{"ha":706,"x_min":35,"x_max":894,"o":"m 301 -14 q 106 60 176 -14 q 35 253 35 133 q 83 455 35 360 q 219 608 131 550 q 421 667 307 667 q 613 622 544 667 q 681 497 681 576 q 588 332 681 386 q 367 278 494 278 l 221 278 q 213 200 213 235 q 244 87 213 125 q 333 49 276 49 q 450 78 400 49 q 551 164 500 108 l 589 132 q 470 28 538 69 q 301 -14 403 -14 m 378 340 q 461 392 429 340 q 493 503 493 443 q 469 578 493 553 q 410 604 444 604 q 232 340 276 604 l 378 340 m 244 722 l 386 896 l 567 896 l 647 722 l 550 722 l 465 833 l 342 722 l 244 722 m 636 811 l 729 1006 l 894 1006 l 713 811 l 636 811 z "},"ệ":{"ha":706,"x_min":35,"x_max":681,"o":"m 301 -14 q 106 60 176 -14 q 35 253 35 133 q 83 455 35 360 q 219 608 131 550 q 421 667 307 667 q 613 622 544 667 q 681 497 681 576 q 588 332 681 386 q 367 278 494 278 l 221 278 q 213 200 213 235 q 244 87 213 125 q 333 49 276 49 q 450 78 400 49 q 551 164 500 108 l 589 132 q 470 28 538 69 q 301 -14 403 -14 m 378 340 q 461 392 429 340 q 493 503 493 443 q 469 578 493 553 q 410 604 444 604 q 232 340 276 604 l 378 340 m 254 -233 q 211 -219 226 -233 q 196 -181 196 -206 q 219 -119 196 -144 q 279 -93 242 -93 q 338 -147 338 -93 q 314 -208 338 -182 q 254 -233 290 -233 m 244 722 l 386 896 l 567 896 l 647 722 l 550 722 l 465 833 l 342 722 l 244 722 z "},"ề":{"ha":706,"x_min":35,"x_max":771,"o":"m 301 -14 q 106 60 176 -14 q 35 253 35 133 q 83 455 35 360 q 219 608 131 550 q 421 667 307 667 q 613 622 544 667 q 681 497 681 576 q 588 332 681 386 q 367 278 494 278 l 221 278 q 213 200 213 235 q 244 87 213 125 q 333 49 276 49 q 450 78 400 49 q 551 164 500 108 l 589 132 q 470 28 538 69 q 301 -14 403 -14 m 378 340 q 461 392 429 340 q 493 503 493 443 q 469 578 493 553 q 410 604 444 604 q 232 340 276 604 l 378 340 m 244 722 l 386 896 l 567 896 l 647 722 l 550 722 l 465 833 l 342 722 l 244 722 m 694 839 l 582 1033 l 747 1033 l 771 839 l 694 839 z "},"ể":{"ha":706,"x_min":35,"x_max":821,"o":"m 301 -14 q 106 60 176 -14 q 35 253 35 133 q 83 455 35 360 q 219 608 131 550 q 421 667 307 667 q 613 622 544 667 q 681 497 681 576 q 588 332 681 386 q 367 278 494 278 l 221 278 q 213 200 213 235 q 244 87 213 125 q 333 49 276 49 q 450 78 400 49 q 551 164 500 108 l 589 132 q 470 28 538 69 q 301 -14 403 -14 m 378 340 q 461 392 429 340 q 493 503 493 443 q 469 578 493 553 q 410 604 444 604 q 232 340 276 604 l 378 340 m 244 722 l 386 896 l 567 896 l 647 722 l 550 722 l 465 833 l 342 722 l 244 722 m 656 853 q 699 928 665 894 q 715 949 707 938 q 724 969 722 960 q 726 989 726 983 q 689 1022 726 1022 q 647 1008 664 1022 q 615 950 631 993 l 539 951 q 544 984 540 960 q 563 1031 549 1008 q 621 1087 585 1065 q 706 1108 657 1108 q 792 1083 763 1108 q 821 1014 821 1058 q 818 982 821 993 q 806 954 815 967 q 778 925 796 942 q 744 889 756 903 q 728 853 733 875 l 656 853 z "},"ễ":{"ha":706,"x_min":35,"x_max":681,"o":"m 301 -14 q 106 60 176 -14 q 35 253 35 133 q 83 455 35 360 q 219 608 131 550 q 421 667 307 667 q 613 622 544 667 q 681 497 681 576 q 588 332 681 386 q 367 278 494 278 l 221 278 q 213 200 213 235 q 244 87 213 125 q 333 49 276 49 q 450 78 400 49 q 551 164 500 108 l 589 132 q 470 28 538 69 q 301 -14 403 -14 m 378 340 q 461 392 429 340 q 493 503 493 443 q 469 578 493 553 q 410 604 444 604 q 232 340 276 604 l 378 340 m 244 722 l 386 896 l 567 896 l 647 722 l 550 722 l 465 833 l 342 722 l 244 722 m 314 950 q 358 1058 329 1028 q 433 1089 388 1089 q 472 1081 457 1089 q 507 1056 488 1072 q 531 1039 521 1044 q 551 1033 540 1033 q 590 1050 574 1033 q 610 1089 607 1067 l 665 1089 q 622 981 650 1011 q 547 950 593 950 q 507 959 524 950 q 472 983 490 968 q 460 992 469 986 q 444 1002 451 999 q 428 1006 436 1006 q 390 989 406 1006 q 369 950 374 972 l 314 950 z "},"ë":{"ha":706,"x_min":35,"x_max":685,"o":"m 301 -14 q 106 60 176 -14 q 35 253 35 133 q 83 455 35 360 q 219 608 131 550 q 421 667 307 667 q 613 622 544 667 q 681 497 681 576 q 588 332 681 386 q 367 278 494 278 l 221 278 q 213 200 213 235 q 244 87 213 125 q 333 49 276 49 q 450 78 400 49 q 551 164 500 108 l 589 132 q 470 28 538 69 q 301 -14 403 -14 m 378 340 q 461 392 429 340 q 493 503 493 443 q 469 578 493 553 q 410 604 444 604 q 232 340 276 604 l 378 340 m 342 743 q 293 760 310 743 q 276 804 276 778 q 303 870 276 842 q 369 899 331 899 q 418 881 401 899 q 435 835 435 864 q 407 771 435 799 q 342 743 379 743 m 592 743 q 543 760 560 743 q 526 804 526 778 q 553 870 526 842 q 619 899 581 899 q 668 881 651 899 q 685 835 685 864 q 657 771 685 799 q 592 743 629 743 z "},"ẹ":{"ha":706,"x_min":35,"x_max":681,"o":"m 301 -14 q 106 60 176 -14 q 35 253 35 133 q 83 455 35 360 q 219 608 131 550 q 421 667 307 667 q 613 622 544 667 q 681 497 681 576 q 588 332 681 386 q 367 278 494 278 l 221 278 q 213 200 213 235 q 244 87 213 125 q 333 49 276 49 q 450 78 400 49 q 551 164 500 108 l 589 132 q 470 28 538 69 q 301 -14 403 -14 m 378 340 q 461 392 429 340 q 493 503 493 443 q 469 578 493 553 q 410 604 444 604 q 232 340 276 604 l 378 340 m 254 -233 q 211 -219 226 -233 q 196 -181 196 -206 q 219 -119 196 -144 q 279 -93 242 -93 q 338 -147 338 -93 q 314 -208 338 -182 q 254 -233 290 -233 z "},"è":{"ha":706,"x_min":35,"x_max":681,"o":"m 301 -14 q 106 60 176 -14 q 35 253 35 133 q 83 455 35 360 q 219 608 131 550 q 421 667 307 667 q 613 622 544 667 q 681 497 681 576 q 588 332 681 386 q 367 278 494 278 l 221 278 q 213 200 213 235 q 244 87 213 125 q 333 49 276 49 q 450 78 400 49 q 551 164 500 108 l 589 132 q 470 28 538 69 q 301 -14 403 -14 m 378 340 q 461 392 429 340 q 493 503 493 443 q 469 578 493 553 q 410 604 444 604 q 232 340 276 604 l 378 340 m 415 729 l 303 924 l 468 924 l 492 729 l 415 729 z "},"ẻ":{"ha":706,"x_min":35,"x_max":681,"o":"m 301 -14 q 106 60 176 -14 q 35 253 35 133 q 83 455 35 360 q 219 608 131 550 q 421 667 307 667 q 613 622 544 667 q 681 497 681 576 q 588 332 681 386 q 367 278 494 278 l 221 278 q 213 200 213 235 q 244 87 213 125 q 333 49 276 49 q 450 78 400 49 q 551 164 500 108 l 589 132 q 470 28 538 69 q 301 -14 403 -14 m 378 340 q 461 392 429 340 q 493 503 493 443 q 469 578 493 553 q 410 604 444 604 q 232 340 276 604 l 378 340 m 461 724 q 504 799 471 765 q 520 819 513 808 q 529 840 528 831 q 532 860 532 854 q 494 893 532 893 q 453 878 469 893 q 421 821 436 864 l 344 822 q 350 855 346 831 q 368 901 354 879 q 426 958 390 936 q 511 979 463 979 q 597 954 568 979 q 626 885 626 929 q 624 853 626 864 q 611 825 621 838 q 583 796 601 813 q 550 760 561 774 q 533 724 539 746 l 461 724 z "},"ẽ":{"ha":706,"x_min":35,"x_max":681,"o":"m 301 -14 q 106 60 176 -14 q 35 253 35 133 q 83 455 35 360 q 219 608 131 550 q 421 667 307 667 q 613 622 544 667 q 681 497 681 576 q 588 332 681 386 q 367 278 494 278 l 221 278 q 213 200 213 235 q 244 87 213 125 q 333 49 276 49 q 450 78 400 49 q 551 164 500 108 l 589 132 q 470 28 538 69 q 301 -14 403 -14 m 378 340 q 461 392 429 340 q 493 503 493 443 q 469 578 493 553 q 410 604 444 604 q 232 340 276 604 l 378 340 m 296 778 q 340 886 311 856 q 415 917 369 917 q 454 908 439 917 q 489 883 469 900 q 513 867 503 872 q 533 861 522 861 q 572 878 556 861 q 592 917 589 894 l 647 917 q 603 808 632 839 q 529 778 575 778 q 489 787 506 778 q 454 811 472 796 q 442 820 451 814 q 426 830 433 826 q 410 833 418 833 q 372 817 388 833 q 351 778 356 800 l 296 778 z "},"f":{"ha":479,"x_min":-133,"x_max":635,"o":"m -128 -229 q -22 -159 -61 -217 q 40 35 17 -101 l 138 590 l 54 590 l 65 653 l 149 653 l 156 690 q 255 869 176 808 q 469 931 333 931 q 541 924 507 931 q 592 907 575 918 q 635 847 625 885 l 571 799 q 528 850 554 832 q 465 868 501 868 q 385 828 417 868 q 336 690 353 788 l 329 653 l 510 653 l 499 590 l 318 590 l 221 35 q 161 -146 200 -82 q 53 -237 122 -210 q -133 -264 -17 -264 l -128 -229 z "},"g":{"ha":764,"x_min":4,"x_max":725,"o":"m 242 -278 q 87 -236 140 -278 q 4 -132 33 -194 l 53 -100 q 124 -185 86 -156 q 225 -215 163 -215 q 360 -151 304 -215 q 439 49 415 -86 l 440 56 q 397 35 421 43 q 286 14 346 14 q 100 79 163 14 q 38 257 38 144 q 81 452 38 357 q 204 607 124 547 q 394 667 285 667 q 508 628 467 667 q 540 590 529 610 l 547 590 l 607 653 l 725 653 l 619 49 q 494 -189 594 -100 q 242 -278 393 -278 m 325 76 q 414 97 372 76 q 450 118 435 107 l 521 514 q 497 558 513 539 q 411 604 463 604 q 300 538 343 604 q 239 381 257 471 q 221 219 221 292 q 245 113 221 150 q 325 76 269 76 z "},"ğ":{"ha":764,"x_min":4,"x_max":725,"o":"m 242 -278 q 87 -236 140 -278 q 4 -132 33 -194 l 53 -100 q 124 -185 86 -156 q 225 -215 163 -215 q 360 -151 304 -215 q 439 49 415 -86 l 440 56 q 397 35 421 43 q 286 14 346 14 q 100 79 163 14 q 38 257 38 144 q 81 452 38 357 q 204 607 124 547 q 394 667 285 667 q 508 628 467 667 q 540 590 529 610 l 547 590 l 607 653 l 725 653 l 619 49 q 494 -189 594 -100 q 242 -278 393 -278 m 325 76 q 414 97 372 76 q 450 118 435 107 l 521 514 q 497 558 513 539 q 411 604 463 604 q 300 538 343 604 q 239 381 257 471 q 221 219 221 292 q 245 113 221 150 q 325 76 269 76 m 429 736 q 318 772 363 736 q 257 867 274 807 l 301 896 q 356 847 319 867 q 446 826 392 826 q 542 846 500 826 q 615 896 585 865 l 649 867 q 553 772 611 807 q 429 736 496 736 z "},"h":{"ha":758,"x_min":17,"x_max":692,"o":"m 146 736 q 153 799 153 781 q 135 856 153 838 q 74 875 117 875 l 60 875 l 67 917 l 233 917 q 313 896 289 917 q 336 824 336 875 q 326 736 336 781 l 304 614 q 351 640 325 626 q 467 667 413 667 q 628 624 565 667 q 692 478 692 581 q 678 374 692 457 q 614 0 665 290 l 433 0 q 494 355 478 253 q 511 472 511 457 q 484 567 511 538 q 413 597 457 597 q 329 572 374 597 q 293 549 311 563 l 197 0 l 17 0 l 146 736 z "},"i":{"ha":376,"x_min":42,"x_max":356,"o":"m 264 728 q 199 751 221 728 q 176 811 176 775 q 202 881 176 851 q 268 911 228 911 q 333 888 311 911 q 356 828 356 864 q 333 756 356 783 q 264 728 310 728 m 128 472 q 135 535 135 517 q 117 592 135 574 q 56 611 99 611 l 42 611 l 49 653 l 215 653 q 294 632 271 653 q 318 560 318 611 q 308 472 318 533 l 226 0 l 46 0 l 128 472 z "},"ı":{"ha":376,"x_min":42,"x_max":318,"o":"m 113 393 q 135 535 135 519 q 117 592 135 574 q 56 611 99 611 l 42 611 l 49 653 l 215 653 q 294 632 271 653 q 318 560 318 611 q 303 444 318 539 q 226 0 288 349 l 46 0 l 113 393 z "},"í":{"ha":376,"x_min":42,"x_max":454,"o":"m 113 393 q 135 535 135 519 q 117 592 135 574 q 56 611 99 611 l 42 611 l 49 653 l 215 653 q 294 632 271 653 q 318 560 318 611 q 303 444 318 539 q 226 0 288 349 l 46 0 l 113 393 m 196 731 l 289 925 l 454 925 l 272 731 l 196 731 z "},"î":{"ha":376,"x_min":42,"x_max":454,"o":"m 113 393 q 135 535 135 519 q 117 592 135 574 q 56 611 99 611 l 42 611 l 49 653 l 215 653 q 294 632 271 653 q 318 560 318 611 q 303 444 318 539 q 226 0 288 349 l 46 0 l 113 393 m 51 739 l 193 913 l 374 913 l 454 739 l 371 739 l 272 850 l 135 739 l 51 739 z "},"ï":{"ha":376,"x_min":29,"x_max":438,"o":"m 113 393 q 135 535 135 519 q 117 592 135 574 q 56 611 99 611 l 42 611 l 49 653 l 215 653 q 294 632 271 653 q 318 560 318 611 q 303 444 318 539 q 226 0 288 349 l 46 0 l 113 393 m 94 743 q 46 760 63 743 q 29 804 29 778 q 56 870 29 842 q 122 899 83 899 q 171 881 154 899 q 188 835 188 864 q 160 771 188 799 q 94 743 132 743 m 344 743 q 296 760 313 743 q 279 804 279 778 q 306 870 279 842 q 372 899 333 899 q 421 881 404 899 q 438 835 438 864 q 410 771 438 799 q 344 743 382 743 z "},"ị":{"ha":376,"x_min":32,"x_max":356,"o":"m 264 728 q 199 751 221 728 q 176 811 176 775 q 202 881 176 851 q 268 911 228 911 q 333 888 311 911 q 356 828 356 864 q 333 756 356 783 q 264 728 310 728 m 128 472 q 135 535 135 517 q 117 592 135 574 q 56 611 99 611 l 42 611 l 49 653 l 215 653 q 294 632 271 653 q 318 560 318 611 q 308 472 318 533 l 226 0 l 46 0 l 128 472 m 90 -233 q 47 -219 63 -233 q 32 -181 32 -206 q 55 -119 32 -144 q 115 -93 78 -93 q 174 -147 174 -93 q 150 -208 174 -182 q 90 -233 126 -233 z "},"ì":{"ha":376,"x_min":42,"x_max":318,"o":"m 113 393 q 135 535 135 519 q 117 592 135 574 q 56 611 99 611 l 42 611 l 49 653 l 215 653 q 294 632 271 653 q 318 560 318 611 q 303 444 318 539 q 226 0 288 349 l 46 0 l 113 393 m 168 729 l 56 924 l 221 924 l 244 729 l 168 729 z "},"ỉ":{"ha":376,"x_min":42,"x_max":379,"o":"m 113 393 q 135 535 135 519 q 117 592 135 574 q 56 611 99 611 l 42 611 l 49 653 l 215 653 q 294 632 271 653 q 318 560 318 611 q 303 444 318 539 q 226 0 288 349 l 46 0 l 113 393 m 214 724 q 257 799 224 765 q 273 819 265 808 q 282 840 281 831 q 285 860 285 854 q 247 893 285 893 q 206 878 222 893 q 174 821 189 864 l 97 822 q 103 855 99 831 q 121 901 107 879 q 179 958 143 936 q 264 979 215 979 q 350 954 321 979 q 379 885 379 929 q 376 853 379 864 q 364 825 374 838 q 336 796 354 813 q 303 760 314 774 q 286 724 292 746 l 214 724 z "},"ĩ":{"ha":376,"x_min":42,"x_max":400,"o":"m 113 393 q 135 535 135 519 q 117 592 135 574 q 56 611 99 611 l 42 611 l 49 653 l 215 653 q 294 632 271 653 q 318 560 318 611 q 303 444 318 539 q 226 0 288 349 l 46 0 l 113 393 m 49 778 q 93 886 64 856 q 168 917 122 917 q 207 908 192 917 q 242 883 222 900 q 265 867 256 872 q 286 861 275 861 q 325 878 308 861 q 344 917 342 894 l 400 917 q 356 808 385 839 q 282 778 328 778 q 242 787 258 778 q 207 811 225 796 q 195 820 204 814 q 178 830 186 826 q 163 833 171 833 q 124 817 140 833 q 104 778 108 800 l 49 778 z "},"j":{"ha":375,"x_min":-122,"x_max":356,"o":"m 264 728 q 199 751 221 728 q 176 811 176 775 q 202 881 176 851 q 268 911 228 911 q 333 888 311 911 q 356 828 356 864 q 330 758 356 788 q 264 728 304 728 m -117 -229 q -11 -159 -50 -217 q 51 35 28 -101 l 117 417 q 135 535 135 521 q 117 592 135 574 q 56 611 99 611 l 42 611 l 49 653 l 215 653 q 294 632 271 653 q 318 560 318 611 q 303 449 318 540 q 232 35 289 357 q 172 -146 211 -82 q 64 -237 133 -210 q -122 -264 -6 -264 l -117 -229 z "},"k":{"ha":704,"x_min":18,"x_max":708,"o":"m 536 -14 q 428 12 475 -14 q 349 97 382 38 l 246 272 l 199 0 l 18 0 q 125 613 96 442 q 154 799 154 783 q 136 856 154 838 q 75 875 118 875 l 61 875 l 68 917 l 235 917 q 314 896 290 917 q 338 824 338 875 q 324 714 338 800 q 258 340 310 628 l 463 546 q 566 628 519 603 q 681 653 613 653 l 708 653 l 703 617 q 624 600 661 617 q 551 547 588 583 l 388 383 l 529 139 q 640 33 581 46 l 635 0 q 593 -10 624 -6 q 536 -14 563 -14 z "},"l":{"ha":363,"x_min":24,"x_max":343,"o":"m 24 0 q 131 613 101 442 q 160 799 160 783 q 142 856 160 838 q 81 875 124 875 l 67 875 l 74 917 l 240 917 q 319 896 296 917 q 343 824 343 875 q 322 679 343 808 q 244 229 300 550 l 204 0 l 24 0 z "},"m":{"ha":1149,"x_min":42,"x_max":1082,"o":"m 44 0 q 108 378 101 336 q 133 536 133 528 q 116 593 133 575 q 56 611 99 611 l 42 611 l 49 653 l 186 653 q 296 600 279 653 l 301 600 q 488 667 388 667 q 600 641 556 667 q 665 588 644 615 q 753 645 704 624 q 876 667 803 667 q 1082 483 1082 667 q 1069 380 1082 463 q 1003 0 1056 297 l 822 0 q 888 381 875 297 q 901 483 901 464 q 815 597 901 597 q 744 583 778 597 q 688 544 710 568 l 690 532 q 694 492 694 503 q 677 367 694 474 q 614 0 660 261 l 433 0 q 499 381 486 297 q 513 483 513 464 q 426 597 513 597 q 363 580 397 597 q 310 542 329 563 l 310 535 q 310 528 310 532 q 311 514 311 524 q 225 0 311 474 l 44 0 z "},"n":{"ha":801,"x_min":42,"x_max":735,"o":"m 126 472 q 133 538 133 517 q 116 592 133 574 q 56 611 99 611 l 42 611 l 49 653 l 186 653 q 258 641 233 653 q 294 601 283 629 q 508 667 371 667 q 678 622 622 667 q 735 483 735 578 q 728 411 735 456 l 656 0 l 475 0 l 547 413 q 553 476 553 440 q 447 597 553 597 q 369 585 404 597 q 313 554 335 574 q 314 526 314 544 q 310 481 314 501 l 225 0 l 44 0 l 126 472 z "},"ñ":{"ha":801,"x_min":42,"x_max":735,"o":"m 126 472 q 133 538 133 517 q 116 592 133 574 q 56 611 99 611 l 42 611 l 49 653 l 186 653 q 258 641 233 653 q 294 601 283 629 q 508 667 371 667 q 678 622 622 667 q 735 483 735 578 q 728 411 735 456 l 656 0 l 475 0 l 547 413 q 553 476 553 440 q 447 597 553 597 q 369 585 404 597 q 313 554 335 574 q 314 526 314 544 q 310 481 314 501 l 225 0 l 44 0 l 126 472 m 313 756 q 357 864 328 833 q 432 894 386 894 q 471 886 456 894 q 506 861 486 878 q 529 844 519 850 q 550 839 539 839 q 589 856 572 839 q 608 894 606 872 l 664 894 q 620 786 649 817 q 546 756 592 756 q 506 765 522 756 q 471 789 489 774 q 459 798 468 792 q 442 808 450 804 q 426 811 435 811 q 388 794 404 811 q 368 756 372 778 l 313 756 z "},"o":{"ha":768,"x_min":33,"x_max":714,"o":"m 314 -14 q 107 60 181 -14 q 33 256 33 135 q 85 455 33 360 q 229 608 138 550 q 433 667 321 667 q 640 592 567 667 q 714 397 714 518 q 662 198 714 293 q 518 44 610 103 q 314 -14 426 -14 m 325 49 q 440 115 394 49 q 508 272 486 181 q 529 435 529 363 q 503 560 529 515 q 422 604 476 604 q 307 538 353 604 q 240 381 261 472 q 218 218 218 290 q 244 93 218 138 q 325 49 271 49 z "},"ó":{"ha":768,"x_min":33,"x_max":714,"o":"m 314 -14 q 107 60 181 -14 q 33 256 33 135 q 85 455 33 360 q 229 608 138 550 q 433 667 321 667 q 640 592 567 667 q 714 397 714 518 q 662 198 714 293 q 518 44 610 103 q 314 -14 426 -14 m 325 49 q 440 115 394 49 q 508 272 486 181 q 529 435 529 363 q 503 560 529 515 q 422 604 476 604 q 307 538 353 604 q 240 381 261 472 q 218 218 218 290 q 244 93 218 138 q 325 49 271 49 m 385 731 l 478 925 l 643 925 l 461 731 l 385 731 z "},"ô":{"ha":768,"x_min":33,"x_max":714,"o":"m 314 -14 q 107 60 181 -14 q 33 256 33 135 q 85 455 33 360 q 229 608 138 550 q 433 667 321 667 q 640 592 567 667 q 714 397 714 518 q 662 198 714 293 q 518 44 610 103 q 314 -14 426 -14 m 325 49 q 440 115 394 49 q 508 272 486 181 q 529 435 529 363 q 503 560 529 515 q 422 604 476 604 q 307 538 353 604 q 240 381 261 472 q 218 218 218 290 q 244 93 218 138 q 325 49 271 49 m 243 731 l 385 904 l 565 904 l 646 731 l 563 731 l 464 842 l 326 731 l 243 731 z "},"ố":{"ha":768,"x_min":33,"x_max":885,"o":"m 314 -14 q 107 60 181 -14 q 33 256 33 135 q 85 455 33 360 q 229 608 138 550 q 433 667 321 667 q 640 592 567 667 q 714 397 714 518 q 662 198 714 293 q 518 44 610 103 q 314 -14 426 -14 m 325 49 q 440 115 394 49 q 508 272 486 181 q 529 435 529 363 q 503 560 529 515 q 422 604 476 604 q 307 538 353 604 q 240 381 261 472 q 218 218 218 290 q 244 93 218 138 q 325 49 271 49 m 235 722 l 376 896 l 557 896 l 638 722 l 540 722 l 456 833 l 332 722 l 235 722 m 626 811 l 719 1006 l 885 1006 l 703 811 l 626 811 z "},"ộ":{"ha":768,"x_min":33,"x_max":714,"o":"m 314 -14 q 107 60 181 -14 q 33 256 33 135 q 85 455 33 360 q 229 608 138 550 q 433 667 321 667 q 640 592 567 667 q 714 397 714 518 q 662 198 714 293 q 518 44 610 103 q 314 -14 426 -14 m 325 49 q 440 115 394 49 q 508 272 486 181 q 529 435 529 363 q 503 560 529 515 q 422 604 476 604 q 307 538 353 604 q 240 381 261 472 q 218 218 218 290 q 244 93 218 138 q 325 49 271 49 m 286 -233 q 243 -219 258 -233 q 228 -181 228 -206 q 251 -119 228 -144 q 311 -93 274 -93 q 369 -147 369 -93 q 346 -208 369 -182 q 286 -233 322 -233 m 235 722 l 376 896 l 557 896 l 638 722 l 540 722 l 456 833 l 332 722 l 235 722 z "},"ồ":{"ha":768,"x_min":33,"x_max":761,"o":"m 314 -14 q 107 60 181 -14 q 33 256 33 135 q 85 455 33 360 q 229 608 138 550 q 433 667 321 667 q 640 592 567 667 q 714 397 714 518 q 662 198 714 293 q 518 44 610 103 q 314 -14 426 -14 m 325 49 q 440 115 394 49 q 508 272 486 181 q 529 435 529 363 q 503 560 529 515 q 422 604 476 604 q 307 538 353 604 q 240 381 261 472 q 218 218 218 290 q 244 93 218 138 q 325 49 271 49 m 235 722 l 376 896 l 557 896 l 638 722 l 540 722 l 456 833 l 332 722 l 235 722 m 685 839 l 572 1033 l 738 1033 l 761 839 l 685 839 z "},"ổ":{"ha":768,"x_min":33,"x_max":811,"o":"m 314 -14 q 107 60 181 -14 q 33 256 33 135 q 85 455 33 360 q 229 608 138 550 q 433 667 321 667 q 640 592 567 667 q 714 397 714 518 q 662 198 714 293 q 518 44 610 103 q 314 -14 426 -14 m 325 49 q 440 115 394 49 q 508 272 486 181 q 529 435 529 363 q 503 560 529 515 q 422 604 476 604 q 307 538 353 604 q 240 381 261 472 q 218 218 218 290 q 244 93 218 138 q 325 49 271 49 m 235 722 l 376 896 l 557 896 l 638 722 l 540 722 l 456 833 l 332 722 l 235 722 m 646 853 q 689 928 656 894 q 705 949 697 938 q 714 969 713 960 q 717 989 717 983 q 679 1022 717 1022 q 638 1008 654 1022 q 606 950 621 993 l 529 951 q 535 984 531 960 q 553 1031 539 1008 q 611 1087 575 1065 q 696 1108 647 1108 q 782 1083 753 1108 q 811 1014 811 1058 q 808 982 811 993 q 796 954 806 967 q 768 925 786 942 q 735 889 746 903 q 718 853 724 875 l 646 853 z "},"ỗ":{"ha":768,"x_min":33,"x_max":714,"o":"m 314 -14 q 107 60 181 -14 q 33 256 33 135 q 85 455 33 360 q 229 608 138 550 q 433 667 321 667 q 640 592 567 667 q 714 397 714 518 q 662 198 714 293 q 518 44 610 103 q 314 -14 426 -14 m 325 49 q 440 115 394 49 q 508 272 486 181 q 529 435 529 363 q 503 560 529 515 q 422 604 476 604 q 307 538 353 604 q 240 381 261 472 q 218 218 218 290 q 244 93 218 138 q 325 49 271 49 m 235 722 l 376 896 l 557 896 l 638 722 l 540 722 l 456 833 l 332 722 l 235 722 m 304 950 q 349 1058 319 1028 q 424 1089 378 1089 q 463 1081 447 1089 q 497 1056 478 1072 q 521 1039 511 1044 q 542 1033 531 1033 q 581 1050 564 1033 q 600 1089 597 1067 l 656 1089 q 612 981 640 1011 q 538 950 583 950 q 497 959 514 950 q 463 983 481 968 q 451 992 460 986 q 434 1002 442 999 q 418 1006 426 1006 q 380 989 396 1006 q 360 950 364 972 l 304 950 z "},"ö":{"ha":768,"x_min":33,"x_max":736,"o":"m 314 -14 q 107 60 181 -14 q 33 256 33 135 q 85 455 33 360 q 229 608 138 550 q 433 667 321 667 q 640 592 567 667 q 714 397 714 518 q 662 198 714 293 q 518 44 610 103 q 314 -14 426 -14 m 325 49 q 440 115 394 49 q 508 272 486 181 q 529 435 529 363 q 503 560 529 515 q 422 604 476 604 q 307 538 353 604 q 240 381 261 472 q 218 218 218 290 q 244 93 218 138 q 325 49 271 49 m 393 743 q 344 760 361 743 q 328 804 328 778 q 355 870 328 842 q 421 899 382 899 q 469 881 453 899 q 486 835 486 864 q 458 771 486 799 q 393 743 431 743 m 643 743 q 594 760 611 743 q 578 804 578 778 q 605 870 578 842 q 671 899 632 899 q 719 881 703 899 q 736 835 736 864 q 708 771 736 799 q 643 743 681 743 z "},"ọ":{"ha":768,"x_min":33,"x_max":714,"o":"m 314 -14 q 107 60 181 -14 q 33 256 33 135 q 85 455 33 360 q 229 608 138 550 q 433 667 321 667 q 640 592 567 667 q 714 397 714 518 q 662 198 714 293 q 518 44 610 103 q 314 -14 426 -14 m 325 49 q 440 115 394 49 q 508 272 486 181 q 529 435 529 363 q 503 560 529 515 q 422 604 476 604 q 307 538 353 604 q 240 381 261 472 q 218 218 218 290 q 244 93 218 138 q 325 49 271 49 m 286 -233 q 243 -219 258 -233 q 228 -181 228 -206 q 251 -119 228 -144 q 311 -93 274 -93 q 369 -147 369 -93 q 346 -208 369 -182 q 286 -233 322 -233 z "},"ò":{"ha":768,"x_min":33,"x_max":714,"o":"m 314 -14 q 107 60 181 -14 q 33 256 33 135 q 85 455 33 360 q 229 608 138 550 q 433 667 321 667 q 640 592 567 667 q 714 397 714 518 q 662 198 714 293 q 518 44 610 103 q 314 -14 426 -14 m 325 49 q 440 115 394 49 q 508 272 486 181 q 529 435 529 363 q 503 560 529 515 q 422 604 476 604 q 307 538 353 604 q 240 381 261 472 q 218 218 218 290 q 244 93 218 138 q 325 49 271 49 m 488 729 l 375 924 l 540 924 l 564 729 l 488 729 z "},"ỏ":{"ha":768,"x_min":33,"x_max":714,"o":"m 314 -14 q 107 60 181 -14 q 33 256 33 135 q 85 455 33 360 q 229 608 138 550 q 433 667 321 667 q 640 592 567 667 q 714 397 714 518 q 662 198 714 293 q 518 44 610 103 q 314 -14 426 -14 m 325 49 q 440 115 394 49 q 508 272 486 181 q 529 435 529 363 q 503 560 529 515 q 422 604 476 604 q 307 538 353 604 q 240 381 261 472 q 218 218 218 290 q 244 93 218 138 q 325 49 271 49 m 451 724 q 494 799 461 765 q 510 819 503 808 q 519 840 518 831 q 522 860 522 854 q 485 893 522 893 q 443 878 460 893 q 411 821 426 864 l 335 822 q 340 855 336 831 q 358 901 344 879 q 417 958 381 936 q 501 979 453 979 q 588 954 558 979 q 617 885 617 929 q 614 853 617 864 q 601 825 611 838 q 574 796 592 813 q 540 760 551 774 q 524 724 529 746 l 451 724 z "},"ơ":{"ha":768,"x_min":33,"x_max":797,"o":"m 797 796 q 740 686 786 738 q 621 610 694 635 q 690 519 667 574 q 714 397 714 464 q 662 198 714 293 q 518 44 610 103 q 314 -14 426 -14 q 107 60 181 -14 q 33 256 33 135 q 85 455 33 360 q 229 608 138 550 q 433 667 321 667 q 538 653 486 667 q 638 700 600 658 q 686 796 676 742 l 797 796 m 325 49 q 440 115 394 49 q 508 272 486 181 q 529 435 529 363 q 503 560 529 515 q 422 604 476 604 q 307 538 353 604 q 240 381 261 472 q 218 218 218 290 q 244 93 218 138 q 325 49 271 49 z "},"ớ":{"ha":768,"x_min":33,"x_max":797,"o":"m 797 796 q 740 686 786 738 q 621 610 694 635 q 690 519 667 574 q 714 397 714 464 q 662 198 714 293 q 518 44 610 103 q 314 -14 426 -14 q 107 60 181 -14 q 33 256 33 135 q 85 455 33 360 q 229 608 138 550 q 433 667 321 667 q 538 653 486 667 q 638 700 600 658 q 686 796 676 742 l 797 796 m 325 49 q 440 115 394 49 q 508 272 486 181 q 529 435 529 363 q 503 560 529 515 q 422 604 476 604 q 307 538 353 604 q 240 381 261 472 q 218 218 218 290 q 244 93 218 138 q 325 49 271 49 m 410 729 l 503 924 l 668 924 l 486 729 l 410 729 z "},"ợ":{"ha":768,"x_min":33,"x_max":797,"o":"m 797 796 q 740 686 786 738 q 621 610 694 635 q 690 519 667 574 q 714 397 714 464 q 662 198 714 293 q 518 44 610 103 q 314 -14 426 -14 q 107 60 181 -14 q 33 256 33 135 q 85 455 33 360 q 229 608 138 550 q 433 667 321 667 q 538 653 486 667 q 638 700 600 658 q 686 796 676 742 l 797 796 m 325 49 q 440 115 394 49 q 508 272 486 181 q 529 435 529 363 q 503 560 529 515 q 422 604 476 604 q 307 538 353 604 q 240 381 261 472 q 218 218 218 290 q 244 93 218 138 q 325 49 271 49 m 286 -233 q 243 -219 258 -233 q 228 -181 228 -206 q 251 -119 228 -144 q 311 -93 274 -93 q 369 -147 369 -93 q 346 -208 369 -182 q 286 -233 322 -233 z "},"ờ":{"ha":768,"x_min":33,"x_max":797,"o":"m 797 796 q 740 686 786 738 q 621 610 694 635 q 690 519 667 574 q 714 397 714 464 q 662 198 714 293 q 518 44 610 103 q 314 -14 426 -14 q 107 60 181 -14 q 33 256 33 135 q 85 455 33 360 q 229 608 138 550 q 433 667 321 667 q 538 653 486 667 q 638 700 600 658 q 686 796 676 742 l 797 796 m 325 49 q 440 115 394 49 q 508 272 486 181 q 529 435 529 363 q 503 560 529 515 q 422 604 476 604 q 307 538 353 604 q 240 381 261 472 q 218 218 218 290 q 244 93 218 138 q 325 49 271 49 m 406 729 l 293 924 l 458 924 l 482 729 l 406 729 z "},"ở":{"ha":768,"x_min":33,"x_max":797,"o":"m 797 796 q 740 686 786 738 q 621 610 694 635 q 690 519 667 574 q 714 397 714 464 q 662 198 714 293 q 518 44 610 103 q 314 -14 426 -14 q 107 60 181 -14 q 33 256 33 135 q 85 455 33 360 q 229 608 138 550 q 433 667 321 667 q 538 653 486 667 q 638 700 600 658 q 686 796 676 742 l 797 796 m 325 49 q 440 115 394 49 q 508 272 486 181 q 529 435 529 363 q 503 560 529 515 q 422 604 476 604 q 307 538 353 604 q 240 381 261 472 q 218 218 218 290 q 244 93 218 138 q 325 49 271 49 m 451 724 q 494 799 461 765 q 510 819 503 808 q 519 840 518 831 q 522 860 522 854 q 485 893 522 893 q 443 878 460 893 q 411 821 426 864 l 335 822 q 340 855 336 831 q 358 901 344 879 q 417 958 381 936 q 501 979 453 979 q 588 954 558 979 q 617 885 617 929 q 614 853 617 864 q 601 825 611 838 q 574 796 592 813 q 540 760 551 774 q 524 724 529 746 l 451 724 z "},"ỡ":{"ha":768,"x_min":33,"x_max":797,"o":"m 797 796 q 740 686 786 738 q 621 610 694 635 q 690 519 667 574 q 714 397 714 464 q 662 198 714 293 q 518 44 610 103 q 314 -14 426 -14 q 107 60 181 -14 q 33 256 33 135 q 85 455 33 360 q 229 608 138 550 q 433 667 321 667 q 538 653 486 667 q 638 700 600 658 q 686 796 676 742 l 797 796 m 325 49 q 440 115 394 49 q 508 272 486 181 q 529 435 529 363 q 503 560 529 515 q 422 604 476 604 q 307 538 353 604 q 240 381 261 472 q 218 218 218 290 q 244 93 218 138 q 325 49 271 49 m 286 778 q 331 886 301 856 q 406 917 360 917 q 444 908 429 917 q 479 883 460 900 q 503 867 493 872 q 524 861 513 861 q 563 878 546 861 q 582 917 579 894 l 638 917 q 594 808 622 839 q 519 778 565 778 q 479 787 496 778 q 444 811 463 796 q 433 820 442 814 q 416 830 424 826 q 400 833 408 833 q 362 817 378 833 q 342 778 346 800 l 286 778 z "},"ø":{"ha":768,"x_min":11,"x_max":736,"o":"m 314 -14 q 158 22 228 -14 l 139 0 l 11 0 l 86 83 q 33 256 33 153 q 85 455 33 360 q 229 608 138 550 q 433 667 321 667 q 589 631 519 667 l 608 653 l 736 653 l 660 569 q 714 397 714 499 q 662 198 714 293 q 518 44 610 103 q 314 -14 426 -14 m 510 544 q 422 604 481 604 q 308 539 353 604 q 241 385 263 474 q 217 225 219 297 l 510 544 m 325 49 q 440 113 394 49 q 506 265 485 176 q 529 426 526 353 l 236 107 q 325 49 263 49 z "},"õ":{"ha":768,"x_min":33,"x_max":714,"o":"m 314 -14 q 107 60 181 -14 q 33 256 33 135 q 85 455 33 360 q 229 608 138 550 q 433 667 321 667 q 640 592 567 667 q 714 397 714 518 q 662 198 714 293 q 518 44 610 103 q 314 -14 426 -14 m 325 49 q 440 115 394 49 q 508 272 486 181 q 529 435 529 363 q 503 560 529 515 q 422 604 476 604 q 307 538 353 604 q 240 381 261 472 q 218 218 218 290 q 244 93 218 138 q 325 49 271 49 m 282 744 q 326 853 297 822 q 401 883 356 883 q 440 875 425 883 q 475 850 456 867 q 499 833 489 839 q 519 828 508 828 q 558 844 542 828 q 578 883 575 861 l 633 883 q 590 775 618 806 q 515 744 561 744 q 475 753 492 744 q 440 778 458 763 q 428 787 438 781 q 412 797 419 793 q 396 800 404 800 q 358 783 374 800 q 338 744 342 767 l 282 744 z "},"œ":{"ha":1178,"x_min":33,"x_max":1150,"o":"m 314 -14 q 107 60 181 -14 q 33 256 33 135 q 85 455 33 360 q 229 608 138 550 q 433 667 321 667 q 651 579 572 667 q 885 667 750 667 q 1082 621 1014 667 q 1150 494 1150 575 q 847 292 1150 292 l 701 292 q 693 201 693 261 q 811 49 693 49 q 928 78 878 49 q 1029 164 978 108 l 1067 132 q 948 28 1015 69 q 779 -14 881 -14 q 567 78 638 -14 q 314 -14 460 -14 m 325 49 q 440 115 394 49 q 508 272 486 181 q 529 435 529 363 q 503 560 529 515 q 422 604 476 604 q 307 538 353 604 q 240 381 261 472 q 218 218 218 290 q 244 93 218 138 q 325 49 271 49 m 857 354 q 940 394 910 354 q 969 496 969 435 q 946 576 969 547 q 888 604 922 604 q 782 543 829 604 q 711 354 735 482 l 857 354 z "},"p":{"ha":790,"x_min":-3,"x_max":735,"o":"m -3 -264 q 104 350 75 179 q 133 536 133 521 q 116 593 133 575 q 56 611 99 611 l 42 611 l 49 653 l 186 653 q 260 640 235 653 q 293 594 285 626 q 494 667 382 667 q 674 597 613 667 q 735 413 735 528 q 689 205 735 303 q 560 47 643 107 q 368 -14 476 -14 q 265 7 310 -14 q 229 28 243 15 l 178 -264 l -3 -264 m 351 49 q 468 121 424 49 q 532 288 513 193 q 551 453 551 382 q 529 565 551 526 q 456 604 507 604 q 311 547 378 604 l 311 540 l 313 521 q 240 90 313 496 q 269 69 253 78 q 351 49 308 49 z "},"þ":{"ha":756,"x_min":-29,"x_max":701,"o":"m -29 -264 q 154 799 154 758 q 136 856 154 838 q 75 875 118 875 l 61 875 l 68 917 l 235 917 q 314 896 290 917 q 338 824 338 875 q 307 618 338 794 q 474 667 376 667 q 644 602 588 667 q 701 425 701 538 q 660 217 701 318 q 538 51 619 115 q 340 -14 456 -14 q 200 14 263 -14 l 151 -264 l -29 -264 m 303 49 q 423 115 375 49 q 493 272 471 181 q 515 436 515 363 q 489 560 515 517 q 414 604 463 604 q 297 563 354 604 l 210 69 q 303 49 263 49 z "},"q":{"ha":763,"x_min":33,"x_max":724,"o":"m 433 28 q 390 7 417 17 q 281 -14 340 -14 q 95 55 157 -14 q 33 240 33 124 q 76 441 33 342 q 201 603 119 540 q 393 667 282 667 q 507 628 465 667 q 539 590 528 610 l 546 590 l 606 653 l 724 653 l 563 -264 l 382 -264 l 433 28 m 319 49 q 408 69 367 49 q 444 90 429 79 l 519 514 q 496 558 511 539 q 410 604 461 604 q 298 533 342 604 q 235 368 254 463 q 217 201 217 274 q 240 88 217 126 q 319 49 264 49 z "},"r":{"ha":583,"x_min":42,"x_max":611,"o":"m 575 639 q 601 603 590 625 q 611 576 611 581 l 531 522 q 511 549 525 535 q 444 576 483 576 q 313 533 363 576 q 311 513 311 526 q 310 492 311 506 q 307 467 310 478 l 225 0 l 44 0 q 108 378 101 336 q 133 536 133 528 q 116 593 133 575 q 56 611 99 611 l 42 611 l 49 653 l 186 653 q 258 641 233 653 q 294 601 283 629 q 481 667 382 667 q 575 639 540 667 z "},"s":{"ha":651,"x_min":18,"x_max":599,"o":"m 249 -14 q 87 8 156 -14 q 18 104 18 31 q 31 208 18 139 l 79 208 l 79 204 q 117 91 79 133 q 232 49 154 49 q 340 74 292 49 q 389 154 389 99 q 362 208 389 186 q 282 256 335 231 l 215 286 q 106 360 143 321 q 69 451 69 399 q 113 571 69 522 q 226 643 157 619 q 368 667 294 667 q 530 644 461 667 q 599 549 599 622 q 586 444 599 514 l 538 444 l 538 449 q 500 562 538 519 q 385 604 463 604 q 290 576 332 604 q 249 494 249 547 q 269 445 249 465 q 331 407 289 425 l 408 372 q 530 298 492 336 q 568 204 568 260 q 521 81 568 131 q 400 9 474 32 q 249 -14 326 -14 z "},"š":{"ha":651,"x_min":18,"x_max":601,"o":"m 249 -14 q 87 8 156 -14 q 18 104 18 31 q 31 208 18 139 l 79 208 l 79 204 q 117 91 79 133 q 232 49 154 49 q 340 74 292 49 q 389 154 389 99 q 362 208 389 186 q 282 256 335 231 l 215 286 q 106 360 143 321 q 69 451 69 399 q 113 571 69 522 q 226 643 157 619 q 368 667 294 667 q 530 644 461 667 q 599 549 599 622 q 586 444 599 514 l 538 444 l 538 449 q 500 562 538 519 q 385 604 463 604 q 290 576 332 604 q 249 494 249 547 q 269 445 249 465 q 331 407 289 425 l 408 372 q 530 298 492 336 q 568 204 568 260 q 521 81 568 131 q 400 9 474 32 q 249 -14 326 -14 m 279 722 l 199 896 l 296 896 l 381 785 l 504 896 l 601 896 l 460 722 l 279 722 z "},"ş":{"ha":653,"x_min":19,"x_max":600,"o":"m 158 -194 l 228 -194 q 272 -180 251 -194 q 292 -142 292 -165 q 279 -115 292 -125 q 243 -104 267 -104 l 181 -104 l 197 -11 q 72 17 124 -7 q 19 104 19 42 q 32 208 19 139 l 81 208 l 81 204 q 118 91 81 133 q 233 49 156 49 q 342 74 293 49 q 390 154 390 99 q 363 208 390 186 q 283 256 336 231 l 217 286 q 108 360 144 321 q 71 451 71 399 q 115 571 71 522 q 227 643 158 619 q 369 667 296 667 q 531 644 463 667 q 600 549 600 622 q 588 444 600 514 l 539 444 l 539 449 q 501 562 539 519 q 386 604 464 604 q 292 576 333 604 q 250 494 250 547 q 270 445 250 465 q 332 407 290 425 l 410 372 q 531 298 493 336 q 569 204 569 260 q 486 51 569 106 q 288 -12 403 -3 l 282 -42 q 362 -65 333 -42 q 390 -128 390 -87 q 348 -222 390 -185 q 244 -258 306 -258 l 147 -258 l 158 -194 z "},"ß":{"ha":797,"x_min":17,"x_max":736,"o":"m 458 -14 q 331 14 386 -14 q 275 107 275 42 q 282 167 275 139 l 324 167 l 324 161 q 354 82 324 115 q 442 49 385 49 q 522 80 488 49 q 556 161 556 111 q 531 230 556 201 q 456 293 506 258 q 370 370 399 336 q 342 456 342 404 q 367 544 342 507 q 444 628 393 581 q 517 708 493 674 q 542 790 542 743 q 520 848 542 828 q 461 868 499 868 q 319 694 350 868 l 197 0 l 17 0 l 139 694 q 249 881 163 831 q 479 931 335 931 q 660 899 601 931 q 719 811 719 868 q 686 708 719 749 q 590 619 653 667 q 518 556 542 583 q 494 494 494 529 q 522 426 494 454 q 607 361 550 399 q 703 283 671 318 q 736 194 736 249 q 695 82 736 129 q 590 10 654 35 q 458 -14 525 -14 z "},"t":{"ha":493,"x_min":67,"x_max":494,"o":"m 246 -14 q 119 24 163 -14 q 75 138 75 63 q 91 247 75 149 q 150 590 107 344 l 67 590 l 78 653 l 161 653 l 183 778 l 268 861 l 379 861 l 342 653 l 494 653 l 483 590 l 331 590 q 251 119 251 147 q 266 65 251 81 q 308 49 281 49 q 389 67 350 49 q 424 86 401 72 l 436 47 q 388 17 419 33 q 246 -14 324 -14 z "},"u":{"ha":788,"x_min":26,"x_max":749,"o":"m 285 -14 q 119 28 172 -14 q 65 165 65 71 q 76 251 65 185 q 113 472 86 318 q 119 535 119 517 q 101 592 119 574 q 40 611 83 611 l 26 611 l 33 653 l 200 653 q 279 632 256 653 q 303 560 303 611 q 293 472 303 517 q 256 245 267 315 q 244 158 244 175 q 267 74 244 99 q 338 49 290 49 q 390 60 367 49 q 439 93 414 72 q 478 139 460 111 l 568 653 l 749 653 l 635 0 l 517 0 l 478 63 l 471 63 q 419 24 451 43 q 285 -14 360 -14 z "},"ú":{"ha":788,"x_min":26,"x_max":749,"o":"m 285 -14 q 119 28 172 -14 q 65 165 65 71 q 76 251 65 185 q 113 472 86 318 q 119 535 119 517 q 101 592 119 574 q 40 611 83 611 l 26 611 l 33 653 l 200 653 q 279 632 256 653 q 303 560 303 611 q 293 472 303 517 q 256 245 267 315 q 244 158 244 175 q 267 74 244 99 q 338 49 290 49 q 390 60 367 49 q 439 93 414 72 q 478 139 460 111 l 568 653 l 749 653 l 635 0 l 517 0 l 478 63 l 471 63 q 419 24 451 43 q 285 -14 360 -14 m 396 694 l 489 889 l 654 889 l 472 694 l 396 694 z "},"û":{"ha":788,"x_min":26,"x_max":749,"o":"m 285 -14 q 119 28 172 -14 q 65 165 65 71 q 76 251 65 185 q 113 472 86 318 q 119 535 119 517 q 101 592 119 574 q 40 611 83 611 l 26 611 l 33 653 l 200 653 q 279 632 256 653 q 303 560 303 611 q 293 472 303 517 q 256 245 267 315 q 244 158 244 175 q 267 74 244 99 q 338 49 290 49 q 390 60 367 49 q 439 93 414 72 q 478 139 460 111 l 568 653 l 749 653 l 635 0 l 517 0 l 478 63 l 471 63 q 419 24 451 43 q 285 -14 360 -14 m 242 731 l 383 904 l 564 904 l 644 731 l 561 731 l 463 842 l 325 731 l 242 731 z "},"ü":{"ha":788,"x_min":26,"x_max":749,"o":"m 285 -14 q 119 28 172 -14 q 65 165 65 71 q 76 251 65 185 q 113 472 86 318 q 119 535 119 517 q 101 592 119 574 q 40 611 83 611 l 26 611 l 33 653 l 200 653 q 279 632 256 653 q 303 560 303 611 q 293 472 303 517 q 256 245 267 315 q 244 158 244 175 q 267 74 244 99 q 338 49 290 49 q 390 60 367 49 q 439 93 414 72 q 478 139 460 111 l 568 653 l 749 653 l 635 0 l 517 0 l 478 63 l 471 63 q 419 24 451 43 q 285 -14 360 -14 m 342 743 q 293 760 310 743 q 276 804 276 778 q 303 870 276 842 q 369 899 331 899 q 418 881 401 899 q 435 835 435 864 q 407 771 435 799 q 342 743 379 743 m 592 743 q 543 760 560 743 q 526 804 526 778 q 553 870 526 842 q 619 899 581 899 q 668 881 651 899 q 685 835 685 864 q 657 771 685 799 q 592 743 629 743 z "},"ụ":{"ha":788,"x_min":26,"x_max":749,"o":"m 285 -14 q 119 28 172 -14 q 65 165 65 71 q 76 251 65 185 q 113 472 86 318 q 119 535 119 517 q 101 592 119 574 q 40 611 83 611 l 26 611 l 33 653 l 200 653 q 279 632 256 653 q 303 560 303 611 q 293 472 303 517 q 256 245 267 315 q 244 158 244 175 q 267 74 244 99 q 338 49 290 49 q 390 60 367 49 q 439 93 414 72 q 478 139 460 111 l 568 653 l 749 653 l 635 0 l 517 0 l 478 63 l 471 63 q 419 24 451 43 q 285 -14 360 -14 m 296 -233 q 253 -219 268 -233 q 238 -181 238 -206 q 260 -119 238 -144 q 321 -93 283 -93 q 379 -147 379 -93 q 356 -208 379 -182 q 296 -233 332 -233 z "},"ù":{"ha":788,"x_min":26,"x_max":749,"o":"m 285 -14 q 119 28 172 -14 q 65 165 65 71 q 76 251 65 185 q 113 472 86 318 q 119 535 119 517 q 101 592 119 574 q 40 611 83 611 l 26 611 l 33 653 l 200 653 q 279 632 256 653 q 303 560 303 611 q 293 472 303 517 q 256 245 267 315 q 244 158 244 175 q 267 74 244 99 q 338 49 290 49 q 390 60 367 49 q 439 93 414 72 q 478 139 460 111 l 568 653 l 749 653 l 635 0 l 517 0 l 478 63 l 471 63 q 419 24 451 43 q 285 -14 360 -14 m 415 729 l 303 924 l 468 924 l 492 729 l 415 729 z "},"ủ":{"ha":788,"x_min":26,"x_max":749,"o":"m 285 -14 q 119 28 172 -14 q 65 165 65 71 q 76 251 65 185 q 113 472 86 318 q 119 535 119 517 q 101 592 119 574 q 40 611 83 611 l 26 611 l 33 653 l 200 653 q 279 632 256 653 q 303 560 303 611 q 293 472 303 517 q 256 245 267 315 q 244 158 244 175 q 267 74 244 99 q 338 49 290 49 q 390 60 367 49 q 439 93 414 72 q 478 139 460 111 l 568 653 l 749 653 l 635 0 l 517 0 l 478 63 l 471 63 q 419 24 451 43 q 285 -14 360 -14 m 461 724 q 504 799 471 765 q 520 819 513 808 q 529 840 528 831 q 532 860 532 854 q 494 893 532 893 q 453 878 469 893 q 421 821 436 864 l 344 822 q 350 855 346 831 q 368 901 354 879 q 426 958 390 936 q 511 979 463 979 q 597 954 568 979 q 626 885 626 929 q 624 853 626 864 q 611 825 621 838 q 583 796 601 813 q 550 760 561 774 q 533 724 539 746 l 461 724 z "},"ư":{"ha":788,"x_min":26,"x_max":961,"o":"m 961 796 q 890 671 949 728 q 739 597 832 614 l 635 0 l 517 0 l 478 63 l 471 63 q 419 24 451 43 q 285 -14 360 -14 q 119 28 172 -14 q 65 165 65 71 q 76 251 65 185 q 113 472 86 318 q 119 535 119 517 q 101 592 119 574 q 40 611 83 611 l 26 611 l 33 653 l 200 653 q 279 632 256 653 q 303 560 303 611 q 293 472 303 517 q 256 245 267 315 q 244 158 244 175 q 267 74 244 99 q 338 49 290 49 q 390 60 367 49 q 439 93 414 72 q 478 139 460 111 l 568 653 l 706 653 q 803 702 765 661 q 850 796 840 743 l 961 796 z "},"ứ":{"ha":788,"x_min":26,"x_max":961,"o":"m 961 796 q 890 671 949 728 q 739 597 832 614 l 635 0 l 517 0 l 478 63 l 471 63 q 419 24 451 43 q 285 -14 360 -14 q 119 28 172 -14 q 65 165 65 71 q 76 251 65 185 q 113 472 86 318 q 119 535 119 517 q 101 592 119 574 q 40 611 83 611 l 26 611 l 33 653 l 200 653 q 279 632 256 653 q 303 560 303 611 q 293 472 303 517 q 256 245 267 315 q 244 158 244 175 q 267 74 244 99 q 338 49 290 49 q 390 60 367 49 q 439 93 414 72 q 478 139 460 111 l 568 653 l 706 653 q 803 702 765 661 q 850 796 840 743 l 961 796 m 419 729 l 513 924 l 678 924 l 496 729 l 419 729 z "},"ự":{"ha":788,"x_min":26,"x_max":961,"o":"m 961 796 q 890 671 949 728 q 739 597 832 614 l 635 0 l 517 0 l 478 63 l 471 63 q 419 24 451 43 q 285 -14 360 -14 q 119 28 172 -14 q 65 165 65 71 q 76 251 65 185 q 113 472 86 318 q 119 535 119 517 q 101 592 119 574 q 40 611 83 611 l 26 611 l 33 653 l 200 653 q 279 632 256 653 q 303 560 303 611 q 293 472 303 517 q 256 245 267 315 q 244 158 244 175 q 267 74 244 99 q 338 49 290 49 q 390 60 367 49 q 439 93 414 72 q 478 139 460 111 l 568 653 l 706 653 q 803 702 765 661 q 850 796 840 743 l 961 796 m 296 -233 q 253 -219 268 -233 q 238 -181 238 -206 q 260 -119 238 -144 q 321 -93 283 -93 q 379 -147 379 -93 q 356 -208 379 -182 q 296 -233 332 -233 z "},"ừ":{"ha":788,"x_min":26,"x_max":961,"o":"m 961 796 q 890 671 949 728 q 739 597 832 614 l 635 0 l 517 0 l 478 63 l 471 63 q 419 24 451 43 q 285 -14 360 -14 q 119 28 172 -14 q 65 165 65 71 q 76 251 65 185 q 113 472 86 318 q 119 535 119 517 q 101 592 119 574 q 40 611 83 611 l 26 611 l 33 653 l 200 653 q 279 632 256 653 q 303 560 303 611 q 293 472 303 517 q 256 245 267 315 q 244 158 244 175 q 267 74 244 99 q 338 49 290 49 q 390 60 367 49 q 439 93 414 72 q 478 139 460 111 l 568 653 l 706 653 q 803 702 765 661 q 850 796 840 743 l 961 796 m 415 729 l 303 924 l 468 924 l 492 729 l 415 729 z "},"ử":{"ha":788,"x_min":26,"x_max":961,"o":"m 961 796 q 890 671 949 728 q 739 597 832 614 l 635 0 l 517 0 l 478 63 l 471 63 q 419 24 451 43 q 285 -14 360 -14 q 119 28 172 -14 q 65 165 65 71 q 76 251 65 185 q 113 472 86 318 q 119 535 119 517 q 101 592 119 574 q 40 611 83 611 l 26 611 l 33 653 l 200 653 q 279 632 256 653 q 303 560 303 611 q 293 472 303 517 q 256 245 267 315 q 244 158 244 175 q 267 74 244 99 q 338 49 290 49 q 390 60 367 49 q 439 93 414 72 q 478 139 460 111 l 568 653 l 706 653 q 803 702 765 661 q 850 796 840 743 l 961 796 m 461 724 q 504 799 471 765 q 520 819 513 808 q 529 840 528 831 q 532 860 532 854 q 494 893 532 893 q 453 878 469 893 q 421 821 436 864 l 344 822 q 350 855 346 831 q 368 901 354 879 q 426 958 390 936 q 511 979 463 979 q 597 954 568 979 q 626 885 626 929 q 624 853 626 864 q 611 825 621 838 q 583 796 601 813 q 550 760 561 774 q 533 724 539 746 l 461 724 z "},"ữ":{"ha":788,"x_min":26,"x_max":961,"o":"m 961 796 q 890 671 949 728 q 739 597 832 614 l 635 0 l 517 0 l 478 63 l 471 63 q 419 24 451 43 q 285 -14 360 -14 q 119 28 172 -14 q 65 165 65 71 q 76 251 65 185 q 113 472 86 318 q 119 535 119 517 q 101 592 119 574 q 40 611 83 611 l 26 611 l 33 653 l 200 653 q 279 632 256 653 q 303 560 303 611 q 293 472 303 517 q 256 245 267 315 q 244 158 244 175 q 267 74 244 99 q 338 49 290 49 q 390 60 367 49 q 439 93 414 72 q 478 139 460 111 l 568 653 l 706 653 q 803 702 765 661 q 850 796 840 743 l 961 796 m 296 778 q 340 886 311 856 q 415 917 369 917 q 454 908 439 917 q 489 883 469 900 q 513 867 503 872 q 533 861 522 861 q 572 878 556 861 q 592 917 589 894 l 647 917 q 603 808 632 839 q 529 778 575 778 q 489 787 506 778 q 454 811 472 796 q 442 820 451 814 q 426 830 433 826 q 410 833 418 833 q 372 817 388 833 q 351 778 356 800 l 296 778 z "},"ũ":{"ha":788,"x_min":26,"x_max":749,"o":"m 285 -14 q 119 28 172 -14 q 65 165 65 71 q 76 251 65 185 q 113 472 86 318 q 119 535 119 517 q 101 592 119 574 q 40 611 83 611 l 26 611 l 33 653 l 200 653 q 279 632 256 653 q 303 560 303 611 q 293 472 303 517 q 256 245 267 315 q 244 158 244 175 q 267 74 244 99 q 338 49 290 49 q 390 60 367 49 q 439 93 414 72 q 478 139 460 111 l 568 653 l 749 653 l 635 0 l 517 0 l 478 63 l 471 63 q 419 24 451 43 q 285 -14 360 -14 m 296 778 q 340 886 311 856 q 415 917 369 917 q 454 908 439 917 q 489 883 469 900 q 513 867 503 872 q 533 861 522 861 q 572 878 556 861 q 592 917 589 894 l 647 917 q 603 808 632 839 q 529 778 575 778 q 489 787 506 778 q 454 811 472 796 q 442 820 451 814 q 426 830 433 826 q 410 833 418 833 q 372 817 388 833 q 351 778 356 800 l 296 778 z "},"v":{"ha":697,"x_min":24,"x_max":731,"o":"m 122 493 q 78 602 100 571 q 24 636 57 633 l 29 664 l 81 667 q 231 631 174 667 q 317 493 289 594 l 392 226 l 656 653 l 731 653 l 318 -14 l 268 -14 l 122 493 z "},"w":{"ha":1078,"x_min":19,"x_max":1101,"o":"m 124 493 q 80 603 103 571 q 19 638 57 635 l 25 664 l 92 667 q 235 629 183 667 q 314 493 288 592 l 385 228 l 518 450 l 506 493 q 462 601 485 568 q 408 638 439 635 l 414 664 l 467 667 q 619 628 563 667 q 703 493 676 590 l 782 214 l 1028 653 l 1101 653 l 729 -14 l 665 -14 l 553 376 l 324 -14 l 261 -14 l 124 493 z "},"x":{"ha":690,"x_min":-35,"x_max":703,"o":"m 250 290 l 157 514 q 108 591 136 563 q 47 625 79 619 l 51 653 l 183 653 q 283 625 247 653 q 342 542 319 597 l 389 429 l 610 653 l 703 653 l 418 364 l 513 139 q 562 62 533 90 q 622 28 590 33 l 618 0 l 486 0 q 386 28 422 0 q 328 111 350 56 l 279 224 l 58 0 l -35 0 l 250 290 z "},"y":{"ha":707,"x_min":6,"x_max":725,"o":"m 14 -229 q 142 -200 90 -229 q 239 -94 193 -171 l 281 -19 l 128 528 q 86 607 113 581 q 18 639 60 633 l 22 667 l 144 667 q 248 637 206 667 q 306 556 290 607 l 404 206 l 651 653 l 725 653 l 314 -90 q 196 -238 253 -199 q 61 -278 139 -278 l 6 -278 l 14 -229 z "},"ý":{"ha":707,"x_min":6,"x_max":725,"o":"m 14 -229 q 142 -200 90 -229 q 239 -94 193 -171 l 281 -19 l 128 528 q 86 607 113 581 q 18 639 60 633 l 22 667 l 144 667 q 248 637 206 667 q 306 556 290 607 l 404 206 l 651 653 l 725 653 l 314 -90 q 196 -238 253 -199 q 61 -278 139 -278 l 6 -278 l 14 -229 m 400 694 l 493 889 l 658 889 l 476 694 l 400 694 z "},"ÿ":{"ha":707,"x_min":6,"x_max":725,"o":"m 14 -229 q 142 -200 90 -229 q 239 -94 193 -171 l 281 -19 l 128 528 q 86 607 113 581 q 18 639 60 633 l 22 667 l 144 667 q 248 637 206 667 q 306 556 290 607 l 404 206 l 651 653 l 725 653 l 314 -90 q 196 -238 253 -199 q 61 -278 139 -278 l 6 -278 l 14 -229 m 329 743 q 281 760 297 743 q 264 804 264 778 q 291 870 264 842 q 357 899 318 899 q 406 881 389 899 q 422 835 422 864 q 394 771 422 799 q 329 743 367 743 m 579 743 q 531 760 547 743 q 514 804 514 778 q 541 870 514 842 q 607 899 568 899 q 656 881 639 899 q 672 835 672 864 q 644 771 672 799 q 579 743 617 743 z "},"ỵ":{"ha":707,"x_min":6,"x_max":725,"o":"m 310 -97 q 339 -147 339 -110 q 315 -208 339 -182 q 256 -233 292 -233 q 215 -222 231 -233 q 144 -265 181 -253 q 61 -278 107 -278 l 6 -278 l 14 -229 q 122 -210 76 -229 q 204 -146 167 -192 q 229 -111 214 -124 l 239 -94 l 281 -19 l 128 528 q 86 607 113 581 q 18 639 60 633 l 22 667 l 144 667 q 248 637 206 667 q 306 556 290 607 l 404 206 l 651 653 l 725 653 l 314 -90 l 310 -97 z "},"ỳ":{"ha":707,"x_min":6,"x_max":725,"o":"m 14 -229 q 142 -200 90 -229 q 239 -94 193 -171 l 281 -19 l 128 528 q 86 607 113 581 q 18 639 60 633 l 22 667 l 144 667 q 248 637 206 667 q 306 556 290 607 l 404 206 l 651 653 l 725 653 l 314 -90 q 196 -238 253 -199 q 61 -278 139 -278 l 6 -278 l 14 -229 m 403 729 l 290 924 l 456 924 l 479 729 l 403 729 z "},"ỷ":{"ha":707,"x_min":6,"x_max":725,"o":"m 14 -229 q 142 -200 90 -229 q 239 -94 193 -171 l 281 -19 l 128 528 q 86 607 113 581 q 18 639 60 633 l 22 667 l 144 667 q 248 637 206 667 q 306 556 290 607 l 404 206 l 651 653 l 725 653 l 314 -90 q 196 -238 253 -199 q 61 -278 139 -278 l 6 -278 l 14 -229 m 449 724 q 492 799 458 765 q 508 819 500 808 q 517 840 515 831 q 519 860 519 854 q 482 893 519 893 q 440 878 457 893 q 408 821 424 864 l 332 822 q 338 855 333 831 q 356 901 342 879 q 414 958 378 936 q 499 979 450 979 q 585 954 556 979 q 614 885 614 929 q 611 853 614 864 q 599 825 608 838 q 571 796 589 813 q 538 760 549 774 q 521 724 526 746 l 449 724 z "},"ỹ":{"ha":707,"x_min":6,"x_max":725,"o":"m 14 -229 q 142 -200 90 -229 q 239 -94 193 -171 l 281 -19 l 128 528 q 86 607 113 581 q 18 639 60 633 l 22 667 l 144 667 q 248 637 206 667 q 306 556 290 607 l 404 206 l 651 653 l 725 653 l 314 -90 q 196 -238 253 -199 q 61 -278 139 -278 l 6 -278 l 14 -229 m 283 778 q 328 886 299 856 q 403 917 357 917 q 442 908 426 917 q 476 883 457 900 q 500 867 490 872 q 521 861 510 861 q 560 878 543 861 q 579 917 576 894 l 635 917 q 591 808 619 839 q 517 778 563 778 q 476 787 493 778 q 442 811 460 796 q 430 820 439 814 q 413 830 421 826 q 397 833 406 833 q 359 817 375 833 q 339 778 343 800 l 283 778 z "},"z":{"ha":688,"x_min":-11,"x_max":715,"o":"m -4 43 l 457 590 l 293 590 q 164 559 206 590 q 111 458 122 528 l 69 458 l 83 542 q 124 622 93 592 q 221 653 154 653 l 715 653 l 217 63 l 582 63 l 572 0 l -11 0 l -4 43 z "},"ž":{"ha":688,"x_min":-11,"x_max":715,"o":"m -4 43 l 457 590 l 293 590 q 164 559 206 590 q 111 458 122 528 l 69 458 l 83 542 q 124 622 93 592 q 221 653 154 653 l 715 653 l 217 63 l 582 63 l 572 0 l -11 0 l -4 43 m 329 722 l 249 896 l 346 896 l 431 785 l 554 896 l 651 896 l 510 722 l 329 722 z "},"ª":{"ha":449,"x_min":101,"x_max":442,"o":"m 208 550 q 131 569 160 550 q 101 626 101 588 q 165 728 101 697 q 314 760 228 760 l 336 760 q 342 814 342 789 q 293 882 342 882 q 234 864 257 882 q 197 810 211 846 l 157 810 q 192 890 167 868 q 314 917 218 917 q 408 894 375 917 q 442 811 442 872 q 426 711 442 799 q 416 650 422 688 q 400 557 410 613 l 336 557 l 313 592 q 208 550 264 550 m 242 585 q 314 632 279 585 l 331 725 l 308 725 q 234 699 267 725 q 201 629 201 674 q 213 595 201 606 q 242 585 224 585 z "},"º":{"ha":469,"x_min":114,"x_max":475,"o":"m 254 510 q 148 553 182 510 q 114 669 114 597 q 138 801 114 735 q 212 913 163 868 q 333 957 261 957 q 440 914 406 957 q 475 800 475 871 q 451 667 475 733 q 376 555 426 600 q 254 510 326 510 m 261 544 q 331 597 304 544 q 368 719 357 650 q 379 835 379 788 q 366 902 379 882 q 328 922 353 922 q 259 869 286 922 q 221 747 232 815 q 210 632 210 679 q 261 544 210 544 z "},"А":{"ha":899,"x_min":-51,"x_max":882,"o":"m 808 -6 q 656 32 722 -6 q 567 175 590 69 l 549 253 l 179 253 l 21 0 l -51 0 l 519 917 l 582 917 l 763 175 q 882 36 796 46 l 876 1 q 808 -6 851 -6 m 219 315 l 533 315 l 444 678 l 219 315 z "},"Б":{"ha":885,"x_min":67,"x_max":832,"o":"m 67 0 q 174 613 144 442 q 203 799 203 785 q 185 856 203 838 q 124 875 167 875 l 110 875 l 117 917 l 726 917 q 828 835 828 917 q 804 688 828 822 l 763 688 q 767 733 767 713 q 729 826 767 797 q 618 854 692 854 l 397 854 l 340 528 l 465 528 q 731 483 629 528 q 832 317 832 438 q 699 68 832 136 q 372 0 567 0 l 67 0 m 361 56 q 568 120 497 56 q 639 324 639 185 q 589 437 639 401 q 433 472 539 472 l 426 472 q 356 465 386 472 l 328 458 l 258 69 q 285 63 271 64 q 354 56 315 56 l 361 56 z "},"В":{"ha":897,"x_min":67,"x_max":863,"o":"m 67 0 q 174 613 144 442 q 203 799 203 783 q 185 856 203 838 q 124 875 167 875 l 110 875 l 117 917 l 492 917 q 757 877 651 917 q 863 719 863 838 q 797 565 863 629 q 631 474 731 500 q 831 301 831 453 q 698 71 831 142 q 372 0 565 0 l 67 0 m 439 501 q 555 528 503 501 q 638 603 607 554 q 669 719 669 653 q 616 828 669 794 q 482 861 563 861 q 422 856 443 861 l 397 851 l 335 501 l 439 501 m 361 56 q 496 82 433 56 q 597 162 558 108 q 635 292 635 215 q 428 439 635 439 l 324 439 l 258 69 q 285 63 271 64 q 354 56 315 56 l 361 56 z "},"Г":{"ha":758,"x_min":67,"x_max":814,"o":"m 67 0 q 174 613 144 442 q 203 799 203 785 q 185 856 203 838 q 124 875 167 875 l 110 875 l 117 917 l 713 917 q 814 835 814 917 q 790 688 814 822 l 749 688 q 753 733 753 713 q 715 826 753 797 q 604 854 678 854 l 397 854 l 247 0 l 67 0 z "},"Ѓ":{"ha":758,"x_min":67,"x_max":814,"o":"m 67 0 q 174 613 144 442 q 203 799 203 785 q 185 856 203 838 q 124 875 167 875 l 110 875 l 117 917 l 713 917 q 814 835 814 917 q 790 688 814 822 l 749 688 q 753 733 753 713 q 715 826 753 797 q 604 854 678 854 l 397 854 l 247 0 l 67 0 m 497 993 l 590 1188 l 756 1188 l 574 993 l 497 993 z "},"Ґ":{"ha":751,"x_min":67,"x_max":860,"o":"m 67 0 q 174 613 144 442 q 203 799 203 785 q 185 856 203 838 q 124 875 167 875 l 110 875 l 117 917 l 615 917 q 752 956 701 917 q 818 1083 803 996 l 860 1083 l 839 965 q 799 885 829 915 q 701 854 768 854 l 397 854 l 247 0 l 67 0 z "},"Д":{"ha":968,"x_min":-111,"x_max":933,"o":"m -64 14 q -45 49 -61 35 q -8 63 -29 63 l 40 63 q 186 367 131 201 q 278 736 242 532 q 285 799 285 774 q 267 856 285 838 q 206 875 249 875 l 192 875 l 199 917 l 933 917 l 782 63 l 831 63 q 860 51 849 63 q 872 24 872 40 q 824 -256 872 15 l 754 -256 q 757 -185 757 -203 q 725 -41 757 -82 q 626 0 693 0 l 176 0 q 49 -56 100 0 q -43 -256 -3 -111 l -111 -256 l -64 14 m 601 63 l 742 854 l 436 854 q 328 386 386 568 q 185 63 271 204 l 601 63 z "},"Е":{"ha":836,"x_min":67,"x_max":831,"o":"m 67 0 q 174 613 144 442 q 203 799 203 783 q 185 856 203 838 q 124 875 167 875 l 110 875 l 117 917 l 729 917 q 831 836 831 917 q 807 688 831 824 l 765 688 q 769 733 769 713 q 621 854 769 854 l 397 854 l 336 507 l 697 507 l 686 444 l 325 444 l 257 63 l 494 63 q 633 98 574 63 q 743 221 692 133 l 778 207 l 718 97 q 662 23 690 46 q 581 0 633 0 l 67 0 z "},"Ѐ":{"ha":836,"x_min":67,"x_max":831,"o":"m 67 0 q 174 613 144 442 q 203 799 203 783 q 185 856 203 838 q 124 875 167 875 l 110 875 l 117 917 l 729 917 q 831 836 831 917 q 807 688 831 824 l 765 688 q 769 733 769 713 q 621 854 769 854 l 397 854 l 336 507 l 697 507 l 686 444 l 325 444 l 257 63 l 494 63 q 633 98 574 63 q 743 221 692 133 l 778 207 l 718 97 q 662 23 690 46 q 581 0 633 0 l 67 0 m 486 993 l 374 1188 l 539 1188 l 563 993 l 486 993 z "},"Ё":{"ha":836,"x_min":67,"x_max":831,"o":"m 67 0 q 174 613 144 442 q 203 799 203 783 q 185 856 203 838 q 124 875 167 875 l 110 875 l 117 917 l 729 917 q 831 836 831 917 q 807 688 831 824 l 765 688 q 769 733 769 713 q 621 854 769 854 l 397 854 l 336 507 l 697 507 l 686 444 l 325 444 l 257 63 l 494 63 q 633 98 574 63 q 743 221 692 133 l 778 207 l 718 97 q 662 23 690 46 q 581 0 633 0 l 67 0 m 413 1007 q 364 1024 381 1007 q 347 1068 347 1042 q 374 1134 347 1106 q 440 1163 401 1163 q 489 1145 472 1163 q 506 1099 506 1128 q 478 1035 506 1063 q 413 1007 450 1007 m 663 1007 q 614 1024 631 1007 q 597 1068 597 1042 q 624 1134 597 1106 q 690 1163 651 1163 q 739 1145 722 1163 q 756 1099 756 1128 q 728 1035 756 1063 q 663 1007 700 1007 z "},"Ж":{"ha":1374,"x_min":-81,"x_max":1428,"o":"m 6 -14 q -81 0 -39 -14 l -74 33 q 33 81 -31 40 q 158 181 97 121 l 497 514 l 349 769 q 267 847 317 826 q 126 868 218 868 l 135 917 l 218 917 q 347 877 294 917 q 438 771 399 838 l 611 472 l 690 917 l 872 917 l 793 472 l 1072 771 q 1202 878 1136 839 q 1344 917 1268 917 l 1428 917 l 1419 868 q 1272 848 1326 868 q 1161 769 1217 828 l 924 514 l 1143 181 q 1233 81 1182 121 q 1326 33 1283 40 l 1321 0 q 1229 -14 1276 -14 q 1059 24 1131 -14 q 922 167 988 61 l 781 396 l 711 0 l 529 0 l 599 396 l 376 167 q 189 24 274 61 q 6 -14 104 -14 z "},"З":{"ha":806,"x_min":-15,"x_max":786,"o":"m 314 -28 q 110 18 189 -28 q -15 160 31 64 l 32 194 q 134 78 74 122 q 290 35 194 35 q 414 63 356 35 q 508 146 472 92 q 543 274 543 200 q 489 395 543 353 q 339 438 435 438 l 221 438 l 232 500 l 350 500 q 463 526 406 500 q 558 606 519 553 q 596 732 596 658 q 550 844 596 806 q 446 882 504 882 q 277 821 353 882 q 156 653 201 760 l 113 653 q 140 776 128 735 q 182 847 153 818 q 307 917 225 890 q 464 944 389 944 q 695 903 604 944 q 786 750 786 863 q 720 588 786 664 q 528 479 654 511 q 686 411 635 467 q 738 279 738 356 q 672 99 738 168 q 508 1 606 31 q 314 -28 411 -28 z "},"И":{"ha":989,"x_min":67,"x_max":978,"o":"m 67 0 q 174 613 144 442 q 203 799 203 785 q 185 856 203 838 q 124 875 167 875 l 110 875 l 117 917 l 283 917 q 363 896 339 917 q 386 824 386 875 q 368 691 386 803 q 278 181 350 579 l 811 917 l 978 917 l 817 0 l 636 0 l 765 736 l 233 0 l 67 0 z "},"Й":{"ha":989,"x_min":67,"x_max":978,"o":"m 67 0 q 174 613 144 442 q 203 799 203 785 q 185 856 203 838 q 124 875 167 875 l 110 875 l 117 917 l 283 917 q 363 896 339 917 q 386 824 386 875 q 368 691 386 803 q 278 181 350 579 l 811 917 l 978 917 l 817 0 l 636 0 l 765 736 l 233 0 l 67 0 m 613 979 q 501 1015 546 979 q 440 1110 457 1050 l 485 1139 q 539 1090 503 1110 q 629 1069 575 1069 q 726 1089 683 1069 q 799 1139 768 1108 l 832 1110 q 737 1015 794 1050 q 613 979 679 979 z "},"Ѝ":{"ha":989,"x_min":67,"x_max":978,"o":"m 67 0 q 174 613 144 442 q 203 799 203 785 q 185 856 203 838 q 124 875 167 875 l 110 875 l 117 917 l 283 917 q 363 896 339 917 q 386 824 386 875 q 368 691 386 803 q 278 181 350 579 l 811 917 l 978 917 l 817 0 l 636 0 l 765 736 l 233 0 l 67 0 m 549 993 l 436 1188 l 601 1188 l 625 993 l 549 993 z "},"К":{"ha":964,"x_min":68,"x_max":993,"o":"m 808 -14 q 647 22 721 -14 q 499 153 572 57 l 317 386 l 249 0 l 68 0 q 181 647 158 511 q 203 799 203 782 q 185 856 203 838 q 124 875 167 875 l 110 875 l 117 917 l 283 917 q 363 896 339 917 q 388 822 388 875 q 375 736 388 807 q 356 621 363 665 l 331 472 l 624 771 q 753 878 688 839 q 896 917 819 917 l 993 917 l 985 868 q 833 847 899 868 q 713 769 768 825 l 461 514 l 722 181 q 823 81 767 124 q 918 33 879 39 l 913 0 q 808 -14 868 -14 z "},"Ќ":{"ha":964,"x_min":68,"x_max":993,"o":"m 808 -14 q 647 22 721 -14 q 499 153 572 57 l 317 386 l 249 0 l 68 0 q 181 647 158 511 q 203 799 203 782 q 185 856 203 838 q 124 875 167 875 l 110 875 l 117 917 l 283 917 q 363 896 339 917 q 388 822 388 875 q 375 736 388 807 q 356 621 363 665 l 331 472 l 624 771 q 753 878 688 839 q 896 917 819 917 l 993 917 l 985 868 q 833 847 899 868 q 713 769 768 825 l 461 514 l 722 181 q 823 81 767 124 q 918 33 879 39 l 913 0 q 808 -14 868 -14 m 536 993 l 629 1188 l 794 1188 l 613 993 l 536 993 z "},"Л":{"ha":947,"x_min":-78,"x_max":936,"o":"m 3 -21 q -78 -8 -40 -21 l -71 35 q 56 108 -1 49 q 169 318 114 168 q 272 736 225 468 q 279 799 279 774 q 261 856 279 838 q 200 875 243 875 l 186 875 l 193 917 l 936 917 l 775 0 l 594 0 l 744 854 l 444 854 l 424 736 q 244 149 350 319 q 3 -21 139 -21 z "},"М":{"ha":1207,"x_min":36,"x_max":1169,"o":"m 1099 -62 q 916 -14 974 -62 q 858 139 858 35 q 868 236 858 171 l 956 728 l 524 0 l 478 0 l 238 756 l 106 0 l 36 0 l 197 917 l 367 917 l 582 235 l 988 917 l 1169 917 l 1049 236 q 1033 97 1033 149 q 1104 -28 1033 -14 l 1099 -62 z "},"Н":{"ha":1004,"x_min":67,"x_max":964,"o":"m 196 736 q 203 799 203 781 q 185 856 203 838 q 124 875 167 875 l 110 875 l 117 917 l 283 917 q 363 896 339 917 q 386 824 386 875 q 376 736 386 781 l 336 507 l 711 507 l 783 917 l 964 917 l 833 181 q 828 121 828 151 q 846 62 828 82 q 907 42 864 42 l 921 42 l 914 0 l 747 0 q 668 22 692 0 q 644 96 644 43 q 653 181 644 131 l 700 444 l 325 444 l 247 0 l 67 0 l 196 736 z "},"О":{"ha":1021,"x_min":56,"x_max":990,"o":"m 438 -28 q 233 21 319 -28 q 101 156 147 69 q 56 356 56 243 q 126 638 56 501 q 324 859 197 774 q 608 944 451 944 q 813 896 726 944 q 944 760 899 847 q 990 561 990 674 q 919 279 990 415 q 722 58 849 143 q 438 -28 594 -28 m 449 35 q 649 128 569 35 q 766 353 729 221 q 803 608 803 486 q 750 811 803 740 q 597 882 697 882 q 398 788 478 882 q 281 560 318 694 q 244 307 244 426 q 297 106 244 176 q 449 35 349 35 z "},"П":{"ha":961,"x_min":67,"x_max":950,"o":"m 67 0 q 174 613 144 442 q 203 799 203 785 q 185 856 203 838 q 124 875 167 875 l 110 875 l 117 917 l 950 917 l 789 0 l 608 0 l 758 854 l 397 854 l 247 0 l 67 0 z "},"Р":{"ha":806,"x_min":67,"x_max":831,"o":"m 67 0 q 174 613 144 442 q 203 799 203 783 q 185 856 203 838 q 124 875 167 875 l 110 875 l 117 917 l 499 917 q 728 871 626 917 q 831 694 831 825 q 776 522 831 594 q 633 410 722 449 q 444 371 544 371 l 313 371 l 247 0 l 67 0 m 406 426 q 531 466 478 426 q 610 570 583 506 q 638 710 638 635 q 595 826 638 790 q 489 861 553 861 q 426 856 449 861 l 397 851 l 322 426 l 406 426 z "},"С":{"ha":944,"x_min":53,"x_max":933,"o":"m 438 -28 q 227 19 314 -28 q 97 149 140 65 q 53 342 53 233 q 126 626 53 486 q 326 855 199 765 q 608 944 453 944 q 832 903 731 944 q 933 757 933 863 q 917 621 933 704 l 875 621 q 813 815 872 749 q 639 882 753 882 q 419 797 508 882 q 288 583 331 713 q 246 322 246 454 q 305 113 246 192 q 490 35 364 35 q 678 86 588 35 q 835 233 769 138 l 876 196 q 686 26 790 79 q 438 -28 582 -28 z "},"Т":{"ha":801,"x_min":74,"x_max":885,"o":"m 403 854 l 304 854 q 179 815 226 854 q 115 688 132 776 l 74 688 l 94 806 q 135 886 104 856 q 232 917 165 917 l 885 917 l 874 854 l 583 854 l 433 0 l 253 0 l 403 854 z "},"У":{"ha":857,"x_min":40,"x_max":939,"o":"m 131 36 q 260 56 204 36 q 354 132 317 76 l 368 153 l 186 736 q 40 889 142 879 l 46 917 l 185 917 q 311 875 261 917 q 383 764 361 833 l 507 372 l 849 917 l 939 917 l 444 132 q 337 24 401 63 q 192 -14 272 -14 l 122 -14 l 131 36 z "},"Ў":{"ha":857,"x_min":40,"x_max":939,"o":"m 131 36 q 260 56 204 36 q 354 132 317 76 l 368 153 l 186 736 q 40 889 142 879 l 46 917 l 185 917 q 311 875 261 917 q 383 764 361 833 l 507 372 l 849 917 l 939 917 l 444 132 q 337 24 401 63 q 192 -14 272 -14 l 122 -14 l 131 36 m 563 979 q 451 1015 496 979 q 390 1110 407 1050 l 435 1139 q 489 1090 453 1110 q 579 1069 525 1069 q 676 1089 633 1069 q 749 1139 718 1108 l 782 1110 q 687 1015 744 1050 q 563 979 629 979 z "},"Ф":{"ha":1144,"x_min":39,"x_max":1124,"o":"m 424 49 q 137 128 235 49 q 39 353 39 208 q 103 601 39 493 q 285 767 167 708 q 560 826 403 826 q 563 840 561 832 q 564 860 564 849 q 482 931 564 931 l 468 931 l 475 972 l 642 972 q 723 952 699 972 q 747 886 747 932 q 740 826 747 865 q 1026 746 929 826 q 1124 521 1124 665 q 1060 274 1124 381 q 878 108 996 167 q 604 49 761 49 l 585 -56 l 404 -56 l 424 49 m 549 764 q 378 700 450 763 q 270 542 307 638 q 233 346 233 446 q 284 174 233 238 q 435 111 335 111 l 549 764 m 615 111 q 785 174 714 113 q 894 332 857 236 q 931 528 931 428 q 880 700 931 636 q 729 764 829 764 l 615 111 z "},"Х":{"ha":896,"x_min":-44,"x_max":933,"o":"m 372 432 l 229 736 q 158 838 203 793 q 69 889 114 883 l 75 917 l 228 917 q 347 873 299 917 q 426 764 396 829 l 515 578 l 843 917 l 933 917 l 544 515 l 703 181 q 774 78 729 122 q 863 28 818 33 l 858 0 l 706 0 q 585 44 635 0 q 506 153 536 89 l 403 369 l 46 0 l -44 0 l 372 432 z "},"Ч":{"ha":917,"x_min":79,"x_max":906,"o":"m 626 361 q 545 340 594 347 q 443 333 496 333 q 142 563 142 333 q 157 678 142 607 q 165 724 158 685 q 172 799 172 763 q 154 856 172 838 q 93 875 136 875 l 79 875 l 86 917 l 253 917 q 332 896 308 917 q 356 824 356 875 q 339 699 356 782 q 321 563 321 617 q 364 439 321 482 q 481 396 407 396 q 638 424 564 396 l 725 917 l 906 917 l 744 0 l 564 0 l 626 361 z "},"Ц":{"ha":985,"x_min":67,"x_max":950,"o":"m 771 -257 q 774 -190 774 -204 q 742 -42 774 -85 q 643 0 710 0 l 67 0 q 174 613 144 442 q 203 799 203 785 q 185 856 203 838 q 124 875 167 875 l 110 875 l 117 917 l 283 917 q 363 896 339 917 q 386 824 386 875 q 367 696 386 810 q 336 517 347 582 q 257 63 319 425 l 618 63 l 769 917 l 950 917 l 799 63 l 847 63 q 877 51 865 63 q 889 24 889 40 q 840 -257 889 18 l 771 -257 z "},"Ш":{"ha":1322,"x_min":67,"x_max":1311,"o":"m 67 0 q 174 613 144 442 q 203 799 203 785 q 185 856 203 838 q 124 875 167 875 l 110 875 l 117 917 l 283 917 q 363 896 339 917 q 386 824 386 875 q 367 696 386 810 q 336 517 347 582 q 257 63 319 425 l 528 63 l 679 917 l 860 917 l 708 63 l 979 63 l 1131 917 l 1311 917 l 1150 0 l 67 0 z "},"Щ":{"ha":1346,"x_min":67,"x_max":1311,"o":"m 1132 -257 q 1135 -190 1135 -204 q 1103 -42 1135 -85 q 1004 0 1071 0 l 67 0 q 174 613 144 442 q 203 799 203 785 q 185 856 203 838 q 124 875 167 875 l 110 875 l 117 917 l 283 917 q 363 896 339 917 q 386 824 386 875 q 367 696 386 810 q 336 517 347 582 q 257 63 319 425 l 528 63 l 679 917 l 860 917 l 708 63 l 979 63 l 1131 917 l 1311 917 l 1160 63 l 1208 63 q 1238 51 1226 63 q 1250 24 1250 40 q 1201 -257 1250 18 l 1132 -257 z "},"Џ":{"ha":961,"x_min":67,"x_max":950,"o":"m 358 0 l 67 0 q 174 613 144 442 q 203 799 203 785 q 185 856 203 838 q 124 875 167 875 l 110 875 l 117 917 l 283 917 q 363 896 339 917 q 386 824 386 875 q 367 696 386 810 q 336 517 347 582 q 257 63 319 425 l 618 63 l 769 917 l 950 917 l 789 0 l 497 0 l 433 -243 l 336 -243 l 358 0 z "},"Ь":{"ha":872,"x_min":67,"x_max":833,"o":"m 67 0 q 174 613 144 442 q 203 799 203 785 q 185 856 203 838 q 124 875 167 875 l 110 875 l 117 917 l 283 917 q 363 896 339 917 q 386 824 386 875 q 376 742 386 806 q 342 542 367 679 l 467 542 q 729 491 625 542 q 833 321 833 440 q 697 73 833 146 q 372 0 561 0 l 67 0 m 361 56 q 568 126 496 56 q 640 328 640 197 q 590 447 640 407 q 436 486 540 486 l 429 486 q 358 479 389 486 q 329 472 339 474 l 258 69 q 285 63 271 64 q 354 56 315 56 l 361 56 z "},"Ъ":{"ha":1000,"x_min":76,"x_max":961,"o":"m 344 854 l 329 854 q 203 804 250 854 q 132 639 157 754 l 76 639 l 117 868 q 135 903 119 889 q 174 917 151 917 l 536 917 l 469 542 l 594 542 q 857 491 753 542 q 961 321 961 440 q 825 73 961 146 q 500 0 689 0 l 194 0 l 344 854 m 489 56 q 696 126 624 56 q 768 328 768 197 q 718 447 768 407 q 564 486 668 486 l 557 486 q 486 479 517 486 q 457 472 467 474 l 386 69 q 413 63 399 64 q 482 56 443 56 l 489 56 z "},"Ы":{"ha":1246,"x_min":67,"x_max":1206,"o":"m 67 0 q 174 613 144 442 q 203 799 203 785 q 185 856 203 838 q 124 875 167 875 l 110 875 l 117 917 l 283 917 q 363 896 339 917 q 386 824 386 875 q 376 742 386 806 q 342 542 367 679 l 453 542 q 715 491 611 542 q 819 321 819 440 q 683 73 819 146 q 358 0 547 0 l 67 0 m 989 0 q 909 22 933 0 q 885 96 885 43 q 908 259 885 118 q 1025 917 932 400 l 1206 917 l 1139 539 q 1097 301 1126 469 q 1068 121 1068 133 q 1086 62 1068 82 q 1149 42 1104 42 l 1163 42 l 1156 0 l 989 0 m 347 56 q 554 126 482 56 q 626 328 626 197 q 576 447 626 407 q 422 486 526 486 q 357 479 385 486 l 329 472 l 258 69 q 283 63 271 64 q 347 56 311 56 z "},"Љ":{"ha":1374,"x_min":-78,"x_max":1335,"o":"m 3 -21 q -78 -8 -40 -21 l -71 35 q 56 108 -1 49 q 169 318 114 168 q 272 736 225 468 q 279 800 279 775 q 262 856 279 836 q 201 875 244 875 l 188 875 l 194 917 l 924 917 l 857 542 l 982 542 q 1233 490 1132 542 q 1335 321 1335 439 q 1267 130 1335 201 q 1098 29 1199 58 q 888 0 997 0 l 582 0 l 732 854 l 446 854 l 425 736 q 246 150 351 321 q 3 -21 140 -21 m 876 56 q 1072 127 1001 56 q 1142 328 1142 199 q 951 486 1142 486 l 944 486 q 874 479 904 486 q 844 472 854 474 l 774 69 q 800 63 786 64 q 869 56 831 56 l 876 56 z "},"Њ":{"ha":1397,"x_min":67,"x_max":1358,"o":"m 67 0 q 174 613 144 442 q 203 799 203 785 q 185 856 203 838 q 124 875 167 875 l 110 875 l 117 917 l 283 917 q 363 896 339 917 q 386 824 386 875 q 374 733 386 807 q 357 629 363 660 l 336 507 l 685 507 l 757 917 l 938 917 l 867 514 l 990 514 q 1253 465 1149 514 q 1358 303 1358 415 q 1223 70 1358 140 q 900 0 1088 0 l 596 0 l 674 444 l 325 444 l 247 0 l 67 0 m 889 56 q 1094 122 1024 56 q 1164 306 1164 188 q 960 458 1164 458 l 953 458 q 890 453 919 458 q 853 444 860 449 l 786 69 q 813 63 799 64 q 882 56 843 56 l 889 56 z "},"Ѕ":{"ha":781,"x_min":22,"x_max":763,"o":"m 308 -24 q 169 -6 235 -24 q 63 47 103 13 q 22 126 22 81 q 51 306 22 139 l 90 306 l 90 296 q 145 99 90 160 q 317 39 200 39 q 413 57 367 39 q 490 111 460 75 q 519 200 519 147 q 492 278 519 246 q 404 353 464 311 l 251 456 q 151 549 182 501 q 119 656 119 596 q 169 808 119 743 q 301 908 219 874 q 476 942 383 942 q 616 924 550 942 q 722 872 682 906 q 763 792 763 838 q 732 613 763 781 l 693 613 l 693 628 q 640 820 693 761 q 481 879 588 879 q 390 860 433 879 q 319 806 347 842 q 292 719 292 769 q 318 647 292 676 q 408 575 344 618 l 563 474 q 672 377 638 422 q 706 275 706 332 q 648 112 706 179 q 499 10 590 44 q 308 -24 408 -24 z "},"Є":{"ha":946,"x_min":54,"x_max":935,"o":"m 439 -28 q 228 19 315 -28 q 98 149 142 65 q 54 340 54 232 q 132 640 54 500 q 338 862 210 779 q 610 944 467 944 q 856 892 776 944 q 935 757 935 839 q 918 621 935 704 l 876 621 q 814 815 874 749 q 640 882 754 882 q 411 793 507 882 q 268 493 315 704 l 697 493 l 686 431 l 256 431 q 247 325 247 376 q 306 114 247 193 q 492 35 365 35 q 680 86 589 35 q 836 233 771 138 l 878 196 q 688 26 792 79 q 439 -28 583 -28 z "},"Э":{"ha":944,"x_min":0,"x_max":911,"o":"m 361 -28 q 131 26 217 -28 q 0 196 46 79 l 56 233 q 161 86 89 138 q 331 35 233 35 q 578 147 483 35 q 706 431 672 260 l 275 431 l 286 493 l 715 493 q 724 603 724 554 q 479 882 724 882 q 151 621 253 882 l 110 621 q 138 748 121 694 q 183 832 154 801 q 324 913 236 882 q 532 944 411 944 q 731 893 644 944 q 864 751 817 842 q 911 546 911 660 q 840 258 911 389 q 644 49 769 126 q 361 -28 518 -28 z "},"І":{"ha":426,"x_min":67,"x_max":386,"o":"m 169 0 q 90 22 114 0 q 67 96 67 43 q 75 181 67 131 l 206 917 l 386 917 l 256 181 q 250 121 250 151 q 268 62 250 82 q 329 42 286 42 l 343 42 l 336 0 l 169 0 z "},"Ї":{"ha":426,"x_min":67,"x_max":519,"o":"m 169 0 q 90 22 114 0 q 67 96 67 43 q 75 181 67 131 l 206 917 l 386 917 l 256 181 q 250 121 250 151 q 268 62 250 82 q 329 42 286 42 l 343 42 l 336 0 l 169 0 m 190 993 q 142 1010 158 993 q 125 1057 125 1028 q 153 1122 125 1094 q 218 1149 181 1149 q 267 1132 250 1149 q 283 1088 283 1115 q 256 1022 283 1050 q 190 993 229 993 m 426 993 q 378 1010 394 993 q 361 1057 361 1028 q 389 1122 361 1094 q 454 1149 417 1149 q 503 1132 486 1149 q 519 1088 519 1115 q 492 1022 519 1050 q 426 993 465 993 z "},"Ј":{"ha":389,"x_min":-125,"x_max":379,"o":"m -117 -149 q -8 -83 -50 -140 q 57 115 33 -25 l 199 917 l 379 917 l 238 115 q 179 -72 217 -7 q 72 -163 142 -136 q -125 -190 1 -190 l -117 -149 z "},"Ћ":{"ha":1008,"x_min":74,"x_max":960,"o":"m 693 597 q 885 553 810 597 q 960 403 960 510 q 946 302 960 389 q 894 0 932 215 l 714 0 q 781 406 781 371 q 748 500 781 472 q 654 528 715 528 q 552 515 603 528 q 464 479 501 501 l 381 0 l 200 0 l 350 854 l 304 854 q 179 815 226 854 q 115 688 132 776 l 74 688 l 94 806 q 232 917 114 917 l 885 917 l 874 854 l 531 854 l 475 542 q 574 581 515 565 q 693 597 633 597 z "},"Ю":{"ha":1278,"x_min":67,"x_max":1246,"o":"m 735 -28 q 556 19 633 -28 q 436 150 479 65 q 393 347 393 235 q 401 444 393 394 l 325 444 l 247 0 l 67 0 q 174 613 144 442 q 203 799 203 785 q 185 856 203 838 q 124 875 167 875 l 110 875 l 117 917 l 283 917 q 363 896 339 917 q 386 824 386 875 q 374 733 386 807 q 357 629 363 660 l 336 507 l 414 507 q 521 735 447 636 q 695 890 594 835 q 906 944 796 944 q 1083 898 1006 944 q 1203 766 1161 851 q 1246 568 1246 681 q 1173 264 1246 400 q 982 50 1100 128 q 735 -28 864 -28 m 746 35 q 901 122 828 35 q 1017 344 974 208 q 1060 619 1060 481 q 1015 815 1060 749 q 894 882 971 882 q 740 794 813 882 q 625 568 668 706 q 582 293 582 431 q 626 100 582 165 q 746 35 669 35 z "},"Я":{"ha":876,"x_min":-51,"x_max":949,"o":"m 40 -22 q -14 -18 14 -22 q -51 -8 -42 -14 l -46 26 q 153 179 39 38 l 322 389 q 192 458 247 404 q 138 596 138 513 q 208 790 138 718 q 377 889 279 861 q 565 917 475 917 l 949 917 l 942 875 l 928 875 q 842 840 869 875 q 806 736 815 806 l 676 0 l 494 0 l 560 378 l 499 378 l 339 179 q 181 24 251 71 q 40 -22 110 -22 m 571 433 l 644 851 l 617 856 q 556 861 594 861 q 456 831 508 861 q 368 740 404 800 q 332 597 332 681 q 378 476 332 518 q 488 433 425 433 l 571 433 z "},"Ђ":{"ha":994,"x_min":74,"x_max":951,"o":"m 692 597 q 884 549 817 597 q 951 375 951 500 q 860 71 951 189 q 583 -56 769 -47 l 590 -21 q 690 50 650 -21 q 750 215 731 121 q 769 371 769 308 q 737 491 769 454 q 653 528 704 528 q 551 515 601 528 q 463 479 500 501 l 379 0 l 199 0 l 349 854 l 304 854 q 179 815 226 854 q 115 688 132 776 l 74 688 l 94 806 q 232 917 114 917 l 885 917 l 874 854 l 529 854 l 474 542 q 573 581 514 565 q 692 597 632 597 z "},"Ѣ":{"ha":990,"x_min":49,"x_max":954,"o":"m 588 542 q 851 492 747 542 q 954 322 954 442 q 949 271 954 307 q 795 61 922 122 q 492 0 668 0 l 186 0 l 311 715 l 279 715 q 153 676 201 715 q 90 549 106 638 l 49 549 l 69 667 q 207 778 89 778 l 321 778 l 322 799 q 304 856 322 836 q 243 875 286 875 l 229 875 l 236 917 l 403 917 q 482 895 458 917 q 506 821 506 874 q 503 778 506 811 l 776 778 l 765 715 l 492 715 l 463 542 l 588 542 m 754 271 q 760 329 760 299 q 710 447 760 407 q 557 486 661 486 l 550 486 q 479 479 507 486 l 450 472 l 379 69 q 406 63 392 64 q 474 56 433 56 l 481 56 q 669 110 603 56 q 754 271 736 164 z "},"Ѫ":{"ha":1374,"x_min":-81,"x_max":1331,"o":"m 6 -14 q -81 0 -42 -14 l -75 33 q 35 81 -31 40 q 160 181 100 121 l 378 396 q 586 507 486 501 l 419 769 q 335 844 386 821 q 196 868 283 868 l 204 917 l 1331 917 l 1322 868 q 1175 848 1229 868 q 1065 769 1121 828 l 833 507 q 929 474 888 504 q 1007 388 971 444 l 1144 181 q 1235 81 1185 121 q 1326 33 1285 40 l 1321 0 q 1229 -14 1276 -14 q 1059 23 1131 -14 q 922 167 988 60 l 781 396 l 711 0 l 529 0 l 599 396 l 376 167 q 190 23 275 60 q 6 -14 106 -14 m 701 453 l 1049 854 l 453 854 l 701 453 z "},"Ѳ":{"ha":1021,"x_min":56,"x_max":990,"o":"m 608 944 q 813 896 726 944 q 944 760 899 847 q 990 561 990 674 q 919 279 990 415 q 722 58 849 143 q 438 -28 594 -28 q 233 21 319 -28 q 101 156 147 69 q 56 356 56 243 q 126 638 56 501 q 324 859 197 774 q 608 944 451 944 m 597 882 q 386 774 468 882 q 268 507 304 665 l 797 507 q 803 608 803 556 q 750 811 803 740 q 597 882 697 882 m 449 35 q 672 154 588 35 q 788 444 756 274 l 256 444 q 244 307 244 367 q 297 106 244 176 q 449 35 349 35 z "},"Ѵ":{"ha":928,"x_min":40,"x_max":1003,"o":"m 153 754 q 108 863 133 831 q 40 900 82 894 l 46 928 l 104 931 q 259 896 196 931 q 349 754 322 861 l 471 256 l 743 736 q 957 919 847 919 q 1003 917 978 919 l 999 889 q 930 872 957 885 q 876 829 903 860 q 815 736 850 799 l 396 -14 l 340 -14 l 153 754 z "},"Ғ":{"ha":758,"x_min":56,"x_max":814,"o":"m 713 917 q 814 835 814 917 q 790 688 814 822 l 749 688 q 753 733 753 713 q 715 826 753 797 q 604 854 678 854 l 397 854 l 333 489 l 482 489 l 471 426 l 322 426 l 247 0 l 67 0 l 142 426 l 56 426 l 67 489 l 153 489 q 203 799 203 779 q 185 856 203 838 q 124 875 167 875 l 110 875 l 117 917 l 713 917 z "},"Ҕ":{"ha":857,"x_min":67,"x_max":814,"o":"m 558 597 q 744 535 675 597 q 814 356 814 474 q 807 278 814 324 q 705 36 783 139 q 515 -121 626 -67 q 283 -175 404 -175 l 289 -140 q 422 -86 351 -140 q 549 64 493 -32 q 626 278 606 160 q 633 351 633 322 q 592 485 633 439 q 478 531 550 531 q 333 494 417 531 l 247 0 l 67 0 l 196 736 q 203 799 203 775 q 185 856 203 836 q 124 875 167 875 l 110 875 l 117 917 l 713 917 q 814 835 814 917 q 811 806 814 825 l 790 688 l 749 688 q 753 736 753 715 q 715 826 753 797 q 604 854 678 854 l 397 854 l 344 556 q 457 587 410 576 q 558 597 504 597 z "},"Җ":{"ha":1365,"x_min":-81,"x_max":1428,"o":"m 1419 868 q 1272 848 1326 868 q 1161 769 1217 828 l 924 514 l 1143 181 q 1172 142 1163 151 q 1244 78 1215 94 q 1297 63 1272 63 q 1330 49 1318 63 q 1338 14 1342 35 l 1289 -257 l 1219 -257 q 1222 -186 1222 -204 q 1203 -63 1222 -106 q 1144 -7 1183 -21 q 1026 45 1079 6 q 922 167 972 85 l 781 396 l 711 0 l 529 0 l 599 396 l 376 167 q 189 24 274 61 q 6 -14 104 -14 q -81 0 -39 -14 l -74 33 q 33 81 -31 40 q 158 181 97 121 l 497 514 l 349 769 q 267 847 317 826 q 126 868 218 868 l 135 917 l 218 917 q 347 877 294 917 q 438 771 399 838 l 611 472 l 690 917 l 872 917 l 793 472 l 1072 771 q 1202 878 1136 839 q 1344 917 1268 917 l 1428 917 l 1419 868 z "},"Ҙ":{"ha":806,"x_min":-15,"x_max":786,"o":"m 528 479 q 686 411 635 467 q 738 279 738 356 q 637 67 738 140 q 393 -24 536 -7 l 350 -262 l 264 -262 q 276 -124 276 -174 q 265 -53 276 -76 q 232 -22 254 -29 q 83 36 143 -8 q -15 160 22 81 l 32 194 q 134 78 74 122 q 290 35 194 35 q 414 63 356 35 q 508 146 472 92 q 543 274 543 200 q 489 395 543 353 q 339 438 435 438 l 221 438 l 232 500 l 350 500 q 463 526 406 500 q 558 606 519 553 q 596 732 596 658 q 550 844 596 806 q 446 882 504 882 q 277 821 353 882 q 156 653 201 760 l 113 653 q 140 776 128 735 q 182 847 153 818 q 307 917 225 890 q 464 944 389 944 q 695 903 604 944 q 786 750 786 863 q 720 588 786 664 q 528 479 654 511 z "},"Қ":{"ha":949,"x_min":68,"x_max":993,"o":"m 985 868 q 833 847 899 868 q 713 769 768 825 l 461 514 l 722 181 q 807 93 761 131 q 847 69 831 75 q 881 63 864 63 q 913 49 901 63 q 921 14 925 35 l 872 -257 l 803 -257 q 806 -187 806 -207 q 785 -62 806 -104 q 724 -6 765 -19 q 610 44 665 7 q 499 153 554 81 l 317 386 l 249 0 l 68 0 q 181 647 158 511 q 203 799 203 782 q 185 856 203 838 q 124 875 167 875 l 110 875 l 117 917 l 283 917 q 363 896 339 917 q 388 822 388 875 q 375 736 388 807 q 356 621 363 665 l 331 472 l 624 771 q 753 878 688 839 q 896 917 819 917 l 993 917 l 985 868 z "},"Ҝ":{"ha":1075,"x_min":68,"x_max":1104,"o":"m 1096 868 q 944 847 1010 868 q 825 769 879 825 l 572 514 l 835 181 q 933 81 876 124 q 1029 33 989 39 l 1024 0 q 919 -14 979 -14 q 758 21 832 -14 q 610 153 685 56 l 435 378 l 413 256 l 336 256 l 363 404 l 319 404 l 249 0 l 68 0 l 196 736 q 203 799 203 775 q 185 856 203 836 q 124 875 167 875 l 110 875 l 117 917 l 283 917 q 363 895 339 917 q 388 821 388 874 q 378 736 388 794 l 331 467 l 374 467 l 406 643 l 482 643 l 453 482 l 736 771 q 866 878 800 839 q 1007 917 932 917 l 1104 917 l 1096 868 z "},"Ҡ":{"ha":1136,"x_min":74,"x_max":1165,"o":"m 981 -14 q 819 21 893 -14 q 671 153 746 56 l 489 386 l 421 0 l 240 0 l 389 854 l 304 854 q 179 815 226 854 q 115 688 132 776 l 74 688 l 94 806 q 232 917 114 917 l 582 917 l 504 472 l 797 771 q 927 878 861 839 q 1068 917 993 917 l 1165 917 l 1157 868 q 1006 847 1071 868 q 886 769 940 825 l 633 514 l 896 181 q 994 81 938 124 q 1090 33 1050 39 l 1085 0 q 981 -14 1040 -14 z "},"Ң":{"ha":1000,"x_min":67,"x_max":964,"o":"m 785 -257 q 788 -189 788 -207 q 756 -42 788 -83 q 657 0 725 0 l 622 0 l 700 444 l 325 444 l 247 0 l 67 0 l 196 736 q 203 799 203 775 q 185 856 203 836 q 124 875 167 875 l 110 875 l 117 917 l 283 917 q 363 896 339 917 q 386 822 386 875 q 376 736 386 785 l 336 507 l 711 507 l 783 917 l 964 917 l 814 63 l 863 63 q 894 49 883 63 q 903 14 906 35 l 854 -257 l 785 -257 z "},"Ԥ":{"ha":986,"x_min":67,"x_max":950,"o":"m 849 63 q 881 49 869 63 q 889 14 893 35 l 842 -257 l 772 -257 q 775 -193 775 -210 q 744 -42 775 -85 q 643 0 713 0 l 608 0 l 758 854 l 397 854 l 247 0 l 67 0 q 174 613 144 442 q 203 799 203 785 q 185 856 203 838 q 124 875 167 875 l 110 875 l 117 917 l 950 917 l 800 63 l 849 63 z "},"Ҫ":{"ha":944,"x_min":53,"x_max":933,"o":"m 639 882 q 419 797 508 882 q 288 583 331 713 q 246 322 246 454 q 305 113 246 192 q 490 35 364 35 q 678 86 588 35 q 835 233 769 138 l 876 196 q 716 43 803 96 q 517 -24 629 -10 l 474 -262 l 388 -262 q 400 -122 400 -174 q 389 -52 400 -75 q 354 -22 378 -29 q 131 98 208 0 q 53 342 53 196 q 126 626 53 486 q 326 855 199 765 q 608 944 453 944 q 832 903 731 944 q 933 757 933 863 q 917 621 933 704 l 875 621 q 813 815 872 749 q 639 882 753 882 z "},"Ү":{"ha":888,"x_min":40,"x_max":972,"o":"m 379 367 l 199 736 q 128 839 172 794 q 40 889 83 883 l 46 917 l 197 917 q 317 873 268 917 q 396 764 365 829 l 535 479 l 882 917 l 972 917 l 567 404 l 496 0 l 315 0 l 379 367 z "},"Ұ":{"ha":888,"x_min":40,"x_max":972,"o":"m 568 406 l 686 406 l 675 343 l 556 343 l 496 0 l 315 0 l 375 343 l 260 343 l 271 406 l 360 406 l 199 736 q 128 839 172 794 q 40 889 83 883 l 46 917 l 197 917 q 317 873 268 917 q 396 764 365 829 l 535 479 l 882 917 l 972 917 l 568 406 z "},"Ҷ":{"ha":917,"x_min":79,"x_max":906,"o":"m 804 63 q 837 49 825 63 q 844 14 849 35 l 797 -257 l 728 -257 q 731 -193 731 -210 q 699 -42 731 -85 q 599 0 668 0 l 564 0 l 626 361 q 545 340 594 347 q 443 333 496 333 q 142 563 142 333 q 157 678 142 607 q 165 724 158 685 q 172 799 172 763 q 154 856 172 838 q 93 875 136 875 l 79 875 l 86 917 l 253 917 q 332 896 308 917 q 356 824 356 875 q 339 699 356 782 q 321 563 321 617 q 364 439 321 482 q 481 396 407 396 q 638 424 564 396 l 725 917 l 906 917 l 756 63 l 804 63 z "},"Ҹ":{"ha":917,"x_min":79,"x_max":906,"o":"m 906 917 l 744 0 l 564 0 l 626 361 q 511 336 583 343 l 483 181 l 407 181 l 435 333 q 142 563 142 338 q 157 678 142 607 q 165 724 158 685 q 172 799 172 763 q 154 856 172 838 q 93 875 136 875 l 79 875 l 86 917 l 253 917 q 332 896 308 917 q 356 824 356 875 q 339 699 356 782 q 321 563 321 617 q 354 450 321 492 q 446 399 388 408 l 471 540 l 547 540 l 522 397 q 638 424 583 403 l 725 917 l 906 917 z "},"Һ":{"ha":917,"x_min":58,"x_max":885,"o":"m 338 556 q 419 576 369 569 q 521 583 468 583 q 822 354 822 583 q 807 239 822 310 q 799 193 806 232 q 792 118 792 154 q 810 60 792 79 q 871 42 828 42 l 885 42 l 878 0 l 711 0 q 632 21 656 0 q 608 93 608 42 q 625 218 608 135 q 643 354 643 300 q 600 478 643 435 q 483 521 557 521 q 326 493 400 521 l 239 0 l 58 0 l 219 917 l 400 917 l 338 556 z "},"Ӏ":{"ha":426,"x_min":67,"x_max":386,"o":"m 169 0 q 90 22 114 0 q 67 96 67 43 q 75 181 67 131 l 206 917 l 386 917 l 256 181 q 250 121 250 151 q 268 62 250 82 q 329 42 286 42 l 343 42 l 336 0 l 169 0 z "},"Ӂ":{"ha":1374,"x_min":-81,"x_max":1428,"o":"m 6 -14 q -81 0 -39 -14 l -74 33 q 33 81 -31 40 q 158 181 97 121 l 497 514 l 349 769 q 267 847 317 826 q 126 868 218 868 l 135 917 l 218 917 q 347 877 294 917 q 438 771 399 838 l 611 472 l 690 917 l 872 917 l 793 472 l 1072 771 q 1202 878 1136 839 q 1344 917 1268 917 l 1428 917 l 1419 868 q 1272 848 1326 868 q 1161 769 1217 828 l 924 514 l 1143 181 q 1233 81 1182 121 q 1326 33 1283 40 l 1321 0 q 1229 -14 1276 -14 q 1059 24 1131 -14 q 922 167 988 61 l 781 396 l 711 0 l 529 0 l 599 396 l 376 167 q 189 24 274 61 q 6 -14 104 -14 m 776 979 q 665 1015 710 979 q 604 1110 621 1050 l 649 1139 q 703 1090 667 1110 q 793 1069 739 1069 q 890 1089 847 1069 q 963 1139 932 1108 l 996 1110 q 901 1015 958 1050 q 776 979 843 979 z "},"Ӌ":{"ha":915,"x_min":79,"x_max":906,"o":"m 756 63 l 744 0 l 710 0 q 619 -23 657 0 q 551 -101 582 -46 q 490 -257 519 -157 l 421 -257 l 469 14 q 490 49 474 35 q 526 63 506 63 l 575 63 l 626 361 q 545 340 594 347 q 443 333 496 333 q 142 563 142 333 q 157 678 142 607 q 165 724 158 685 q 172 799 172 763 q 154 856 172 838 q 93 875 136 875 l 79 875 l 86 917 l 253 917 q 332 896 308 917 q 356 824 356 875 q 339 699 356 782 q 321 563 321 617 q 364 439 321 482 q 481 396 407 396 q 638 424 564 396 l 725 917 l 906 917 l 756 63 z "},"Ӑ":{"ha":899,"x_min":-51,"x_max":882,"o":"m 808 -6 q 656 32 722 -6 q 567 175 590 69 l 549 253 l 179 253 l 21 0 l -51 0 l 519 917 l 582 917 l 763 175 q 882 36 796 46 l 876 1 q 808 -6 851 -6 m 219 315 l 533 315 l 444 678 l 219 315 m 556 979 q 444 1015 489 979 q 383 1110 400 1050 l 428 1139 q 482 1090 446 1110 q 572 1069 518 1069 q 669 1089 626 1069 q 742 1139 711 1108 l 775 1110 q 680 1015 738 1050 q 556 979 622 979 z "},"Ӓ":{"ha":899,"x_min":-51,"x_max":882,"o":"m 808 -6 q 656 32 722 -6 q 567 175 590 69 l 549 253 l 179 253 l 21 0 l -51 0 l 519 917 l 582 917 l 763 175 q 882 36 796 46 l 876 1 q 808 -6 851 -6 m 219 315 l 533 315 l 444 678 l 219 315 m 444 1007 q 396 1024 413 1007 q 379 1068 379 1042 q 406 1134 379 1106 q 472 1163 433 1163 q 521 1145 504 1163 q 538 1099 538 1128 q 510 1035 538 1063 q 444 1007 482 1007 m 694 1007 q 646 1024 663 1007 q 629 1068 629 1042 q 656 1134 629 1106 q 722 1163 683 1163 q 771 1145 754 1163 q 788 1099 788 1128 q 760 1035 788 1063 q 694 1007 732 1007 z "},"Ӗ":{"ha":836,"x_min":67,"x_max":831,"o":"m 67 0 q 174 613 144 442 q 203 799 203 783 q 185 856 203 838 q 124 875 167 875 l 110 875 l 117 917 l 729 917 q 831 836 831 917 q 807 688 831 824 l 765 688 q 769 733 769 713 q 621 854 769 854 l 397 854 l 336 507 l 697 507 l 686 444 l 325 444 l 257 63 l 494 63 q 633 98 574 63 q 743 221 692 133 l 778 207 l 718 97 q 662 23 690 46 q 581 0 633 0 l 67 0 m 524 979 q 413 1015 457 979 q 351 1110 368 1050 l 396 1139 q 450 1090 414 1110 q 540 1069 486 1069 q 637 1089 594 1069 q 710 1139 679 1108 l 743 1110 q 648 1015 706 1050 q 524 979 590 979 z "},"Ә":{"ha":992,"x_min":47,"x_max":961,"o":"m 411 -28 q 138 57 229 -28 q 47 301 47 142 q 56 401 47 350 q 75 488 61 439 l 764 488 q 778 624 778 574 q 540 882 778 882 q 367 836 444 882 q 200 686 289 790 l 147 732 q 335 886 228 828 q 574 944 442 944 q 781 895 693 944 q 915 758 868 846 q 961 556 961 671 q 951 450 961 500 q 847 190 925 299 q 655 27 768 82 q 411 -28 542 -28 m 418 35 q 624 119 535 35 q 747 396 714 203 l 236 396 q 224 263 224 321 q 418 35 224 35 z "},"Ӝ":{"ha":1374,"x_min":-81,"x_max":1428,"o":"m 6 -14 q -81 0 -39 -14 l -74 33 q 33 81 -31 40 q 158 181 97 121 l 497 514 l 349 769 q 267 847 317 826 q 126 868 218 868 l 135 917 l 218 917 q 347 877 294 917 q 438 771 399 838 l 611 472 l 690 917 l 872 917 l 793 472 l 1072 771 q 1202 878 1136 839 q 1344 917 1268 917 l 1428 917 l 1419 868 q 1272 848 1326 868 q 1161 769 1217 828 l 924 514 l 1143 181 q 1233 81 1182 121 q 1326 33 1283 40 l 1321 0 q 1229 -14 1276 -14 q 1059 24 1131 -14 q 922 167 988 61 l 781 396 l 711 0 l 529 0 l 599 396 l 376 167 q 189 24 274 61 q 6 -14 104 -14 m 665 1007 q 617 1024 633 1007 q 600 1068 600 1042 q 627 1134 600 1106 q 693 1163 654 1163 q 742 1145 725 1163 q 758 1099 758 1128 q 731 1035 758 1063 q 665 1007 703 1007 m 915 1007 q 867 1024 883 1007 q 850 1068 850 1042 q 877 1134 850 1106 q 943 1163 904 1163 q 992 1145 975 1163 q 1008 1099 1008 1128 q 981 1035 1008 1063 q 915 1007 953 1007 z "},"Ӟ":{"ha":806,"x_min":-15,"x_max":786,"o":"m 314 -28 q 110 18 189 -28 q -15 160 31 64 l 32 194 q 134 78 74 122 q 290 35 194 35 q 414 63 356 35 q 508 146 472 92 q 543 274 543 200 q 489 395 543 353 q 339 438 435 438 l 221 438 l 232 500 l 350 500 q 463 526 406 500 q 558 606 519 553 q 596 732 596 658 q 550 844 596 806 q 446 882 504 882 q 277 821 353 882 q 156 653 201 760 l 113 653 q 140 776 128 735 q 182 847 153 818 q 307 917 225 890 q 464 944 389 944 q 695 903 604 944 q 786 750 786 863 q 720 588 786 664 q 528 479 654 511 q 686 411 635 467 q 738 279 738 356 q 672 99 738 168 q 508 1 606 31 q 314 -28 411 -28 m 342 1007 q 293 1024 310 1007 q 276 1068 276 1042 q 303 1134 276 1106 q 369 1163 331 1163 q 418 1145 401 1163 q 435 1099 435 1128 q 407 1035 435 1063 q 342 1007 379 1007 m 592 1007 q 543 1024 560 1007 q 526 1068 526 1042 q 553 1134 526 1106 q 619 1163 581 1163 q 668 1145 651 1163 q 685 1099 685 1128 q 657 1035 685 1063 q 592 1007 629 1007 z "},"Ӣ":{"ha":989,"x_min":67,"x_max":978,"o":"m 67 0 q 174 613 144 442 q 203 799 203 785 q 185 856 203 838 q 124 875 167 875 l 110 875 l 117 917 l 283 917 q 363 896 339 917 q 386 824 386 875 q 368 691 386 803 q 278 181 350 579 l 811 917 l 978 917 l 817 0 l 636 0 l 765 736 l 233 0 l 67 0 m 408 1038 l 408 1156 l 796 1156 l 796 1038 l 408 1038 z "},"Ӥ":{"ha":989,"x_min":67,"x_max":978,"o":"m 67 0 q 174 613 144 442 q 203 799 203 785 q 185 856 203 838 q 124 875 167 875 l 110 875 l 117 917 l 283 917 q 363 896 339 917 q 386 824 386 875 q 368 691 386 803 q 278 181 350 579 l 811 917 l 978 917 l 817 0 l 636 0 l 765 736 l 233 0 l 67 0 m 475 1007 q 426 1024 443 1007 q 410 1068 410 1042 q 437 1134 410 1106 q 503 1163 464 1163 q 551 1145 535 1163 q 568 1099 568 1128 q 540 1035 568 1063 q 475 1007 513 1007 m 725 1007 q 676 1024 693 1007 q 660 1068 660 1042 q 687 1134 660 1106 q 753 1163 714 1163 q 801 1145 785 1163 q 818 1099 818 1128 q 790 1035 818 1063 q 725 1007 763 1007 z "},"Ӧ":{"ha":1021,"x_min":56,"x_max":990,"o":"m 438 -28 q 233 21 319 -28 q 101 156 147 69 q 56 356 56 243 q 126 638 56 501 q 324 859 197 774 q 608 944 451 944 q 813 896 726 944 q 944 760 899 847 q 990 561 990 674 q 919 279 990 415 q 722 58 849 143 q 438 -28 594 -28 m 449 35 q 649 128 569 35 q 766 353 729 221 q 803 608 803 486 q 750 811 803 740 q 597 882 697 882 q 398 788 478 882 q 281 560 318 694 q 244 307 244 426 q 297 106 244 176 q 449 35 349 35 m 506 1007 q 457 1024 474 1007 q 440 1068 440 1042 q 467 1134 440 1106 q 533 1163 494 1163 q 582 1145 565 1163 q 599 1099 599 1128 q 571 1035 599 1063 q 506 1007 543 1007 m 756 1007 q 707 1024 724 1007 q 690 1068 690 1042 q 717 1134 690 1106 q 783 1163 744 1163 q 832 1145 815 1163 q 849 1099 849 1128 q 821 1035 849 1063 q 756 1007 793 1007 z "},"Ө":{"ha":1021,"x_min":56,"x_max":990,"o":"m 608 944 q 813 896 726 944 q 944 760 899 847 q 990 561 990 674 q 919 279 990 415 q 722 58 849 143 q 438 -28 594 -28 q 233 21 319 -28 q 101 156 147 69 q 56 356 56 243 q 126 638 56 501 q 324 859 197 774 q 608 944 451 944 m 597 882 q 386 774 468 882 q 268 507 304 665 l 797 507 q 803 608 803 556 q 750 811 803 740 q 597 882 697 882 m 449 35 q 672 154 588 35 q 788 444 756 274 l 256 444 q 244 307 244 367 q 297 106 244 176 q 449 35 349 35 z "},"Ӯ":{"ha":857,"x_min":40,"x_max":939,"o":"m 131 36 q 260 56 204 36 q 354 132 317 76 l 368 153 l 186 736 q 40 889 142 879 l 46 917 l 185 917 q 311 875 261 917 q 383 764 361 833 l 507 372 l 849 917 l 939 917 l 444 132 q 337 24 401 63 q 192 -14 272 -14 l 122 -14 l 131 36 m 385 1038 l 385 1156 l 772 1156 l 772 1038 l 385 1038 z "},"Ӱ":{"ha":857,"x_min":40,"x_max":939,"o":"m 131 36 q 260 56 204 36 q 354 132 317 76 l 368 153 l 186 736 q 40 889 142 879 l 46 917 l 185 917 q 311 875 261 917 q 383 764 361 833 l 507 372 l 849 917 l 939 917 l 444 132 q 337 24 401 63 q 192 -14 272 -14 l 122 -14 l 131 36 m 451 1007 q 403 1024 419 1007 q 386 1068 386 1042 q 413 1134 386 1106 q 479 1163 440 1163 q 528 1145 511 1163 q 544 1099 544 1128 q 517 1035 544 1063 q 451 1007 489 1007 m 701 1007 q 653 1024 669 1007 q 636 1068 636 1042 q 663 1134 636 1106 q 729 1163 690 1163 q 778 1145 761 1163 q 794 1099 794 1128 q 767 1035 794 1063 q 701 1007 739 1007 z "},"Ӳ":{"ha":857,"x_min":40,"x_max":939,"o":"m 131 36 q 260 56 204 36 q 354 132 317 76 l 368 153 l 186 736 q 40 889 142 879 l 46 917 l 185 917 q 311 875 261 917 q 383 764 361 833 l 507 372 l 849 917 l 939 917 l 444 132 q 337 24 401 63 q 192 -14 272 -14 l 122 -14 l 131 36 m 468 993 l 526 1188 l 636 1188 l 517 993 l 468 993 m 621 993 l 679 1188 l 789 1188 l 669 993 l 621 993 z "},"Ӵ":{"ha":917,"x_min":79,"x_max":906,"o":"m 626 361 q 545 340 594 347 q 443 333 496 333 q 142 563 142 333 q 157 678 142 607 q 165 724 158 685 q 172 799 172 763 q 154 856 172 838 q 93 875 136 875 l 79 875 l 86 917 l 253 917 q 332 896 308 917 q 356 824 356 875 q 339 699 356 782 q 321 563 321 617 q 364 439 321 482 q 481 396 407 396 q 638 424 564 396 l 725 917 l 906 917 l 744 0 l 564 0 l 626 361 m 411 1007 q 363 1024 379 1007 q 346 1068 346 1042 q 373 1134 346 1106 q 439 1163 400 1163 q 488 1145 471 1163 q 504 1099 504 1128 q 476 1035 504 1063 q 411 1007 449 1007 m 661 1007 q 613 1024 629 1007 q 596 1068 596 1042 q 623 1134 596 1106 q 689 1163 650 1163 q 738 1145 721 1163 q 754 1099 754 1128 q 726 1035 754 1063 q 661 1007 699 1007 z "},"Ӷ":{"ha":758,"x_min":67,"x_max":814,"o":"m 713 917 q 814 835 814 917 q 790 688 814 822 l 749 688 q 753 733 753 713 q 715 826 753 797 q 604 854 678 854 l 397 854 l 258 63 l 307 63 q 340 49 328 63 q 347 14 351 35 l 300 -257 l 231 -257 q 233 -193 233 -210 q 202 -42 233 -85 q 101 0 171 0 l 67 0 q 174 613 144 442 q 203 799 203 785 q 185 856 203 838 q 124 875 167 875 l 110 875 l 117 917 l 713 917 z "},"Ӹ":{"ha":1246,"x_min":67,"x_max":1206,"o":"m 67 0 q 174 613 144 442 q 203 799 203 785 q 185 856 203 838 q 124 875 167 875 l 110 875 l 117 917 l 283 917 q 363 896 339 917 q 386 824 386 875 q 376 742 386 806 q 342 542 367 679 l 453 542 q 715 491 611 542 q 819 321 819 440 q 683 73 819 146 q 358 0 547 0 l 67 0 m 989 0 q 909 22 933 0 q 885 96 885 43 q 908 259 885 118 q 1025 917 932 400 l 1206 917 l 1139 539 q 1097 301 1126 469 q 1068 121 1068 133 q 1086 62 1068 82 q 1149 42 1104 42 l 1163 42 l 1156 0 l 989 0 m 347 56 q 554 126 482 56 q 626 328 626 197 q 576 447 626 407 q 422 486 526 486 q 357 479 385 486 l 329 472 l 258 69 q 283 63 271 64 q 347 56 311 56 m 618 1007 q 569 1024 586 1007 q 553 1068 553 1042 q 580 1134 553 1106 q 646 1163 607 1163 q 694 1145 678 1163 q 711 1099 711 1128 q 683 1035 711 1063 q 618 1007 656 1007 m 868 1007 q 819 1024 836 1007 q 803 1068 803 1042 q 830 1134 803 1106 q 896 1163 857 1163 q 944 1145 928 1163 q 961 1099 961 1128 q 933 1035 961 1063 q 868 1007 906 1007 z "},"Ԛ":{"ha":1024,"x_min":57,"x_max":992,"o":"m 844 -285 q 533 -218 674 -285 q 299 -6 393 -151 q 121 126 185 29 q 57 356 57 224 q 128 638 57 501 q 326 859 199 774 q 610 944 453 944 q 814 896 728 944 q 946 760 900 847 q 992 561 992 674 q 940 319 992 436 q 794 115 889 203 q 574 -10 700 28 q 628 -130 585 -75 q 733 -217 672 -185 q 851 -249 793 -249 l 844 -285 m 450 35 q 651 128 571 35 q 767 353 731 221 q 804 608 804 486 q 751 811 804 740 q 599 882 699 882 q 399 788 479 882 q 283 560 319 694 q 246 307 246 426 q 298 106 246 176 q 450 35 350 35 z "},"Ԝ":{"ha":1257,"x_min":32,"x_max":1317,"o":"m 143 754 q 101 863 126 831 q 32 900 75 894 l 36 928 l 96 931 q 253 897 189 931 q 339 754 317 863 l 442 275 l 631 631 l 603 754 q 557 862 588 829 q 482 900 526 894 l 486 928 l 542 931 q 699 897 636 931 q 785 754 763 863 l 894 249 l 1250 917 l 1317 917 l 824 -12 l 768 -12 l 650 532 l 364 -12 l 308 -12 l 143 754 z "},"а":{"ha":764,"x_min":33,"x_max":725,"o":"m 275 -14 q 94 56 156 -14 q 33 236 33 125 q 77 436 33 336 q 203 601 121 536 q 394 667 286 667 q 508 628 467 667 q 540 590 529 610 l 547 590 l 607 653 l 725 653 l 635 139 l 611 0 l 493 0 l 454 63 l 447 63 q 403 24 431 42 q 275 -14 350 -14 m 314 49 q 367 60 343 49 q 415 93 390 72 q 454 139 436 111 l 521 514 q 497 558 513 539 q 411 604 463 604 q 301 533 344 604 q 237 365 257 461 q 217 200 217 269 q 314 49 217 49 z "},"б":{"ha":764,"x_min":50,"x_max":781,"o":"m 317 -14 q 120 53 190 -14 q 50 246 50 121 q 101 546 50 415 q 232 754 153 676 q 394 851 311 832 l 594 896 q 697 926 663 911 q 739 965 731 940 l 781 965 l 761 854 q 661 764 750 783 l 425 713 q 261 622 331 692 q 165 431 192 553 l 172 431 q 290 565 221 518 q 454 611 358 611 q 633 553 567 611 q 699 381 699 496 q 648 161 699 250 q 510 29 597 72 q 317 -14 424 -14 m 328 49 q 433 108 392 49 q 493 249 474 168 q 513 396 513 331 q 483 513 513 476 q 415 549 454 549 q 310 489 351 549 q 249 347 268 429 q 229 200 229 265 q 258 84 229 119 q 328 49 288 49 z "},"в":{"ha":733,"x_min":39,"x_max":675,"o":"m 103 375 q 128 535 128 526 q 110 592 128 574 q 49 611 92 611 l 42 611 l 49 653 l 421 653 q 607 617 539 653 q 675 511 675 581 q 621 396 675 439 q 471 340 567 353 q 601 296 553 331 q 649 204 649 261 q 556 51 649 101 q 307 0 464 0 l 39 0 l 103 375 m 333 375 q 440 412 394 375 q 486 508 486 449 q 457 574 486 551 q 386 597 428 597 q 322 588 353 597 l 285 375 l 333 375 m 292 56 q 413 96 364 56 q 461 210 461 136 q 425 286 461 260 q 322 313 389 313 l 274 313 l 231 65 q 292 56 260 56 z "},"г":{"ha":625,"x_min":-19,"x_max":590,"o":"m 236 -14 q 51 26 121 -14 q -19 140 -19 67 q 38 275 -19 222 q 213 372 96 328 l 301 407 q 390 458 361 431 q 419 529 419 485 q 394 584 419 564 q 317 604 369 604 q 185 560 238 604 q 108 444 132 515 l 60 444 q 101 579 75 533 q 186 646 128 625 q 356 667 244 667 q 526 627 463 667 q 590 514 590 588 q 534 383 590 438 q 375 286 478 328 l 297 256 q 187 199 222 228 q 151 124 151 169 q 275 49 151 49 q 406 92 354 49 q 483 208 457 136 l 532 208 q 490 74 517 119 q 406 7 464 28 q 236 -14 347 -14 z "},"ѓ":{"ha":625,"x_min":-19,"x_max":590,"o":"m 236 -14 q 51 26 121 -14 q -19 140 -19 67 q 38 275 -19 222 q 213 372 96 328 l 301 407 q 390 458 361 431 q 419 529 419 485 q 394 584 419 564 q 317 604 369 604 q 185 560 238 604 q 108 444 132 515 l 60 444 q 101 579 75 533 q 186 646 128 625 q 356 667 244 667 q 526 627 463 667 q 590 514 590 588 q 534 383 590 438 q 375 286 478 328 l 297 256 q 187 199 222 228 q 151 124 151 169 q 275 49 151 49 q 406 92 354 49 q 483 208 457 136 l 532 208 q 490 74 517 119 q 406 7 464 28 q 236 -14 347 -14 m 322 729 l 415 924 l 581 924 l 399 729 l 322 729 z "},"ґ":{"ha":607,"x_min":39,"x_max":658,"o":"m 103 375 q 128 535 128 526 q 110 592 128 574 q 49 611 92 611 l 42 611 l 49 653 l 458 653 q 564 688 524 653 q 617 799 604 722 l 658 799 l 642 701 q 603 622 633 653 q 517 590 574 590 l 322 590 l 219 0 l 39 0 l 103 375 z "},"д":{"ha":781,"x_min":35,"x_max":735,"o":"m 317 -14 q 106 56 178 -14 q 35 243 35 126 q 83 448 35 354 q 220 597 132 542 q 419 653 308 653 q 540 624 489 653 q 608 542 592 594 q 611 596 611 578 q 560 784 611 714 q 400 854 510 854 q 292 835 349 854 q 206 800 235 817 l 182 858 q 290 907 218 883 q 442 931 363 931 q 663 827 592 931 q 735 554 735 724 q 687 258 735 386 q 545 58 639 129 q 317 -14 451 -14 m 328 49 q 444 117 390 49 q 521 318 497 185 q 529 417 529 368 q 503 542 529 493 q 422 590 478 590 q 315 530 361 590 q 244 381 268 469 q 219 215 219 293 q 249 90 219 132 q 328 49 278 49 z "},"е":{"ha":706,"x_min":35,"x_max":681,"o":"m 301 -14 q 106 60 176 -14 q 35 253 35 133 q 83 455 35 360 q 219 608 131 550 q 421 667 307 667 q 613 622 544 667 q 681 497 681 576 q 588 332 681 386 q 367 278 494 278 l 221 278 q 213 200 213 235 q 244 87 213 125 q 333 49 276 49 q 450 78 400 49 q 551 164 500 108 l 589 132 q 470 28 538 69 q 301 -14 403 -14 m 378 340 q 461 392 429 340 q 493 503 493 443 q 469 578 493 553 q 410 604 444 604 q 232 340 276 604 l 378 340 z "},"ѐ":{"ha":706,"x_min":35,"x_max":681,"o":"m 301 -14 q 106 60 176 -14 q 35 253 35 133 q 83 455 35 360 q 219 608 131 550 q 421 667 307 667 q 613 622 544 667 q 681 497 681 576 q 588 332 681 386 q 367 278 494 278 l 221 278 q 213 200 213 235 q 244 87 213 125 q 333 49 276 49 q 450 78 400 49 q 551 164 500 108 l 589 132 q 470 28 538 69 q 301 -14 403 -14 m 378 340 q 461 392 429 340 q 493 503 493 443 q 469 578 493 553 q 410 604 444 604 q 232 340 276 604 l 378 340 m 374 729 l 261 924 l 426 924 l 450 729 l 374 729 z "},"ё":{"ha":706,"x_min":35,"x_max":681,"o":"m 301 -14 q 106 60 176 -14 q 35 253 35 133 q 83 455 35 360 q 219 608 131 550 q 421 667 307 667 q 613 622 544 667 q 681 497 681 576 q 588 332 681 386 q 367 278 494 278 l 221 278 q 213 200 213 235 q 244 87 213 125 q 333 49 276 49 q 450 78 400 49 q 551 164 500 108 l 589 132 q 470 28 538 69 q 301 -14 403 -14 m 378 340 q 461 392 429 340 q 493 503 493 443 q 469 578 493 553 q 410 604 444 604 q 232 340 276 604 l 378 340 m 300 743 q 251 760 268 743 q 235 804 235 778 q 262 870 235 842 q 328 899 289 899 q 376 881 360 899 q 393 835 393 864 q 365 771 393 799 q 300 743 338 743 m 550 743 q 501 760 518 743 q 485 804 485 778 q 512 870 485 842 q 578 899 539 899 q 626 881 610 899 q 643 835 643 864 q 615 771 643 799 q 550 743 588 743 z "},"ж":{"ha":1029,"x_min":-65,"x_max":1033,"o":"m 28 -14 q -27 -10 1 -14 q -65 0 -56 -6 l -60 33 q 88 139 10 50 l 303 383 l 210 547 q 158 600 189 583 q 83 617 126 617 l 89 653 l 117 653 q 227 628 188 653 q 299 546 267 603 l 417 340 l 471 653 l 651 653 l 597 340 l 788 546 q 889 628 842 603 q 1006 653 936 653 l 1033 653 l 1028 617 q 876 547 940 617 l 725 383 l 854 139 q 965 33 901 50 l 960 0 q 918 -10 949 -6 q 861 -14 888 -14 q 756 15 800 -14 q 676 111 713 43 l 586 282 l 538 0 l 357 0 l 406 282 l 257 111 q 142 15 196 43 q 28 -14 89 -14 z "},"з":{"ha":640,"x_min":-8,"x_max":590,"o":"m 229 -14 q -8 97 58 -14 l 39 132 q 99 73 63 97 q 199 49 135 49 q 322 89 274 49 q 369 211 369 129 q 336 283 369 260 q 222 306 303 306 l 153 306 l 164 368 l 233 368 q 363 401 322 368 q 403 513 403 435 q 372 581 403 558 q 296 604 342 604 q 183 562 233 604 q 117 451 132 519 l 75 451 q 101 561 90 528 q 139 618 113 594 q 222 655 168 643 q 342 667 275 667 q 524 629 458 667 q 590 518 590 592 q 537 394 590 443 q 394 333 483 344 q 513 287 469 324 q 556 196 556 250 q 464 38 556 90 q 229 -14 372 -14 z "},"и":{"ha":788,"x_min":26,"x_max":749,"o":"m 285 -14 q 119 28 172 -14 q 65 165 65 71 q 76 251 65 185 q 113 472 86 318 q 119 535 119 517 q 101 592 119 574 q 40 611 83 611 l 26 611 l 33 653 l 200 653 q 279 632 256 653 q 303 560 303 611 q 293 472 303 517 q 256 245 267 315 q 244 158 244 175 q 267 74 244 99 q 338 49 290 49 q 390 60 367 49 q 439 93 414 72 q 478 139 460 111 l 568 653 l 749 653 l 635 0 l 517 0 l 478 63 l 471 63 q 419 24 451 43 q 285 -14 360 -14 z "},"й":{"ha":788,"x_min":26,"x_max":749,"o":"m 285 -14 q 119 28 172 -14 q 65 165 65 71 q 76 251 65 185 q 113 472 86 318 q 119 535 119 517 q 101 592 119 574 q 40 611 83 611 l 26 611 l 33 653 l 200 653 q 279 632 256 653 q 303 560 303 611 q 293 472 303 517 q 256 245 267 315 q 244 158 244 175 q 267 74 244 99 q 338 49 290 49 q 390 60 367 49 q 439 93 414 72 q 478 139 460 111 l 568 653 l 749 653 l 635 0 l 517 0 l 478 63 l 471 63 q 419 24 451 43 q 285 -14 360 -14 m 442 708 q 331 744 375 708 q 269 839 286 779 l 314 868 q 368 819 332 839 q 458 799 404 799 q 555 818 513 799 q 628 868 597 838 l 661 839 q 566 744 624 779 q 442 708 508 708 z "},"ѝ":{"ha":788,"x_min":26,"x_max":749,"o":"m 285 -14 q 119 28 172 -14 q 65 165 65 71 q 76 251 65 185 q 113 472 86 318 q 119 535 119 517 q 101 592 119 574 q 40 611 83 611 l 26 611 l 33 653 l 200 653 q 279 632 256 653 q 303 560 303 611 q 293 472 303 517 q 256 245 267 315 q 244 158 244 175 q 267 74 244 99 q 338 49 290 49 q 390 60 367 49 q 439 93 414 72 q 478 139 460 111 l 568 653 l 749 653 l 635 0 l 517 0 l 478 63 l 471 63 q 419 24 451 43 q 285 -14 360 -14 m 388 729 l 275 924 l 440 924 l 464 729 l 388 729 z "},"к":{"ha":732,"x_min":42,"x_max":736,"o":"m 564 -14 q 456 12 503 -14 q 376 97 410 38 l 274 272 l 226 0 l 46 0 l 110 375 q 135 535 135 526 q 117 592 135 574 q 56 611 99 611 l 42 611 l 49 653 l 215 653 q 294 632 271 653 q 318 560 318 611 q 303 443 318 538 l 286 340 l 490 546 q 594 628 547 603 q 708 653 640 653 l 736 653 l 731 617 q 652 600 689 617 q 579 547 615 583 l 415 383 l 557 139 q 668 33 608 46 l 663 0 q 621 -10 651 -6 q 564 -14 590 -14 z "},"ќ":{"ha":732,"x_min":42,"x_max":736,"o":"m 564 -14 q 456 12 503 -14 q 376 97 410 38 l 274 272 l 226 0 l 46 0 l 110 375 q 135 535 135 526 q 117 592 135 574 q 56 611 99 611 l 42 611 l 49 653 l 215 653 q 294 632 271 653 q 318 560 318 611 q 303 443 318 538 l 286 340 l 490 546 q 594 628 547 603 q 708 653 640 653 l 736 653 l 731 617 q 652 600 689 617 q 579 547 615 583 l 415 383 l 557 139 q 668 33 608 46 l 663 0 q 621 -10 651 -6 q 564 -14 590 -14 m 392 729 l 485 924 l 650 924 l 468 729 l 392 729 z "},"л":{"ha":790,"x_min":-60,"x_max":751,"o":"m 21 -21 q -24 -17 0 -21 q -60 -8 -47 -12 l -53 32 q 48 80 4 40 q 131 217 92 119 q 201 486 169 314 q 206 533 206 511 q 186 591 206 571 q 119 611 167 611 l 126 653 l 751 653 l 638 0 l 457 0 l 560 590 l 364 590 l 346 486 q 216 99 299 218 q 21 -21 133 -21 z "},"м":{"ha":929,"x_min":18,"x_max":872,"o":"m 850 -35 q 666 13 724 -35 q 608 158 608 60 q 617 238 608 181 q 658 478 625 296 l 375 0 l 329 0 l 174 492 l 88 1 l 18 1 l 132 653 l 301 653 l 433 235 l 690 667 l 872 667 q 799 239 814 333 q 783 117 783 144 q 857 0 783 15 l 850 -35 z "},"н":{"ha":810,"x_min":42,"x_max":747,"o":"m 110 375 q 135 535 135 526 q 117 592 135 574 q 56 611 99 611 l 42 611 l 49 653 l 215 653 q 294 632 271 653 q 318 560 318 611 q 289 361 318 521 l 511 361 l 563 653 l 743 653 q 653 121 653 151 q 671 62 653 82 q 733 42 689 42 l 747 42 l 740 0 l 574 0 q 494 22 518 0 q 469 96 469 43 q 476 159 469 113 q 500 299 483 206 l 278 299 l 226 0 l 46 0 l 110 375 z "},"о":{"ha":768,"x_min":33,"x_max":714,"o":"m 314 -14 q 107 60 181 -14 q 33 256 33 135 q 85 455 33 360 q 229 608 138 550 q 433 667 321 667 q 640 592 567 667 q 714 397 714 518 q 662 198 714 293 q 518 44 610 103 q 314 -14 426 -14 m 325 49 q 440 115 394 49 q 508 272 486 181 q 529 435 529 363 q 503 560 529 515 q 422 604 476 604 q 307 538 353 604 q 240 381 261 472 q 218 218 218 290 q 244 93 218 138 q 325 49 271 49 z "},"п":{"ha":801,"x_min":42,"x_max":735,"o":"m 126 472 q 133 538 133 517 q 116 592 133 574 q 56 611 99 611 l 42 611 l 49 653 l 186 653 q 258 641 233 653 q 294 601 283 629 q 508 667 371 667 q 678 622 622 667 q 735 483 735 578 q 728 411 735 456 l 656 0 l 475 0 l 547 413 q 553 476 553 440 q 447 597 553 597 q 369 585 404 597 q 313 554 335 574 q 314 526 314 544 q 310 481 314 501 l 225 0 l 44 0 l 126 472 z "},"р":{"ha":790,"x_min":-3,"x_max":735,"o":"m -3 -264 q 104 350 75 179 q 133 536 133 521 q 116 593 133 575 q 56 611 99 611 l 42 611 l 49 653 l 186 653 q 260 640 235 653 q 293 594 285 626 q 494 667 382 667 q 674 597 613 667 q 735 413 735 528 q 689 205 735 303 q 560 47 643 107 q 368 -14 476 -14 q 265 7 310 -14 q 229 28 243 15 l 178 -264 l -3 -264 m 351 49 q 468 121 424 49 q 532 288 513 193 q 551 453 551 382 q 529 565 551 526 q 456 604 507 604 q 311 547 378 604 l 311 540 l 313 521 q 240 90 313 496 q 269 69 253 78 q 351 49 308 49 z "},"с":{"ha":692,"x_min":35,"x_max":660,"o":"m 315 -14 q 106 59 176 -14 q 35 250 35 132 q 85 459 35 364 q 226 610 135 554 q 435 667 317 667 q 594 647 529 667 q 660 556 660 626 q 642 424 660 517 l 600 424 q 601 457 601 435 q 561 567 601 531 q 444 604 521 604 q 316 540 367 604 q 242 387 265 476 q 218 218 218 297 q 354 49 218 49 q 471 78 421 49 q 572 164 521 108 l 610 132 q 490 27 557 68 q 315 -14 422 -14 z "},"т":{"ha":1149,"x_min":42,"x_max":1082,"o":"m 44 0 q 108 378 101 336 q 133 536 133 528 q 116 593 133 575 q 56 611 99 611 l 42 611 l 49 653 l 186 653 q 296 600 279 653 l 301 600 q 488 667 388 667 q 600 641 556 667 q 665 588 644 615 q 753 645 704 624 q 876 667 803 667 q 1082 483 1082 667 q 1069 380 1082 463 q 1003 0 1056 297 l 822 0 q 888 381 875 297 q 901 483 901 464 q 815 597 901 597 q 744 583 778 597 q 688 544 710 568 l 690 532 q 694 492 694 503 q 677 367 694 474 q 614 0 660 261 l 433 0 q 499 381 486 297 q 513 483 513 464 q 426 597 513 597 q 363 580 397 597 q 310 542 329 563 l 310 535 q 310 528 310 532 q 311 514 311 524 q 225 0 311 474 l 44 0 z "},"у":{"ha":707,"x_min":6,"x_max":725,"o":"m 14 -229 q 142 -200 90 -229 q 239 -94 193 -171 l 281 -19 l 128 528 q 86 607 113 581 q 18 639 60 633 l 22 667 l 144 667 q 248 637 206 667 q 306 556 290 607 l 404 206 l 651 653 l 725 653 l 314 -90 q 196 -238 253 -199 q 61 -278 139 -278 l 6 -278 l 14 -229 z "},"ў":{"ha":707,"x_min":6,"x_max":725,"o":"m 14 -229 q 142 -200 90 -229 q 239 -94 193 -171 l 281 -19 l 128 528 q 86 607 113 581 q 18 639 60 633 l 22 667 l 144 667 q 248 637 206 667 q 306 556 290 607 l 404 206 l 651 653 l 725 653 l 314 -90 q 196 -238 253 -199 q 61 -278 139 -278 l 6 -278 l 14 -229 m 450 708 q 339 744 383 708 q 278 839 294 779 l 322 868 q 376 819 340 839 q 467 799 413 799 q 563 818 521 799 q 636 868 606 838 l 669 839 q 574 744 632 779 q 450 708 517 708 z "},"ф":{"ha":981,"x_min":36,"x_max":924,"o":"m 331 -14 q 113 68 189 -4 q 36 258 36 140 q 88 458 36 368 q 234 604 140 549 q 450 667 328 660 l 457 713 q 469 799 469 783 q 451 856 469 838 q 390 875 433 875 l 376 875 l 383 917 l 550 917 q 629 896 606 917 q 653 824 653 875 q 631 667 653 794 q 848 584 772 657 q 924 394 924 511 q 872 194 924 285 q 726 49 821 104 q 511 -14 632 -7 l 467 -264 l 286 -264 l 331 -14 m 449 618 q 346 561 399 608 q 258 431 293 514 q 222 238 222 349 q 257 99 222 150 q 346 35 292 47 l 449 618 m 513 35 q 615 90 563 43 q 703 221 668 138 q 739 415 739 304 q 704 556 739 503 q 615 618 669 608 l 513 35 z "},"х":{"ha":690,"x_min":-35,"x_max":703,"o":"m 250 290 l 157 514 q 108 591 136 563 q 47 625 79 619 l 51 653 l 183 653 q 283 625 247 653 q 342 542 319 597 l 389 429 l 610 653 l 703 653 l 418 364 l 513 139 q 562 62 533 90 q 622 28 590 33 l 618 0 l 486 0 q 386 28 422 0 q 328 111 350 56 l 279 224 l 58 0 l -35 0 l 250 290 z "},"ч":{"ha":768,"x_min":42,"x_max":729,"o":"m 478 247 q 349 222 414 222 q 181 263 244 222 q 117 386 117 303 q 125 457 117 410 q 135 535 135 501 q 117 592 135 574 q 56 611 99 611 l 42 611 l 49 653 l 215 653 q 294 632 271 653 q 318 560 318 611 q 314 508 318 536 q 308 474 310 481 q 297 383 297 415 q 392 285 297 285 q 443 290 422 285 q 488 307 464 294 l 549 653 l 729 653 l 615 0 l 435 0 l 478 247 z "},"ц":{"ha":796,"x_min":21,"x_max":743,"o":"m 617 -222 q 619 -158 619 -175 q 606 -71 619 -103 q 575 -25 593 -39 q 529 0 557 -11 q 487 24 500 13 q 471 63 474 36 l 465 63 q 386 8 433 31 q 279 -14 339 -14 q 113 28 167 -14 q 60 165 60 71 q 67 242 60 207 l 107 472 q 114 535 114 510 q 96 592 114 574 q 35 611 78 611 l 21 611 l 28 653 l 194 653 q 274 632 250 653 q 297 560 297 611 q 294 509 299 539 q 288 472 289 479 l 247 240 q 239 158 239 193 q 262 74 239 99 q 332 49 285 49 q 413 76 376 49 q 472 139 449 103 l 563 653 l 743 653 l 639 63 l 681 63 q 710 51 699 63 q 722 24 722 40 l 721 14 l 679 -222 l 617 -222 z "},"ш":{"ha":1136,"x_min":21,"x_max":1097,"o":"m 265 -14 q 112 30 164 -14 q 60 168 60 74 q 67 242 60 207 l 107 472 q 114 535 114 510 q 96 592 114 574 q 35 611 78 611 l 21 611 l 28 653 l 194 653 q 274 632 250 653 q 297 560 297 611 q 288 472 297 533 l 247 240 q 240 169 240 196 q 326 56 240 56 q 398 70 364 56 q 454 108 432 85 q 447 160 447 129 q 456 242 447 190 l 528 653 l 708 653 l 636 240 q 628 161 628 194 q 706 49 628 49 q 769 75 732 49 q 826 139 806 101 l 917 653 l 1097 653 l 983 0 l 865 0 l 826 63 l 819 63 q 740 6 778 25 q 646 -14 703 -14 q 536 13 582 -14 q 476 65 490 39 q 387 8 436 29 q 265 -14 338 -14 z "},"щ":{"ha":1150,"x_min":21,"x_max":1097,"o":"m 971 -222 q 974 -158 974 -175 q 960 -71 974 -103 q 929 -25 947 -39 q 883 0 911 -11 q 841 24 854 13 q 825 63 828 36 l 819 63 q 740 6 778 25 q 646 -14 703 -14 q 536 13 582 -14 q 476 65 490 39 q 387 8 436 29 q 265 -14 338 -14 q 112 30 164 -14 q 60 168 60 74 q 67 242 60 207 l 107 472 q 114 535 114 510 q 96 592 114 574 q 35 611 78 611 l 21 611 l 28 653 l 194 653 q 274 632 250 653 q 297 560 297 611 q 288 472 297 533 l 247 240 q 240 169 240 196 q 326 56 240 56 q 398 70 364 56 q 454 108 432 85 q 447 160 447 129 q 456 242 447 190 l 528 653 l 708 653 l 636 240 q 628 161 628 194 q 706 49 628 49 q 769 75 732 49 q 826 139 806 101 l 917 653 l 1097 653 l 993 63 l 1035 63 q 1065 51 1053 63 q 1076 24 1076 40 l 1075 14 l 1033 -222 l 971 -222 z "},"џ":{"ha":782,"x_min":42,"x_max":743,"o":"m 275 0 l 46 0 l 110 375 q 135 535 135 526 q 117 592 135 574 q 56 611 99 611 l 42 611 l 49 653 l 215 653 q 294 632 271 653 q 318 560 318 611 q 300 433 318 542 q 236 63 282 324 l 458 63 l 563 653 l 743 653 l 629 0 l 400 0 l 342 -208 l 258 -208 l 275 0 z "},"ь":{"ha":686,"x_min":42,"x_max":651,"o":"m 110 375 q 135 535 135 526 q 117 592 135 574 q 56 611 99 611 l 42 611 l 49 653 l 215 653 q 294 632 271 653 q 318 560 318 611 q 306 458 318 538 l 294 389 l 399 389 q 585 347 518 389 q 651 228 651 306 q 562 61 651 122 q 331 0 472 0 l 46 0 l 110 375 m 299 56 q 417 97 368 56 q 465 233 465 139 q 347 333 465 333 q 283 324 313 333 l 238 65 q 299 56 267 56 z "},"ъ":{"ha":829,"x_min":42,"x_max":771,"o":"m 268 590 q 157 540 196 585 q 97 403 118 496 l 42 403 l 76 604 q 96 639 79 625 q 133 653 113 653 l 460 653 l 414 389 l 518 389 q 704 347 638 389 q 771 228 771 306 q 681 61 771 122 q 450 0 592 0 l 165 0 l 268 590 m 418 56 q 536 97 488 56 q 585 233 585 139 q 467 333 585 333 q 403 324 432 333 l 357 65 q 418 56 386 56 z "},"ы":{"ha":1032,"x_min":42,"x_max":969,"o":"m 110 375 q 135 535 135 526 q 117 592 135 574 q 56 611 99 611 l 42 611 l 49 653 l 215 653 q 294 632 271 653 q 318 560 318 611 q 306 458 318 538 l 294 389 l 385 389 q 571 347 504 389 q 638 228 638 306 q 548 61 638 122 q 317 0 458 0 l 46 0 l 110 375 m 796 0 q 716 22 740 0 q 692 96 692 43 q 712 235 692 114 q 785 653 732 356 l 965 653 q 875 121 875 151 q 893 62 875 82 q 956 42 911 42 l 969 42 l 963 0 l 796 0 m 299 56 q 405 98 358 56 q 451 233 451 140 q 422 310 451 286 q 347 333 393 333 q 283 324 313 333 l 238 65 q 299 56 267 56 z "},"љ":{"ha":1104,"x_min":-60,"x_max":1046,"o":"m 21 -21 q -24 -17 0 -21 q -60 -8 -47 -12 l -53 32 q 48 80 4 40 q 131 217 92 119 q 201 486 169 314 q 206 533 206 511 q 186 591 206 571 q 119 611 167 611 l 126 653 l 735 653 l 689 389 l 793 389 q 979 347 913 389 q 1046 228 1046 306 q 956 61 1046 122 q 725 0 867 0 l 440 0 l 543 590 l 364 590 l 346 486 q 216 99 299 218 q 21 -21 133 -21 m 693 56 q 811 97 763 56 q 860 233 860 139 q 742 333 860 333 q 678 324 707 333 l 632 65 q 693 56 661 56 z "},"њ":{"ha":1096,"x_min":42,"x_max":1039,"o":"m 110 375 q 135 535 135 526 q 117 592 135 574 q 56 611 99 611 l 42 611 l 49 653 l 215 653 q 294 632 271 653 q 318 560 318 611 q 312 499 318 542 q 292 375 306 456 l 500 375 l 549 653 l 729 653 l 681 375 l 785 375 q 972 334 906 375 q 1039 218 1039 293 q 950 58 1039 117 q 719 0 861 0 l 435 0 l 489 313 l 281 313 l 226 0 l 46 0 l 110 375 m 688 56 q 804 95 757 56 q 851 222 851 135 q 819 297 851 274 q 733 319 788 319 q 669 310 700 319 l 626 65 q 688 56 656 56 z "},"ѕ":{"ha":651,"x_min":18,"x_max":599,"o":"m 249 -14 q 87 8 156 -14 q 18 104 18 31 q 31 208 18 139 l 79 208 l 79 204 q 117 91 79 133 q 232 49 154 49 q 340 74 292 49 q 389 154 389 99 q 362 208 389 186 q 282 256 335 231 l 215 286 q 106 360 143 321 q 69 451 69 399 q 113 571 69 522 q 226 643 157 619 q 368 667 294 667 q 530 644 461 667 q 599 549 599 622 q 586 444 599 514 l 538 444 l 538 449 q 500 562 538 519 q 385 604 463 604 q 290 576 332 604 q 249 494 249 547 q 269 445 249 465 q 331 407 289 425 l 408 372 q 530 298 492 336 q 568 204 568 260 q 521 81 568 131 q 400 9 474 32 q 249 -14 326 -14 z "},"є":{"ha":700,"x_min":35,"x_max":660,"o":"m 315 -14 q 106 59 176 -14 q 35 250 35 132 q 84 456 35 360 q 224 609 133 551 q 435 667 315 667 q 608 643 556 667 q 660 556 660 619 q 642 424 660 517 l 600 424 q 601 457 601 435 q 560 566 601 528 q 444 604 519 604 q 317 541 372 604 q 235 354 263 478 l 497 354 l 488 292 l 225 292 q 219 217 219 254 q 354 49 219 49 q 471 78 421 49 q 572 164 521 108 l 610 132 q 490 27 557 68 q 315 -14 422 -14 z "},"э":{"ha":700,"x_min":0,"x_max":644,"o":"m 244 -14 q 83 28 138 -14 q 0 132 29 69 l 49 164 q 121 78 82 107 q 228 49 160 49 q 443 292 389 49 l 181 292 l 190 354 l 453 354 q 458 428 458 389 q 425 560 458 515 q 332 604 392 604 q 190 558 247 604 q 113 424 133 511 l 71 424 q 99 555 86 514 q 140 618 113 596 q 364 667 197 667 q 574 594 503 667 q 644 401 644 521 q 595 197 644 292 q 455 44 546 101 q 244 -14 364 -14 z "},"і":{"ha":376,"x_min":42,"x_max":356,"o":"m 264 728 q 199 751 221 728 q 176 811 176 775 q 202 881 176 851 q 268 911 228 911 q 333 888 311 911 q 356 828 356 864 q 333 756 356 783 q 264 728 310 728 m 128 472 q 135 535 135 517 q 117 592 135 574 q 56 611 99 611 l 42 611 l 49 653 l 215 653 q 294 632 271 653 q 318 560 318 611 q 308 472 318 533 l 226 0 l 46 0 l 128 472 z "},"ї":{"ha":376,"x_min":42,"x_max":504,"o":"m 156 742 q 90 765 113 742 q 68 825 68 789 q 94 895 68 865 q 160 925 119 925 q 225 901 203 925 q 247 842 247 878 q 222 772 247 801 q 156 742 196 742 m 413 742 q 347 765 369 742 q 325 825 325 789 q 351 895 325 865 q 417 925 376 925 q 482 901 460 925 q 504 842 504 878 q 478 772 504 801 q 413 742 453 742 m 113 393 q 135 535 135 519 q 117 592 135 574 q 56 611 99 611 l 42 611 l 49 653 l 215 653 q 294 632 271 653 q 318 560 318 611 q 303 444 318 539 q 226 0 288 349 l 46 0 l 113 393 z "},"ј":{"ha":375,"x_min":-122,"x_max":356,"o":"m 264 728 q 199 751 221 728 q 176 811 176 775 q 202 881 176 851 q 268 911 228 911 q 333 888 311 911 q 356 828 356 864 q 330 758 356 788 q 264 728 304 728 m -117 -229 q -11 -159 -50 -217 q 51 35 28 -101 l 117 417 q 135 535 135 521 q 117 592 135 574 q 56 611 99 611 l 42 611 l 49 653 l 215 653 q 294 632 271 653 q 318 560 318 611 q 303 449 318 540 q 232 35 289 357 q 172 -146 211 -82 q 64 -237 133 -210 q -122 -264 -6 -264 l -117 -229 z "},"ћ":{"ha":761,"x_min":17,"x_max":682,"o":"m 138 688 l 40 688 l 51 750 l 149 750 l 163 833 l 247 917 l 358 917 l 329 750 l 468 750 l 457 688 l 318 688 l 290 528 q 374 578 326 560 q 468 597 421 597 q 682 417 682 597 q 614 0 682 379 l 433 0 q 490 326 478 253 q 501 418 501 400 q 415 528 501 528 q 348 510 385 528 q 278 461 311 492 l 197 0 l 17 0 l 138 688 z "},"ю":{"ha":1025,"x_min":42,"x_max":969,"o":"m 592 -14 q 400 61 469 -14 q 331 257 331 136 q 333 299 331 268 l 278 299 l 226 0 l 46 0 l 110 375 q 135 535 135 526 q 117 592 135 574 q 56 611 99 611 l 42 611 l 49 653 l 215 653 q 294 632 271 653 q 318 560 318 611 q 289 361 318 521 l 346 361 q 421 517 368 447 q 549 626 474 586 q 711 667 625 667 q 900 592 831 667 q 969 397 969 517 q 918 193 969 288 q 780 42 867 99 q 592 -14 693 -14 m 603 49 q 699 114 657 49 q 765 273 742 179 q 788 447 788 367 q 765 563 788 521 q 700 604 743 604 q 610 549 653 604 q 541 403 567 494 q 515 206 515 311 q 537 90 515 131 q 603 49 558 49 z "}}}
